<?xml version="1.0" encoding="UTF-8" standalone="no"?>
<!DOCTYPE svg PUBLIC "-//W3C//DTD SVG 1.1//EN"
 "http://www.w3.org/Graphics/SVG/1.1/DTD/svg11.dtd">
<!-- Generated by graphviz version 2.38.0 (20140413.2041)
 -->
<!-- Title: G Pages: 1 -->
<svg width="13095pt" height="392pt"
 viewBox="0.00 0.00 13095.33 392.00" xmlns="http://www.w3.org/2000/svg" xmlns:xlink="http://www.w3.org/1999/xlink">
<g id="graph0" class="graph" transform="scale(1 1) rotate(0) translate(4 388)">
<title>G</title>
<polygon fill="white" stroke="none" points="-4,4 -4,-388 13091.3,-388 13091.3,4 -4,4"/>
<!-- 1391 -->
<g id="node1" class="node"><title>1391</title>
<ellipse fill="none" stroke="black" cx="6865.33" cy="-18" rx="301.647" ry="18"/>
<text text-anchor="middle" x="6865.33" y="-14.3" font-family="Times,serif" font-size="14.00">/usr/local/thttpd/www/cgi&#45;bin/john/password_crack.txt [2.8555436795545544E&#45;5]</text>
</g>
<!-- 1392 -->
<g id="node2" class="node"><title>1392</title>
<polygon fill="none" stroke="black" points="6977.83,-123 6752.83,-123 6752.83,-87 6977.83,-87 6977.83,-123"/>
<text text-anchor="middle" x="6865.33" y="-101.3" font-family="Times,serif" font-size="14.00">13886john [2.8555436795545544E&#45;5]</text>
</g>
<!-- 1392&#45;&gt;1391 -->
<g id="edge1" class="edge"><title>1392&#45;&gt;1391</title>
<path fill="none" stroke="black" d="M6865.33,-86.799C6865.33,-75.1626 6865.33,-59.5479 6865.33,-46.2368"/>
<polygon fill="black" stroke="black" points="6868.83,-46.1754 6865.33,-36.1754 6861.83,-46.1755 6868.83,-46.1754"/>
<text text-anchor="middle" x="6899.83" y="-57.8" font-family="Times,serif" font-size="14.00">1324785 1.0</text>
</g>
<!-- 1139 -->
<g id="node3" class="node"><title>1139</title>
<ellipse fill="none" stroke="black" cx="7639.33" cy="-192" rx="223.66" ry="18"/>
<text text-anchor="middle" x="7639.33" y="-188.3" font-family="Times,serif" font-size="14.00">/usr/local/thttpd/www/cgi&#45;bin/john/rules/T0XlCv1.rule [0.0]</text>
</g>
<!-- 1139&#45;&gt;1392 -->
<g id="edge28" class="edge"><title>1139&#45;&gt;1392</title>
<path fill="none" stroke="black" d="M7519.17,-176.761C7432.07,-166.536 7311.45,-152.575 7205.33,-141 7133.37,-133.152 7052.8,-124.837 6988.16,-118.282"/>
<polygon fill="black" stroke="black" points="6988.22,-114.771 6977.92,-117.245 6987.52,-121.735 6988.22,-114.771"/>
<text text-anchor="middle" x="7425.83" y="-144.8" font-family="Times,serif" font-size="14.00">1317237 0.04545232063627763</text>
</g>
<!-- 1270 -->
<g id="node4" class="node"><title>1270</title>
<ellipse fill="none" stroke="black" cx="8087.33" cy="-192" rx="206.863" ry="18"/>
<text text-anchor="middle" x="8087.33" y="-188.3" font-family="Times,serif" font-size="14.00">/usr/local/thttpd/www/cgi&#45;bin/john/repeats32.conf [0.0]</text>
</g>
<!-- 1270&#45;&gt;1392 -->
<g id="edge16" class="edge"><title>1270&#45;&gt;1392</title>
<path fill="none" stroke="black" d="M7955.49,-178.132C7840.24,-167.189 7668.31,-151.606 7518.33,-141 7333.73,-127.946 7119.47,-117.326 6988.16,-111.333"/>
<polygon fill="black" stroke="black" points="6988.21,-107.832 6978.06,-110.874 6987.89,-114.824 6988.21,-107.832"/>
<text text-anchor="middle" x="7794.83" y="-144.8" font-family="Times,serif" font-size="14.00">1322255 0.04545159581115164</text>
</g>
<!-- 1140 -->
<g id="node5" class="node"><title>1140</title>
<ellipse fill="none" stroke="black" cx="8946.33" cy="-192" rx="244.257" ry="18"/>
<text text-anchor="middle" x="8946.33" y="-188.3" font-family="Times,serif" font-size="14.00">/usr/local/thttpd/www/cgi&#45;bin/john/rules/rockyou&#45;30000.rule [0.0]</text>
</g>
<!-- 1140&#45;&gt;1392 -->
<g id="edge2" class="edge"><title>1140&#45;&gt;1392</title>
<path fill="none" stroke="black" d="M8798.01,-177.657C8663.74,-166.091 8460.44,-149.858 8283.33,-141 7804.52,-117.052 7233.92,-109.286 6988.02,-106.94"/>
<polygon fill="black" stroke="black" points="6988.02,-103.44 6977.99,-106.846 6987.95,-110.44 6988.02,-103.44"/>
<text text-anchor="middle" x="8609.83" y="-144.8" font-family="Times,serif" font-size="14.00">1317581 0.04545167828748653</text>
</g>
<!-- 1133 -->
<g id="node6" class="node"><title>1133</title>
<ellipse fill="none" stroke="black" cx="9429.33" cy="-192" rx="220.161" ry="18"/>
<text text-anchor="middle" x="9429.33" y="-188.3" font-family="Times,serif" font-size="14.00">/usr/local/thttpd/www/cgi&#45;bin/john/rules/d3ad0ne.rule [0.0]</text>
</g>
<!-- 1133&#45;&gt;1392 -->
<g id="edge20" class="edge"><title>1133&#45;&gt;1392</title>
<path fill="none" stroke="black" d="M9281.86,-178.601C9135.07,-166.791 8903.3,-149.582 8702.33,-141 8057.26,-113.454 7283.84,-107.587 6988.31,-106.338"/>
<polygon fill="black" stroke="black" points="6988.01,-102.837 6978,-106.295 6987.99,-109.837 6988.01,-102.837"/>
<text text-anchor="middle" x="9055.33" y="-144.8" font-family="Times,serif" font-size="14.00">1314936 0.045452125631684354</text>
</g>
<!-- 1263 -->
<g id="node7" class="node"><title>1263</title>
<ellipse fill="none" stroke="black" cx="9856.33" cy="-192" rx="188.467" ry="18"/>
<text text-anchor="middle" x="9856.33" y="-188.3" font-family="Times,serif" font-size="14.00">/usr/local/thttpd/www/cgi&#45;bin/john/john.conf [0.0]</text>
</g>
<!-- 1263&#45;&gt;1392 -->
<g id="edge13" class="edge"><title>1263&#45;&gt;1392</title>
<path fill="none" stroke="black" d="M9723.93,-179.177C9582.34,-167.104 9351.17,-149.029 9151.33,-141 8325.57,-107.825 7330.88,-105.462 6988.26,-105.735"/>
<polygon fill="black" stroke="black" points="6988.07,-102.235 6978.07,-105.744 6988.07,-109.235 6988.07,-102.235"/>
<text text-anchor="middle" x="9492.83" y="-144.8" font-family="Times,serif" font-size="14.00">1314850 0.04545151498584785</text>
</g>
<!-- 1134 -->
<g id="node8" class="node"><title>1134</title>
<ellipse fill="none" stroke="black" cx="10467.3" cy="-192" rx="206.063" ry="18"/>
<text text-anchor="middle" x="10467.3" y="-188.3" font-family="Times,serif" font-size="14.00">/usr/local/thttpd/www/cgi&#45;bin/john/rules/dive.rule [0.0]</text>
</g>
<!-- 1134&#45;&gt;1392 -->
<g id="edge26" class="edge"><title>1134&#45;&gt;1392</title>
<path fill="none" stroke="black" d="M10371.1,-176.035C10289.2,-164.048 10168.4,-148.103 10062.3,-141 9752.26,-120.228 7538.19,-109.014 6988.57,-106.532"/>
<polygon fill="black" stroke="black" points="6988.26,-103.03 6978.24,-106.485 6988.22,-110.03 6988.26,-103.03"/>
<text text-anchor="middle" x="10307.8" y="-144.8" font-family="Times,serif" font-size="14.00">1316325 0.04545022880567869</text>
</g>
<!-- 1115 -->
<g id="node9" class="node"><title>1115</title>
<ellipse fill="none" stroke="black" cx="10897.3" cy="-192" rx="206.063" ry="18"/>
<text text-anchor="middle" x="10897.3" y="-188.3" font-family="Times,serif" font-size="14.00">/usr/local/thttpd/www/cgi&#45;bin/john/korelogic.conf [0.0]</text>
</g>
<!-- 1115&#45;&gt;1392 -->
<g id="edge5" class="edge"><title>1115&#45;&gt;1392</title>
<path fill="none" stroke="black" d="M10785.5,-176.838C10685,-164.792 10533,-148.317 10400.3,-141 9715.29,-103.227 7530.63,-104.736 6988.15,-105.724"/>
<polygon fill="black" stroke="black" points="6987.95,-102.225 6977.95,-105.743 6987.96,-109.225 6987.95,-102.225"/>
<text text-anchor="middle" x="10680.8" y="-144.8" font-family="Times,serif" font-size="14.00">1321144 0.04545215817620891</text>
</g>
<!-- 1172 -->
<g id="node10" class="node"><title>1172</title>
<ellipse fill="none" stroke="black" cx="11323.3" cy="-192" rx="202.264" ry="18"/>
<text text-anchor="middle" x="11323.3" y="-188.3" font-family="Times,serif" font-size="14.00">/usr/local/thttpd/www/cgi&#45;bin/john/dumb32.conf [0.0]</text>
</g>
<!-- 1172&#45;&gt;1392 -->
<g id="edge22" class="edge"><title>1172&#45;&gt;1392</title>
<path fill="none" stroke="black" d="M11204.7,-177.394C11093.4,-165.303 10922.4,-148.429 10773.3,-141 10010.2,-102.957 7564.75,-104.763 6988.02,-105.747"/>
<polygon fill="black" stroke="black" points="6988.01,-102.247 6978.01,-105.764 6988.02,-109.247 6988.01,-102.247"/>
<text text-anchor="middle" x="11077.3" y="-144.8" font-family="Times,serif" font-size="14.00">1321909 0.045451627778504644</text>
</g>
<!-- 1191 -->
<g id="node11" class="node"><title>1191</title>
<ellipse fill="none" stroke="black" cx="12735.3" cy="-192" rx="206.863" ry="18"/>
<text text-anchor="middle" x="12735.3" y="-188.3" font-family="Times,serif" font-size="14.00">/usr/local/thttpd/www/cgi&#45;bin/john/repeats16.conf [0.0]</text>
</g>
<!-- 1191&#45;&gt;1392 -->
<g id="edge23" class="edge"><title>1191&#45;&gt;1392</title>
<path fill="none" stroke="black" d="M12628.3,-176.599C12532.7,-164.485 12389,-148.046 12263.3,-141 11721.5,-110.618 7740.75,-106.562 6987.97,-106.065"/>
<polygon fill="black" stroke="black" points="6987.93,-102.565 6977.92,-106.059 6987.92,-109.565 6987.93,-102.565"/>
<text text-anchor="middle" x="12538.3" y="-144.8" font-family="Times,serif" font-size="14.00">1322093 0.045451741897880135</text>
</g>
<!-- 642 -->
<g id="node12" class="node"><title>642</title>
<ellipse fill="none" stroke="black" cx="3959.33" cy="-192" rx="143.775" ry="18"/>
<text text-anchor="middle" x="3959.33" y="-188.3" font-family="Times,serif" font-size="14.00">/lib/x86_64&#45;linux&#45;gnu/libm.so.6 [0.5]</text>
</g>
<!-- 642&#45;&gt;1392 -->
<g id="edge3" class="edge"><title>642&#45;&gt;1392</title>
<path fill="none" stroke="black" d="M4060.24,-179.127C4077.28,-177.29 4094.8,-175.506 4111.33,-174 4318.98,-155.074 4371,-149.933 4579.33,-141 5404.99,-105.596 6399.74,-104.629 6742.38,-105.502"/>
<polygon fill="black" stroke="black" points="6742.57,-109.003 6752.58,-105.529 6742.58,-102.003 6742.57,-109.003"/>
<text text-anchor="middle" x="4670.83" y="-144.8" font-family="Times,serif" font-size="14.00">1314542 3.134873676534114E&#45;6</text>
</g>
<!-- 1131 -->
<g id="node13" class="node"><title>1131</title>
<ellipse fill="none" stroke="black" cx="427.327" cy="-192" rx="249.656" ry="18"/>
<text text-anchor="middle" x="427.327" y="-188.3" font-family="Times,serif" font-size="14.00">/usr/local/thttpd/www/cgi&#45;bin/john/rules/passphrase&#45;rule2.rule [0.0]</text>
</g>
<!-- 1131&#45;&gt;1392 -->
<g id="edge4" class="edge"><title>1131&#45;&gt;1392</title>
<path fill="none" stroke="black" d="M587.403,-178.143C747.094,-165.964 999.497,-148.459 1218.33,-141 2347.84,-102.498 6023.04,-104.958 6742.51,-105.827"/>
<polygon fill="black" stroke="black" points="6742.63,-109.327 6752.63,-105.84 6742.64,-102.327 6742.63,-109.327"/>
<text text-anchor="middle" x="1306.83" y="-144.8" font-family="Times,serif" font-size="14.00">1321008 0.04545223205439713</text>
</g>
<!-- 1277 -->
<g id="node14" class="node"><title>1277</title>
<ellipse fill="none" stroke="black" cx="899.327" cy="-192" rx="204.164" ry="18"/>
<text text-anchor="middle" x="899.327" y="-188.3" font-family="Times,serif" font-size="14.00">/usr/local/thttpd/www/cgi&#45;bin/john/dynamic.conf [0.0]</text>
</g>
<!-- 1277&#45;&gt;1392 -->
<g id="edge31" class="edge"><title>1277&#45;&gt;1392</title>
<path fill="none" stroke="black" d="M1042.03,-179.118C1065.83,-177.293 1090.27,-175.515 1113.33,-174 1395.32,-155.475 1465.85,-149.302 1748.33,-141 2766.22,-111.085 6064.63,-106.68 6742.76,-106.087"/>
<polygon fill="black" stroke="black" points="6742.8,-109.587 6752.79,-106.078 6742.79,-102.587 6742.8,-109.587"/>
<text text-anchor="middle" x="1836.83" y="-144.8" font-family="Times,serif" font-size="14.00">1322437 0.04545167956570021</text>
</g>
<!-- 1176 -->
<g id="node15" class="node"><title>1176</title>
<ellipse fill="none" stroke="black" cx="1390.33" cy="-192" rx="268.352" ry="18"/>
<text text-anchor="middle" x="1390.33" y="-188.3" font-family="Times,serif" font-size="14.00">/usr/local/thttpd/www/cgi&#45;bin/john/dumb16.conf [0.5000000000000001]</text>
</g>
<!-- 1176&#45;&gt;1392 -->
<g id="edge17" class="edge"><title>1176&#45;&gt;1392</title>
<path fill="none" stroke="black" d="M1565.35,-178.349C1741.91,-166.211 2022.37,-148.635 2265.33,-141 3174.15,-112.44 6105.64,-106.996 6742.5,-106.141"/>
<polygon fill="black" stroke="black" points="6742.62,-109.641 6752.61,-106.128 6742.61,-102.641 6742.62,-109.641"/>
<text text-anchor="middle" x="2356.83" y="-144.8" font-family="Times,serif" font-size="14.00">1321747 3.201169539497147E&#45;5</text>
</g>
<!-- 1268 -->
<g id="node16" class="node"><title>1268</title>
<ellipse fill="none" stroke="black" cx="1907.33" cy="-192" rx="230.159" ry="18"/>
<text text-anchor="middle" x="1907.33" y="-188.3" font-family="Times,serif" font-size="14.00">/usr/local/thttpd/www/cgi&#45;bin/john/regex_alphabets.conf [0.0]</text>
</g>
<!-- 1268&#45;&gt;1392 -->
<g id="edge6" class="edge"><title>1268&#45;&gt;1392</title>
<path fill="none" stroke="black" d="M2067.99,-179.075C2094.17,-177.275 2121,-175.516 2146.33,-174 2447.92,-155.947 2523.32,-149.644 2825.33,-141 3616.66,-118.351 6153.6,-108.431 6742.44,-106.402"/>
<polygon fill="black" stroke="black" points="6742.66,-109.902 6752.65,-106.367 6742.64,-102.902 6742.66,-109.902"/>
<text text-anchor="middle" x="2913.83" y="-144.8" font-family="Times,serif" font-size="14.00">1322737 0.04545183620060949</text>
</g>
<!-- 1135 -->
<g id="node17" class="node"><title>1135</title>
<ellipse fill="none" stroke="black" cx="2431.33" cy="-192" rx="276.451" ry="18"/>
<text text-anchor="middle" x="2431.33" y="-188.3" font-family="Times,serif" font-size="14.00">/usr/local/thttpd/www/cgi&#45;bin/john/rules/InsidePro&#45;PasswordsPro.rule [0.0]</text>
</g>
<!-- 1135&#45;&gt;1392 -->
<g id="edge12" class="edge"><title>1135&#45;&gt;1392</title>
<path fill="none" stroke="black" d="M2611.86,-178.368C2792.35,-166.337 3077.9,-148.923 3325.33,-141 4012.03,-119.011 6199.26,-108.735 6742.37,-106.484"/>
<polygon fill="black" stroke="black" points="6742.59,-109.983 6752.57,-106.442 6742.56,-102.983 6742.59,-109.983"/>
<text text-anchor="middle" x="3413.83" y="-144.8" font-family="Times,serif" font-size="14.00">1316941 0.04545260038916738</text>
</g>
<!-- 1130 -->
<g id="node18" class="node"><title>1130</title>
<ellipse fill="none" stroke="black" cx="3056.33" cy="-192" rx="330.641" ry="18"/>
<text text-anchor="middle" x="3056.33" y="-188.3" font-family="Times,serif" font-size="14.00">/usr/local/thttpd/www/cgi&#45;bin/john/rules/T0XlC&#45;insert_top_100_passwords_1_G.rule [0.0]</text>
</g>
<!-- 1130&#45;&gt;1392 -->
<g id="edge18" class="edge"><title>1130&#45;&gt;1392</title>
<path fill="none" stroke="black" d="M3221.65,-176.38C3363.39,-164.518 3573.12,-148.568 3756.33,-141 4353.24,-116.344 6242.28,-108.159 6742.69,-106.395"/>
<polygon fill="black" stroke="black" points="6742.84,-109.895 6752.82,-106.359 6742.81,-102.895 6742.84,-109.895"/>
<text text-anchor="middle" x="3848.33" y="-144.8" font-family="Times,serif" font-size="14.00">1317431 0.045452532700646316</text>
</g>
<!-- 1222 -->
<g id="node19" class="node"><title>1222</title>
<ellipse fill="none" stroke="black" cx="3601.33" cy="-192" rx="196.065" ry="18"/>
<text text-anchor="middle" x="3601.33" y="-188.3" font-family="Times,serif" font-size="14.00">/usr/local/thttpd/www/cgi&#45;bin/john/hybrid.conf [0.0]</text>
</g>
<!-- 1222&#45;&gt;1392 -->
<g id="edge7" class="edge"><title>1222&#45;&gt;1392</title>
<path fill="none" stroke="black" d="M3717.06,-177.426C3824.89,-165.425 3990.24,-148.669 4134.33,-141 4652.54,-113.418 6281.11,-107.415 6742.44,-106.254"/>
<polygon fill="black" stroke="black" points="6742.47,-109.754 6752.46,-106.23 6742.45,-102.755 6742.47,-109.754"/>
<text text-anchor="middle" x="4226.33" y="-144.8" font-family="Times,serif" font-size="14.00">1321609 0.045451935013335415</text>
</g>
<!-- 1132 -->
<g id="node20" class="node"><title>1132</title>
<ellipse fill="none" stroke="black" cx="4334.33" cy="-192" rx="213.662" ry="18"/>
<text text-anchor="middle" x="4334.33" y="-188.3" font-family="Times,serif" font-size="14.00">/usr/local/thttpd/www/cgi&#45;bin/john/rules/best64.rule [0.0]</text>
</g>
<!-- 1132&#45;&gt;1392 -->
<g id="edge8" class="edge"><title>1132&#45;&gt;1392</title>
<path fill="none" stroke="black" d="M4473.83,-178.31C4609.65,-166.502 4821.97,-149.489 5006.33,-141 5660.02,-110.9 6444.15,-106.524 6742.22,-106.006"/>
<polygon fill="black" stroke="black" points="6742.63,-109.505 6752.62,-105.989 6742.61,-102.505 6742.63,-109.505"/>
<text text-anchor="middle" x="5094.83" y="-144.8" font-family="Times,serif" font-size="14.00">1314910 0.04545280623553159</text>
</g>
<!-- 1307 -->
<g id="node21" class="node"><title>1307</title>
<ellipse fill="none" stroke="black" cx="4750.33" cy="-192" rx="184.667" ry="18"/>
<text text-anchor="middle" x="4750.33" y="-188.3" font-family="Times,serif" font-size="14.00">/usr/local/thttpd/www/cgi&#45;bin/john/john.pot [0.0]</text>
</g>
<!-- 1307&#45;&gt;1392 -->
<g id="edge30" class="edge"><title>1307&#45;&gt;1392</title>
<path fill="none" stroke="black" d="M4880.21,-179.184C4901.62,-177.361 4923.59,-175.566 4944.33,-174 5175.24,-156.558 5232.98,-151.227 5464.33,-141 5936.39,-120.132 6498.52,-110.783 6742.37,-107.486"/>
<polygon fill="black" stroke="black" points="6742.73,-110.981 6752.68,-107.347 6742.64,-103.982 6742.73,-110.981"/>
<text text-anchor="middle" x="5556.33" y="-144.8" font-family="Times,serif" font-size="14.00">1324569 0.045450263436277984</text>
</g>
<!-- 1322 -->
<g id="node22" class="node"><title>1322</title>
<ellipse fill="none" stroke="black" cx="8498.33" cy="-192" rx="185.767" ry="18"/>
<text text-anchor="middle" x="8498.33" y="-188.3" font-family="Times,serif" font-size="14.00">/usr/lib/x86_64&#45;linux&#45;gnu/libcrypto.so.1.0.0 [0.5]</text>
</g>
<!-- 1322&#45;&gt;1392 -->
<g id="edge9" class="edge"><title>1322&#45;&gt;1392</title>
<path fill="none" stroke="black" d="M8366.17,-179.339C8345.15,-177.524 8323.65,-175.692 8303.33,-174 8118.5,-158.613 8072.5,-151.51 7887.33,-141 7563,-122.592 7180.19,-112.618 6988.19,-108.425"/>
<polygon fill="black" stroke="black" points="6988.14,-104.924 6978.07,-108.206 6987.99,-111.922 6988.14,-104.924"/>
<text text-anchor="middle" x="8187.83" y="-144.8" font-family="Times,serif" font-size="14.00">1314506 3.135576793546833E&#45;6</text>
</g>
<!-- 1136 -->
<g id="node23" class="node"><title>1136</title>
<ellipse fill="none" stroke="black" cx="5168.33" cy="-192" rx="215.262" ry="18"/>
<text text-anchor="middle" x="5168.33" y="-188.3" font-family="Times,serif" font-size="14.00">/usr/local/thttpd/www/cgi&#45;bin/john/rules/T0XlC.rule [0.0]</text>
</g>
<!-- 1136&#45;&gt;1392 -->
<g id="edge14" class="edge"><title>1136&#45;&gt;1392</title>
<path fill="none" stroke="black" d="M5320.5,-179.257C5344.86,-177.449 5369.78,-175.639 5393.33,-174 5623.46,-157.976 5680.93,-152.563 5911.33,-141 6209.64,-126.028 6560.73,-114.791 6742.45,-109.449"/>
<polygon fill="black" stroke="black" points="6742.68,-112.944 6752.57,-109.153 6742.47,-105.947 6742.68,-112.944"/>
<text text-anchor="middle" x="5999.83" y="-144.8" font-family="Times,serif" font-size="14.00">1317083 0.04545254762362867</text>
</g>
<!-- 584 -->
<g id="node24" class="node"><title>584</title>
<ellipse fill="none" stroke="black" cx="564.327" cy="-366" rx="163.271" ry="18"/>
<text text-anchor="middle" x="564.327" y="-362.3" font-family="Times,serif" font-size="14.00">/lib/x86_64&#45;linux&#45;gnu/libpthread.so.0 [0.5]</text>
</g>
<!-- 584&#45;&gt;1392 -->
<g id="edge10" class="edge"><title>584&#45;&gt;1392</title>
<path fill="none" stroke="black" d="M432.34,-355.366C251.542,-339.342 -45.2963,-301.45 6.32665,-228 101.474,-92.6216 203.385,-154.208 368.327,-141 697.892,-114.61 5874.74,-107.2 6742.4,-106.141"/>
<polygon fill="black" stroke="black" points="6742.72,-109.641 6752.72,-106.128 6742.71,-102.641 6742.72,-109.641"/>
<text text-anchor="middle" x="101.327" y="-231.8" font-family="Times,serif" font-size="14.00">1314704 3.1321745696710833E&#45;6</text>
</g>
<!-- 1093 -->
<g id="node35" class="node"><title>1093</title>
<polygon fill="none" stroke="black" points="6081.33,-297 5885.33,-297 5885.33,-261 6081.33,-261 6081.33,-297"/>
<text text-anchor="middle" x="5983.33" y="-275.3" font-family="Times,serif" font-size="14.00">13840tar [0.5000000000000001]</text>
</g>
<!-- 584&#45;&gt;1093 -->
<g id="edge64" class="edge"><title>584&#45;&gt;1093</title>
<path fill="none" stroke="black" d="M724.45,-362.347C1181.87,-354.782 2533.72,-332.519 3656.33,-315 4511.5,-301.654 5543.47,-286.449 5875.14,-281.584"/>
<polygon fill="black" stroke="black" points="5875.28,-285.082 5885.22,-281.436 5875.17,-278.083 5875.28,-285.082"/>
<text text-anchor="middle" x="3744.33" y="-318.8" font-family="Times,serif" font-size="14.00">660767 5.618331169165243E&#45;4</text>
</g>
<!-- 583 -->
<g id="node25" class="node"><title>583</title>
<ellipse fill="none" stroke="black" cx="2148.33" cy="-366" rx="140.275" ry="18"/>
<text text-anchor="middle" x="2148.33" y="-362.3" font-family="Times,serif" font-size="14.00">/lib/x86_64&#45;linux&#45;gnu/libc.so.6 [0.5]</text>
</g>
<!-- 583&#45;&gt;1392 -->
<g id="edge11" class="edge"><title>583&#45;&gt;1392</title>
<path fill="none" stroke="black" d="M2008.16,-364.75C1577.13,-362.535 292.804,-344.603 168.327,-210 157.463,-198.253 157.267,-185.562 168.327,-174 227.43,-112.209 5836.82,-106.559 6742.49,-106.05"/>
<polygon fill="black" stroke="black" points="6742.61,-109.55 6752.61,-106.044 6742.61,-102.55 6742.61,-109.55"/>
<text text-anchor="middle" x="318.327" y="-231.8" font-family="Times,serif" font-size="14.00">1314740 3.1315102869406392E&#45;6</text>
</g>
<!-- 583&#45;&gt;1093 -->
<g id="edge67" class="edge"><title>583&#45;&gt;1093</title>
<path fill="none" stroke="black" d="M2285.38,-361.962C2892.09,-348.515 5330.16,-294.477 5874.98,-282.401"/>
<polygon fill="black" stroke="black" points="5875.27,-285.896 5885.19,-282.175 5875.12,-278.898 5875.27,-285.896"/>
<text text-anchor="middle" x="4387.83" y="-318.8" font-family="Times,serif" font-size="14.00">660543 2.4268845938281734E&#45;4</text>
</g>
<!-- 1358 -->
<g id="node26" class="node"><title>1358</title>
<ellipse fill="none" stroke="black" cx="10153.3" cy="-192" rx="90.1842" ry="18"/>
<text text-anchor="middle" x="10153.3" y="-188.3" font-family="Times,serif" font-size="14.00">/etc/password.txt [0.5]</text>
</g>
<!-- 1358&#45;&gt;1392 -->
<g id="edge15" class="edge"><title>1358&#45;&gt;1392</title>
<path fill="none" stroke="black" d="M10089.4,-179.182C10077.5,-177.24 10065,-175.405 10053.3,-174 9846.29,-149.164 9793.66,-149.678 9585.33,-141 9069.19,-119.5 7448.83,-109.186 6988.43,-106.641"/>
<polygon fill="black" stroke="black" points="6988.12,-103.14 6978.1,-106.584 6988.08,-110.14 6988.12,-103.14"/>
<text text-anchor="middle" x="9966.83" y="-144.8" font-family="Times,serif" font-size="14.00">1324709 3.100505234594692E&#45;8</text>
</g>
<!-- 1220 -->
<g id="node27" class="node"><title>1220</title>
<ellipse fill="none" stroke="black" cx="5668.33" cy="-192" rx="266.453" ry="18"/>
<text text-anchor="middle" x="5668.33" y="-188.3" font-family="Times,serif" font-size="14.00">/usr/local/thttpd/www/cgi&#45;bin/john/dynamic_flat_sse_formats.conf [0.0]</text>
</g>
<!-- 1220&#45;&gt;1392 -->
<g id="edge27" class="edge"><title>1220&#45;&gt;1392</title>
<path fill="none" stroke="black" d="M5822.62,-177.308C5945.26,-166.663 6121.2,-151.918 6275.33,-141 6436.69,-129.569 6623.07,-118.943 6742.45,-112.466"/>
<polygon fill="black" stroke="black" points="6742.92,-115.946 6752.72,-111.911 6742.54,-108.956 6742.92,-115.946"/>
<text text-anchor="middle" x="6363.83" y="-144.8" font-family="Times,serif" font-size="14.00">1322551 0.04545183705530671</text>
</g>
<!-- 1260 -->
<g id="node28" class="node"><title>1260</title>
<ellipse fill="none" stroke="black" cx="6190.33" cy="-192" rx="237.458" ry="18"/>
<text text-anchor="middle" x="6190.33" y="-188.3" font-family="Times,serif" font-size="14.00">/usr/local/thttpd/www/cgi&#45;bin/john/dynamic_disabled.conf [0.0]</text>
</g>
<!-- 1260&#45;&gt;1392 -->
<g id="edge33" class="edge"><title>1260&#45;&gt;1392</title>
<path fill="none" stroke="black" d="M6301.56,-176.044C6377.52,-165.92 6480.47,-152.369 6571.33,-141 6627.51,-133.97 6689.77,-126.509 6742.49,-120.291"/>
<polygon fill="black" stroke="black" points="6743.03,-123.751 6752.55,-119.104 6742.21,-116.799 6743.03,-123.751"/>
<text text-anchor="middle" x="6659.83" y="-144.8" font-family="Times,serif" font-size="14.00">1314872 0.04545278395926515</text>
</g>
<!-- 1138 -->
<g id="node29" class="node"><title>1138</title>
<ellipse fill="none" stroke="black" cx="6663.33" cy="-192" rx="217.962" ry="18"/>
<text text-anchor="middle" x="6663.33" y="-188.3" font-family="Times,serif" font-size="14.00">/usr/local/thttpd/www/cgi&#45;bin/john/rules/specific.rule [0.0]</text>
</g>
<!-- 1138&#45;&gt;1392 -->
<g id="edge24" class="edge"><title>1138&#45;&gt;1392</title>
<path fill="none" stroke="black" d="M6703.24,-174.207C6735.4,-160.674 6780.79,-141.572 6815.37,-127.023"/>
<polygon fill="black" stroke="black" points="6816.95,-130.154 6824.81,-123.049 6814.23,-123.702 6816.95,-130.154"/>
<text text-anchor="middle" x="6865.83" y="-144.8" font-family="Times,serif" font-size="14.00">1317879 0.04545260231196443</text>
</g>
<!-- 641 -->
<g id="node30" class="node"><title>641</title>
<ellipse fill="none" stroke="black" cx="11684.3" cy="-192" rx="140.275" ry="18"/>
<text text-anchor="middle" x="11684.3" y="-188.3" font-family="Times,serif" font-size="14.00">/lib/x86_64&#45;linux&#45;gnu/libz.so.1 [0.5]</text>
</g>
<!-- 641&#45;&gt;1392 -->
<g id="edge19" class="edge"><title>641&#45;&gt;1392</title>
<path fill="none" stroke="black" d="M11588,-178.796C11485.4,-166.453 11318.2,-148.199 11173.3,-141 10746.4,-119.791 7647.36,-108.553 6988.33,-106.389"/>
<polygon fill="black" stroke="black" points="6987.88,-102.887 6977.87,-106.354 6987.86,-109.887 6987.88,-102.887"/>
<text text-anchor="middle" x="11461.8" y="-144.8" font-family="Times,serif" font-size="14.00">1314574 3.134334438481557E&#45;6</text>
</g>
<!-- 1058 -->
<g id="node31" class="node"><title>1058</title>
<ellipse fill="none" stroke="black" cx="11997.3" cy="-192" rx="154.873" ry="18"/>
<text text-anchor="middle" x="11997.3" y="-188.3" font-family="Times,serif" font-size="14.00">/lib/x86_64&#45;linux&#45;gnu/libcrypt.so.1 [0.5]</text>
</g>
<!-- 1058&#45;&gt;1392 -->
<g id="edge21" class="edge"><title>1058&#45;&gt;1392</title>
<path fill="none" stroke="black" d="M11904.4,-177.556C11815.6,-165.378 11677.6,-148.263 11557.3,-141 11090.2,-112.794 7680.66,-107.024 6987.93,-106.138"/>
<polygon fill="black" stroke="black" points="6987.94,-102.638 6977.93,-106.126 6987.93,-109.638 6987.94,-102.638"/>
<text text-anchor="middle" x="11822.3" y="-144.8" font-family="Times,serif" font-size="14.00">1314638 3.1332301541023638E&#45;6</text>
</g>
<!-- 1323 -->
<g id="node32" class="node"><title>1323</title>
<ellipse fill="none" stroke="black" cx="12340.3" cy="-192" rx="170.07" ry="18"/>
<text text-anchor="middle" x="12340.3" y="-188.3" font-family="Times,serif" font-size="14.00">/usr/lib/x86_64&#45;linux&#45;gnu/libgomp.so.1 [0.5]</text>
</g>
<!-- 1323&#45;&gt;1392 -->
<g id="edge25" class="edge"><title>1323&#45;&gt;1392</title>
<path fill="none" stroke="black" d="M12247.4,-176.887C12162.7,-164.74 12033.9,-148.086 11921.3,-141 11415.9,-109.194 7713.14,-106.29 6988.24,-106.026"/>
<polygon fill="black" stroke="black" points="6988.04,-102.526 6978.04,-106.022 6988.04,-109.526 6988.04,-102.526"/>
<text text-anchor="middle" x="12171.3" y="-144.8" font-family="Times,serif" font-size="14.00">1314672 3.13269211890224E&#45;6</text>
</g>
<!-- 1137 -->
<g id="node33" class="node"><title>1137</title>
<ellipse fill="none" stroke="black" cx="7148.33" cy="-192" rx="249.656" ry="18"/>
<text text-anchor="middle" x="7148.33" y="-188.3" font-family="Times,serif" font-size="14.00">/usr/local/thttpd/www/cgi&#45;bin/john/rules/passphrase&#45;rule1.rule [0.0]</text>
</g>
<!-- 1137&#45;&gt;1392 -->
<g id="edge29" class="edge"><title>1137&#45;&gt;1392</title>
<path fill="none" stroke="black" d="M7093.09,-174.409C7047.04,-160.578 6981.28,-140.827 6932.25,-126.1"/>
<polygon fill="black" stroke="black" points="6932.95,-122.656 6922.36,-123.131 6930.93,-129.36 6932.95,-122.656"/>
<text text-anchor="middle" x="7112.83" y="-144.8" font-family="Times,serif" font-size="14.00">1320874 0.04545224056985802</text>
</g>
<!-- 586 -->
<g id="node34" class="node"><title>586</title>
<ellipse fill="none" stroke="black" cx="10240.3" cy="-366" rx="143.775" ry="18"/>
<text text-anchor="middle" x="10240.3" y="-362.3" font-family="Times,serif" font-size="14.00">/lib/x86_64&#45;linux&#45;gnu/libdl.so.2 [0.5]</text>
</g>
<!-- 586&#45;&gt;1392 -->
<g id="edge32" class="edge"><title>586&#45;&gt;1392</title>
<path fill="none" stroke="black" d="M10381.3,-362.248C10925.2,-350.953 12862.3,-304.225 12951.3,-210 12962.3,-198.368 12962,-185.885 12951.3,-174 12856.5,-68.7804 12775.8,-148.772 12634.3,-141 12053.2,-109.065 7771.25,-106.268 6988.12,-106.023"/>
<polygon fill="black" stroke="black" points="6987.96,-102.523 6977.96,-106.02 6987.96,-109.523 6987.96,-102.523"/>
<text text-anchor="middle" x="12995.8" y="-231.8" font-family="Times,serif" font-size="14.00">1314606 3.133781105594836E&#45;6</text>
</g>
<!-- 586&#45;&gt;1093 -->
<g id="edge63" class="edge"><title>586&#45;&gt;1093</title>
<path fill="none" stroke="black" d="M10099.9,-362.196C9442.38,-349.067 6675.39,-293.818 6091.71,-282.164"/>
<polygon fill="black" stroke="black" points="6091.69,-278.663 6081.62,-281.963 6091.55,-285.662 6091.69,-278.663"/>
<text text-anchor="middle" x="8455.33" y="-318.8" font-family="Times,serif" font-size="14.00">660735 5.262056666544584E&#45;4</text>
</g>
<!-- 1093&#45;&gt;1139 -->
<g id="edge34" class="edge"><title>1093&#45;&gt;1139</title>
<path fill="none" stroke="black" d="M6081.35,-274.179C6312.4,-264.984 6909.21,-240.138 7407.33,-210 7428.74,-208.704 7451.25,-207.215 7473.49,-205.667"/>
<polygon fill="black" stroke="black" points="7473.95,-209.143 7483.68,-204.952 7473.46,-202.161 7473.95,-209.143"/>
<text text-anchor="middle" x="7087.33" y="-231.8" font-family="Times,serif" font-size="14.00">770266 1.0</text>
</g>
<!-- 1093&#45;&gt;1270 -->
<g id="edge35" class="edge"><title>1093&#45;&gt;1270</title>
<path fill="none" stroke="black" d="M6081.49,-276.229C6361.41,-270.797 7187.55,-252.125 7872.33,-210 7892.32,-208.77 7913.34,-207.312 7934.1,-205.774"/>
<polygon fill="black" stroke="black" points="7934.55,-209.251 7944.26,-205.014 7934.03,-202.27 7934.55,-209.251"/>
<text text-anchor="middle" x="7542.33" y="-231.8" font-family="Times,serif" font-size="14.00">919655 1.0</text>
</g>
<!-- 1093&#45;&gt;1140 -->
<g id="edge36" class="edge"><title>1093&#45;&gt;1140</title>
<path fill="none" stroke="black" d="M6081.52,-277.184C6434.61,-273.9 7672.95,-259.35 8693.33,-210 8717.78,-208.817 8743.55,-207.346 8768.91,-205.767"/>
<polygon fill="black" stroke="black" points="8769.23,-209.255 8778.99,-205.134 8768.79,-202.269 8769.23,-209.255"/>
<text text-anchor="middle" x="8281.33" y="-231.8" font-family="Times,serif" font-size="14.00">770486 1.0</text>
</g>
<!-- 1093&#45;&gt;1133 -->
<g id="edge37" class="edge"><title>1093&#45;&gt;1133</title>
<path fill="none" stroke="black" d="M6081.42,-277.313C6402.31,-274.898 7450,-265.684 8316.33,-243 8708.91,-232.721 8807.21,-231.811 9199.33,-210 9221.27,-208.78 9244.37,-207.301 9267.13,-205.732"/>
<polygon fill="black" stroke="black" points="9267.47,-209.216 9277.2,-205.029 9266.98,-202.233 9267.47,-209.216"/>
<text text-anchor="middle" x="8863.33" y="-231.8" font-family="Times,serif" font-size="14.00">764209 1.0</text>
</g>
<!-- 1093&#45;&gt;1263 -->
<g id="edge38" class="edge"><title>1093&#45;&gt;1263</title>
<path fill="none" stroke="black" d="M6081.49,-277.939C6450.92,-277.47 7792.89,-273.628 8898.33,-243 9236.29,-233.636 9320.93,-231.799 9658.33,-210 9676.87,-208.802 9696.38,-207.355 9715.62,-205.818"/>
<polygon fill="black" stroke="black" points="9715.96,-209.302 9725.65,-205.007 9715.4,-202.324 9715.96,-209.302"/>
<text text-anchor="middle" x="9374.33" y="-231.8" font-family="Times,serif" font-size="14.00">910548 1.0</text>
</g>
<!-- 1093&#45;&gt;1134 -->
<g id="edge39" class="edge"><title>1093&#45;&gt;1134</title>
<path fill="none" stroke="black" d="M6081.46,-278.035C6489.51,-277.962 8092.2,-275.501 9409.33,-243 9784.17,-233.751 9878.03,-232.115 10252.3,-210 10272.7,-208.799 10294.1,-207.341 10315.1,-205.789"/>
<polygon fill="black" stroke="black" points="10315.4,-209.278 10325.1,-205.046 10314.9,-202.298 10315.4,-209.278"/>
<text text-anchor="middle" x="9933.33" y="-231.8" font-family="Times,serif" font-size="14.00">764577 1.0</text>
</g>
<!-- 1093&#45;&gt;1115 -->
<g id="edge40" class="edge"><title>1093&#45;&gt;1115</title>
<path fill="none" stroke="black" d="M6081.41,-277.637C6615.34,-275.587 9176.87,-264.758 9968.33,-243 10285.9,-234.27 10365.3,-229.856 10682.3,-210 10702.3,-208.748 10723.3,-207.277 10744.1,-205.733"/>
<polygon fill="black" stroke="black" points="10744.5,-209.209 10754.3,-204.97 10744,-202.229 10744.5,-209.209"/>
<text text-anchor="middle" x="10405.3" y="-231.8" font-family="Times,serif" font-size="14.00">691960 1.0</text>
</g>
<!-- 1093&#45;&gt;1172 -->
<g id="edge41" class="edge"><title>1093&#45;&gt;1172</title>
<path fill="none" stroke="black" d="M6081.58,-277.781C6652.57,-276.422 9549.36,-268.364 10440.3,-243 10739.2,-234.491 10813.9,-229.343 11112.3,-210 11131.8,-208.739 11152.2,-207.271 11172.4,-205.736"/>
<polygon fill="black" stroke="black" points="11172.9,-209.207 11182.6,-204.952 11172.4,-202.228 11172.9,-209.207"/>
<text text-anchor="middle" x="10853.3" y="-231.8" font-family="Times,serif" font-size="14.00">805222 1.0</text>
</g>
<!-- 1093&#45;&gt;1191 -->
<g id="edge42" class="edge"><title>1093&#45;&gt;1191</title>
<path fill="none" stroke="black" d="M6081.39,-277.778C6587.24,-276.531 8952.75,-269.486 10888.3,-243 11613.3,-233.08 11795.2,-245.792 12519.3,-210 12540.6,-208.949 12563,-207.532 12585,-205.963"/>
<polygon fill="black" stroke="black" points="12585.4,-209.446 12595.1,-205.232 12584.9,-202.464 12585.4,-209.446"/>
<text text-anchor="middle" x="12108.3" y="-231.8" font-family="Times,serif" font-size="14.00">811359 1.0</text>
</g>
<!-- 1093&#45;&gt;1131 -->
<g id="edge43" class="edge"><title>1093&#45;&gt;1131</title>
<path fill="none" stroke="black" d="M5884.92,-277.732C5306.55,-276.086 2343.94,-266.608 1433.33,-243 1101.11,-234.387 1018.15,-228.217 686.327,-210 662.097,-208.67 636.6,-207.147 611.441,-205.571"/>
<polygon fill="black" stroke="black" points="611.644,-202.077 601.444,-204.941 611.204,-209.063 611.644,-202.077"/>
<text text-anchor="middle" x="1464.33" y="-231.8" font-family="Times,serif" font-size="14.00">763887 1.0</text>
</g>
<!-- 1093&#45;&gt;1277 -->
<g id="edge44" class="edge"><title>1093&#45;&gt;1277</title>
<path fill="none" stroke="black" d="M5885.29,-277.961C5446.84,-277.606 3621.85,-274.227 2124.33,-243 1674.85,-233.627 1562.2,-235.141 1113.33,-210 1092.77,-208.848 1071.11,-207.402 1049.8,-205.842"/>
<polygon fill="black" stroke="black" points="1049.93,-202.342 1039.7,-205.093 1049.41,-209.323 1049.93,-202.342"/>
<text text-anchor="middle" x="2155.33" y="-231.8" font-family="Times,serif" font-size="14.00">925741 1.0</text>
</g>
<!-- 1093&#45;&gt;1176 -->
<g id="edge45" class="edge"><title>1093&#45;&gt;1176</title>
<path fill="none" stroke="black" d="M5885.31,-277.699C5488.85,-276.322 3965.36,-269.505 2712.33,-243 2480.26,-238.091 1900.19,-220.752 1668.33,-210 1641.55,-208.758 1613.33,-207.257 1585.55,-205.667"/>
<polygon fill="black" stroke="black" points="1585.52,-202.16 1575.34,-205.077 1585.12,-209.148 1585.52,-202.16"/>
<text text-anchor="middle" x="2743.33" y="-231.8" font-family="Times,serif" font-size="14.00">805990 1.0</text>
</g>
<!-- 1093&#45;&gt;1268 -->
<g id="edge46" class="edge"><title>1093&#45;&gt;1268</title>
<path fill="none" stroke="black" d="M5885.14,-277.864C5520.74,-277.132 4211.34,-272.477 3132.33,-243 2974.91,-238.7 2935.7,-233.575 2778.33,-228 2497.5,-218.052 2426.98,-223.972 2146.33,-210 2123.24,-208.851 2098.92,-207.4 2074.98,-205.832"/>
<polygon fill="black" stroke="black" points="2074.96,-202.323 2064.75,-205.153 2074.5,-209.307 2074.96,-202.323"/>
<text text-anchor="middle" x="3163.33" y="-231.8" font-family="Times,serif" font-size="14.00">915057 1.0</text>
</g>
<!-- 1093&#45;&gt;1135 -->
<g id="edge47" class="edge"><title>1093&#45;&gt;1135</title>
<path fill="none" stroke="black" d="M5885.11,-277.175C5566.72,-274.359 4534.29,-264.104 3680.33,-243 3466.04,-237.704 2930.44,-220.049 2716.33,-210 2689.21,-208.727 2660.65,-207.221 2632.5,-205.639"/>
<polygon fill="black" stroke="black" points="2632.34,-202.124 2622.15,-205.053 2631.94,-209.113 2632.34,-202.124"/>
<text text-anchor="middle" x="3711.33" y="-231.8" font-family="Times,serif" font-size="14.00">769580 1.0</text>
</g>
<!-- 1093&#45;&gt;1130 -->
<g id="edge48" class="edge"><title>1093&#45;&gt;1130</title>
<path fill="none" stroke="black" d="M5885.08,-277.167C5605.37,-274.581 4780.77,-265.476 4096.33,-243 3785.04,-232.778 3707.42,-225.11 3396.33,-210 3365.16,-208.486 3332.4,-206.874 3300.01,-205.268"/>
<polygon fill="black" stroke="black" points="3300.14,-201.77 3289.97,-204.77 3299.79,-208.762 3300.14,-201.77"/>
<text text-anchor="middle" x="4127.33" y="-231.8" font-family="Times,serif" font-size="14.00">763699 1.0</text>
</g>
<!-- 1093&#45;&gt;1222 -->
<g id="edge49" class="edge"><title>1093&#45;&gt;1222</title>
<path fill="none" stroke="black" d="M5885.06,-276.826C5577.82,-272.747 4608.03,-256.794 3806.33,-210 3786.88,-208.865 3766.42,-207.442 3746.26,-205.906"/>
<polygon fill="black" stroke="black" points="3746.31,-202.399 3736.07,-205.118 3745.77,-209.378 3746.31,-202.399"/>
<text text-anchor="middle" x="4495.33" y="-231.8" font-family="Times,serif" font-size="14.00">837682 1.0</text>
</g>
<!-- 1093&#45;&gt;1132 -->
<g id="edge50" class="edge"><title>1093&#45;&gt;1132</title>
<path fill="none" stroke="black" d="M5885.05,-274.444C5727.03,-268.615 5406.67,-256.331 5135.33,-243 4877.89,-230.352 4813.5,-227.174 4556.33,-210 4536.27,-208.661 4515.21,-207.165 4494.37,-205.63"/>
<polygon fill="black" stroke="black" points="4494.4,-202.122 4484.17,-204.874 4493.88,-209.103 4494.4,-202.122"/>
<text text-anchor="middle" x="5166.33" y="-231.8" font-family="Times,serif" font-size="14.00">764041 1.0</text>
</g>
<!-- 1093&#45;&gt;1307 -->
<g id="edge51" class="edge"><title>1093&#45;&gt;1307</title>
<path fill="none" stroke="black" d="M5885.15,-272.298C5700.72,-261.427 5289.94,-236.449 4944.33,-210 4926.9,-208.667 4908.61,-207.179 4890.51,-205.653"/>
<polygon fill="black" stroke="black" points="4890.74,-202.16 4880.48,-204.803 4890.14,-209.135 4890.74,-202.16"/>
<text text-anchor="middle" x="5431.33" y="-231.8" font-family="Times,serif" font-size="14.00">969451 1.0</text>
</g>
<!-- 1093&#45;&gt;1136 -->
<g id="edge52" class="edge"><title>1093&#45;&gt;1136</title>
<path fill="none" stroke="black" d="M5885.02,-267.747C5740.91,-252.718 5471.67,-224.637 5307.35,-207.5"/>
<polygon fill="black" stroke="black" points="5307.48,-203.994 5297.17,-206.438 5306.76,-210.956 5307.48,-203.994"/>
<text text-anchor="middle" x="5656.33" y="-231.8" font-family="Times,serif" font-size="14.00">769748 1.0</text>
</g>
<!-- 1093&#45;&gt;1220 -->
<g id="edge53" class="edge"><title>1093&#45;&gt;1220</title>
<path fill="none" stroke="black" d="M5919.96,-260.901C5867.78,-246.822 5793.84,-226.867 5739.6,-212.233"/>
<polygon fill="black" stroke="black" points="5740.28,-208.791 5729.72,-209.565 5738.46,-215.55 5740.28,-208.791"/>
<text text-anchor="middle" x="5876.33" y="-231.8" font-family="Times,serif" font-size="14.00">837365 1.0</text>
</g>
<!-- 1093&#45;&gt;1260 -->
<g id="edge54" class="edge"><title>1093&#45;&gt;1260</title>
<path fill="none" stroke="black" d="M6025.22,-260.799C6058.37,-247.186 6104.78,-228.129 6139.95,-213.684"/>
<polygon fill="black" stroke="black" points="6141.64,-216.777 6149.56,-209.741 6138.98,-210.302 6141.64,-216.777"/>
<text text-anchor="middle" x="6130.33" y="-231.8" font-family="Times,serif" font-size="14.00">910081 1.0</text>
</g>
<!-- 1093&#45;&gt;1138 -->
<g id="edge55" class="edge"><title>1093&#45;&gt;1138</title>
<path fill="none" stroke="black" d="M6081.48,-265.731C6202.1,-250.653 6406.92,-225.05 6538.59,-208.592"/>
<polygon fill="black" stroke="black" points="6539.24,-212.038 6548.73,-207.325 6538.37,-205.092 6539.24,-212.038"/>
<text text-anchor="middle" x="6395.33" y="-231.8" font-family="Times,serif" font-size="14.00">770112 1.0</text>
</g>
<!-- 1093&#45;&gt;1137 -->
<g id="edge56" class="edge"><title>1093&#45;&gt;1137</title>
<path fill="none" stroke="black" d="M6081.4,-270.844C6277.52,-256.535 6720.56,-224.211 6969.64,-206.037"/>
<polygon fill="black" stroke="black" points="6970.17,-209.508 6979.89,-205.29 6969.66,-202.527 6970.17,-209.508"/>
<text text-anchor="middle" x="6667.33" y="-231.8" font-family="Times,serif" font-size="14.00">769957 1.0</text>
</g>
<!-- 592 -->
<g id="node36" class="node"><title>592</title>
<ellipse fill="none" stroke="black" cx="7139.33" cy="-366" rx="162.471" ry="18"/>
<text text-anchor="middle" x="7139.33" y="-362.3" font-family="Times,serif" font-size="14.00">/lib/x86_64&#45;linux&#45;gnu/libnss_nis.so.2 [0.5]</text>
</g>
<!-- 592&#45;&gt;1093 -->
<g id="edge57" class="edge"><title>592&#45;&gt;1093</title>
<path fill="none" stroke="black" d="M7059.34,-350.264C6993.32,-338.706 6897.07,-323.243 6812.33,-315 6554.71,-289.942 6250.33,-282.817 6091.75,-280.796"/>
<polygon fill="black" stroke="black" points="6091.56,-277.294 6081.51,-280.67 6091.47,-284.293 6091.56,-277.294"/>
<text text-anchor="middle" x="7018.83" y="-318.8" font-family="Times,serif" font-size="14.00">665170 0.030527912175464657</text>
</g>
<!-- 590 -->
<g id="node37" class="node"><title>590</title>
<ellipse fill="none" stroke="black" cx="7414.33" cy="-366" rx="94.4839" ry="18"/>
<text text-anchor="middle" x="7414.33" y="-362.3" font-family="Times,serif" font-size="14.00">/etc/nsswitch.conf [0.5]</text>
</g>
<!-- 590&#45;&gt;1093 -->
<g id="edge58" class="edge"><title>590&#45;&gt;1093</title>
<path fill="none" stroke="black" d="M7352.55,-352.338C7291.54,-340.419 7195.43,-323.208 7111.33,-315 6915.84,-295.923 6334.67,-285.259 6091.84,-281.532"/>
<polygon fill="black" stroke="black" points="6091.64,-278.029 6081.59,-281.376 6091.54,-285.028 6091.64,-278.029"/>
<text text-anchor="middle" x="7305.33" y="-318.8" font-family="Times,serif" font-size="14.00">664590 0.36257383929969367</text>
</g>
<!-- 591 -->
<g id="node38" class="node"><title>591</title>
<ellipse fill="none" stroke="black" cx="4627.33" cy="-366" rx="178.969" ry="18"/>
<text text-anchor="middle" x="4627.33" y="-362.3" font-family="Times,serif" font-size="14.00">/lib/x86_64&#45;linux&#45;gnu/libnss_compat.so.2 [0.5]</text>
</g>
<!-- 591&#45;&gt;1093 -->
<g id="edge59" class="edge"><title>591&#45;&gt;1093</title>
<path fill="none" stroke="black" d="M4709.46,-349.979C4776.66,-338.338 4874.31,-322.903 4960.33,-315 5292.65,-284.467 5687.92,-279.896 5874.94,-279.627"/>
<polygon fill="black" stroke="black" points="5875.06,-283.127 5885.05,-279.617 5875.05,-276.127 5875.06,-283.127"/>
<text text-anchor="middle" x="5048.83" y="-318.8" font-family="Times,serif" font-size="14.00">664894 0.030317785127174837</text>
</g>
<!-- 1097 -->
<g id="node39" class="node"><title>1097</title>
<ellipse fill="none" stroke="black" cx="4972.33" cy="-366" rx="148.374" ry="18"/>
<text text-anchor="middle" x="4972.33" y="-362.3" font-family="Times,serif" font-size="14.00">/lib/x86_64&#45;linux&#45;gnu/libattr.so.1 [0.5]</text>
</g>
<!-- 1097&#45;&gt;1093 -->
<g id="edge60" class="edge"><title>1097&#45;&gt;1093</title>
<path fill="none" stroke="black" d="M5038.13,-349.816C5091.09,-338.244 5167.59,-322.983 5235.33,-315 5461.8,-288.308 5729.11,-281.763 5874.96,-280.286"/>
<polygon fill="black" stroke="black" points="5875.28,-283.784 5885.25,-280.189 5875.21,-276.784 5875.28,-283.784"/>
<text text-anchor="middle" x="5326.83" y="-318.8" font-family="Times,serif" font-size="14.00">660577 2.8260581967151047E&#45;4</text>
</g>
<!-- 1096 -->
<g id="node40" class="node"><title>1096</title>
<ellipse fill="none" stroke="black" cx="5300.33" cy="-366" rx="161.671" ry="18"/>
<text text-anchor="middle" x="5300.33" y="-362.3" font-family="Times,serif" font-size="14.00">/lib/x86_64&#45;linux&#45;gnu/libselinux.so.1 [0.5]</text>
</g>
<!-- 1096&#45;&gt;1093 -->
<g id="edge61" class="edge"><title>1096&#45;&gt;1093</title>
<path fill="none" stroke="black" d="M5351.38,-348.792C5389.31,-337.431 5442.54,-322.913 5490.33,-315 5621.48,-293.283 5774.45,-285.033 5874.8,-281.903"/>
<polygon fill="black" stroke="black" points="5875.06,-285.397 5884.95,-281.599 5874.85,-278.401 5875.06,-285.397"/>
<text text-anchor="middle" x="5581.83" y="-318.8" font-family="Times,serif" font-size="14.00">660509 2.0107481520094988E&#45;4</text>
</g>
<!-- 1098 -->
<g id="node41" class="node"><title>1098</title>
<ellipse fill="none" stroke="black" cx="5571.33" cy="-366" rx="90.9839" ry="18"/>
<text text-anchor="middle" x="5571.33" y="-362.3" font-family="Times,serif" font-size="14.00">/proc/filesystems [0.5]</text>
</g>
<!-- 1098&#45;&gt;1093 -->
<g id="edge62" class="edge"><title>1098&#45;&gt;1093</title>
<path fill="none" stroke="black" d="M5612.38,-349.894C5643.97,-338.792 5688.91,-324.11 5729.33,-315 5776.66,-304.33 5829.74,-296.401 5875.08,-290.813"/>
<polygon fill="black" stroke="black" points="5875.73,-294.261 5885.23,-289.585 5874.89,-287.311 5875.73,-294.261"/>
<text text-anchor="middle" x="5810.83" y="-318.8" font-family="Times,serif" font-size="14.00">660847 0.5128508615138115</text>
</g>
<!-- 1094 -->
<g id="node42" class="node"><title>1094</title>
<ellipse fill="none" stroke="black" cx="5827.33" cy="-366" rx="146.774" ry="18"/>
<text text-anchor="middle" x="5827.33" y="-362.3" font-family="Times,serif" font-size="14.00">/lib/x86_64&#45;linux&#45;gnu/libacl.so.1 [0.5]</text>
</g>
<!-- 1094&#45;&gt;1093 -->
<g id="edge65" class="edge"><title>1094&#45;&gt;1093</title>
<path fill="none" stroke="black" d="M5858.15,-348.207C5882.45,-334.963 5916.55,-316.385 5943.02,-301.962"/>
<polygon fill="black" stroke="black" points="5944.93,-304.907 5952.04,-297.049 5941.58,-298.761 5944.93,-304.907"/>
<text text-anchor="middle" x="6006.83" y="-318.8" font-family="Times,serif" font-size="14.00">660355 1.9908397544648505E&#45;6</text>
</g>
<!-- 593 -->
<g id="node43" class="node"><title>593</title>
<ellipse fill="none" stroke="black" cx="6139.33" cy="-366" rx="146.774" ry="18"/>
<text text-anchor="middle" x="6139.33" y="-362.3" font-family="Times,serif" font-size="14.00">/lib/x86_64&#45;linux&#45;gnu/libnsl.so.1 [0.5]</text>
</g>
<!-- 593&#45;&gt;1093 -->
<g id="edge66" class="edge"><title>593&#45;&gt;1093</title>
<path fill="none" stroke="black" d="M6130.49,-347.886C6124.06,-336.998 6114.37,-323.412 6102.33,-315 6094.32,-309.403 6085.41,-304.691 6076.17,-300.725"/>
<polygon fill="black" stroke="black" points="6077.43,-297.459 6066.84,-297.003 6074.83,-303.961 6077.43,-297.459"/>
<text text-anchor="middle" x="6202.33" y="-318.8" font-family="Times,serif" font-size="14.00">665312 0.03064449591392623</text>
</g>
<!-- 594 -->
<g id="node44" class="node"><title>594</title>
<ellipse fill="none" stroke="black" cx="6471.33" cy="-366" rx="167.07" ry="18"/>
<text text-anchor="middle" x="6471.33" y="-362.3" font-family="Times,serif" font-size="14.00">/lib/x86_64&#45;linux&#45;gnu/libnss_files.so.2 [0.5]</text>
</g>
<!-- 594&#45;&gt;1093 -->
<g id="edge68" class="edge"><title>594&#45;&gt;1093</title>
<path fill="none" stroke="black" d="M6421.02,-348.725C6385.2,-337.707 6335.74,-323.636 6291.33,-315 6225.53,-302.207 6150.86,-293.577 6091.52,-288.089"/>
<polygon fill="black" stroke="black" points="6091.65,-284.586 6081.38,-287.167 6091.02,-291.558 6091.65,-284.586"/>
<text text-anchor="middle" x="6440.83" y="-318.8" font-family="Times,serif" font-size="14.00">665459 0.030783717465202344</text>
</g>
<!-- 577 -->
<g id="node45" class="node"><title>577</title>
<ellipse fill="none" stroke="black" cx="6807.33" cy="-366" rx="151.373" ry="18"/>
<text text-anchor="middle" x="6807.33" y="-362.3" font-family="Times,serif" font-size="14.00">/lib/x86_64&#45;linux&#45;gnu/libpcre.so.3 [0.5]</text>
</g>
<!-- 577&#45;&gt;1093 -->
<g id="edge69" class="edge"><title>577&#45;&gt;1093</title>
<path fill="none" stroke="black" d="M6737.85,-349.998C6682.67,-338.648 6603.4,-323.593 6533.33,-315 6380.68,-296.281 6202.9,-287.27 6091.72,-283.157"/>
<polygon fill="black" stroke="black" points="6091.63,-279.651 6081.51,-282.785 6091.37,-286.646 6091.63,-279.651"/>
<text text-anchor="middle" x="6720.33" y="-318.8" font-family="Times,serif" font-size="14.00">660703 4.849897871460938E&#45;4</text>
</g>
</g>
</svg>
