<?xml version="1.0" encoding="UTF-8" standalone="no"?>
<!DOCTYPE svg PUBLIC "-//W3C//DTD SVG 1.1//EN"
 "http://www.w3.org/Graphics/SVG/1.1/DTD/svg11.dtd">
<!-- Generated by graphviz version 2.40.1 (20161225.0304)
 -->
<!-- Title: G Pages: 1 -->
<svg width="17715pt" height="218pt"
 viewBox="0.00 0.00 17715.35 218.00" xmlns="http://www.w3.org/2000/svg" xmlns:xlink="http://www.w3.org/1999/xlink">
<g id="graph0" class="graph" transform="scale(1 1) rotate(0) translate(4 214)">
<title>G</title>
<polygon fill="#ffffff" stroke="transparent" points="-4,4 -4,-214 17711.3453,-214 17711.3453,4 -4,4"/>
<!-- 112 -->
<g id="node1" class="node">
<title>112</title>
<ellipse fill="none" stroke="#000000" cx="8081.887" cy="-18" rx="139.9756" ry="18"/>
<text text-anchor="middle" x="8081.887" y="-14.3" font-family="Times,serif" font-size="14.00" fill="#000000">/tmp/bdoor [0.11678776347061695]</text>
</g>
<!-- 71 -->
<g id="node2" class="node">
<title>71</title>
<polygon fill="none" stroke="#000000" points="8525.387,-123 8316.387,-123 8316.387,-87 8525.387,-87 8525.387,-123"/>
<text text-anchor="middle" x="8420.887" y="-101.3" font-family="Times,serif" font-size="14.00" fill="#000000">32385curl [0.11678776347061695]</text>
</g>
<!-- 71&#45;&gt;112 -->
<g id="edge1" class="edge">
<title>71&#45;&gt;112</title>
<path fill="none" stroke="#000000" d="M8350.6459,-86.9735C8293.2636,-72.2471 8212.4476,-51.5067 8154.4459,-36.6213"/>
<polygon fill="#000000" stroke="#000000" points="8155.1737,-33.1947 8144.6175,-34.099 8153.4336,-39.975 8155.1737,-33.1947"/>
<text text-anchor="middle" x="8298.387" y="-57.8" font-family="Times,serif" font-size="14.00" fill="#000000">15982 1.0</text>
</g>
<!-- 111 -->
<g id="node54" class="node">
<title>111</title>
<polygon fill="none" stroke="#000000" points="8758.286,-36 8345.6402,-36 8239.4879,0 8652.1338,0 8758.286,-36"/>
<text text-anchor="middle" x="8498.887" y="-14.3" font-family="Times,serif" font-size="14.00" fill="#000000">172.31.71.251:49862&#45;&gt;146.71.76.110:80 [0.0]</text>
</g>
<!-- 71&#45;&gt;111 -->
<g id="edge55" class="edge">
<title>71&#45;&gt;111</title>
<path fill="none" stroke="#000000" d="M8414.7472,-86.6395C8412.4506,-76.2693 8411.7006,-63.5193 8417.887,-54 8420.7996,-49.5181 8424.4131,-45.5896 8428.4835,-42.147"/>
<polygon fill="#000000" stroke="#000000" points="8430.7704,-44.8121 8436.8104,-36.1076 8426.6605,-39.1456 8430.7704,-44.8121"/>
<text text-anchor="middle" x="8445.387" y="-57.8" font-family="Times,serif" font-size="14.00" fill="#000000">15905 1.0</text>
</g>
<!-- 20 -->
<g id="node3" class="node">
<title>20</title>
<ellipse fill="none" stroke="#000000" cx="146.887" cy="-192" rx="146.774" ry="18"/>
<text text-anchor="middle" x="146.887" y="-188.3" font-family="Times,serif" font-size="14.00" fill="#000000">/lib/x86_64&#45;linux&#45;gnu/libnsl.so.1 [0.5]</text>
</g>
<!-- 20&#45;&gt;71 -->
<g id="edge2" class="edge">
<title>20&#45;&gt;71</title>
<path fill="none" stroke="#000000" d="M222.0645,-176.5329C286.0439,-164.1824 380.5544,-147.8503 463.887,-141 668.3084,-124.1956 7345.444,-107.5783 8306.1895,-105.2718"/>
<polygon fill="#000000" stroke="#000000" points="8306.2204,-108.7719 8316.2119,-105.2478 8306.2035,-101.7719 8306.2204,-108.7719"/>
<text text-anchor="middle" x="545.387" y="-144.8" font-family="Times,serif" font-size="14.00" fill="#000000">9546 0.009800443704136607</text>
</g>
<!-- 22 -->
<g id="node4" class="node">
<title>22</title>
<ellipse fill="none" stroke="#000000" cx="455.887" cy="-192" rx="143.7746" ry="18"/>
<text text-anchor="middle" x="455.887" y="-188.3" font-family="Times,serif" font-size="14.00" fill="#000000">/lib/x86_64&#45;linux&#45;gnu/libdl.so.2 [0.5]</text>
</g>
<!-- 22&#45;&gt;71 -->
<g id="edge3" class="edge">
<title>22&#45;&gt;71</title>
<path fill="none" stroke="#000000" d="M525.1224,-176.1572C582.5568,-163.8504 666.5513,-147.7743 740.887,-141 937.7582,-123.0589 7364.401,-107.4556 8306.1591,-105.2631"/>
<polygon fill="#000000" stroke="#000000" points="8306.3289,-108.7628 8316.3207,-105.2395 8306.3126,-101.7628 8306.3289,-108.7628"/>
<text text-anchor="middle" x="822.387" y="-144.8" font-family="Times,serif" font-size="14.00" fill="#000000">8912 8.465471957043231E&#45;4</text>
</g>
<!-- 36 -->
<g id="node5" class="node">
<title>36</title>
<ellipse fill="none" stroke="#000000" cx="726.887" cy="-192" rx="109.381" ry="18"/>
<text text-anchor="middle" x="726.887" y="-188.3" font-family="Times,serif" font-size="14.00" fill="#000000">/usr/lib/ssl/openssl.cnf [0.5]</text>
</g>
<!-- 36&#45;&gt;71 -->
<g id="edge11" class="edge">
<title>36&#45;&gt;71</title>
<path fill="none" stroke="#000000" d="M791.8671,-177.5137C851.1696,-165.0628 941.4198,-148.0362 1020.887,-141 1210.3274,-124.2264 7383.5443,-107.675 8306.0404,-105.2926"/>
<polygon fill="#000000" stroke="#000000" points="8306.3341,-108.792 8316.325,-105.2661 8306.3159,-101.792 8306.3341,-108.792"/>
<text text-anchor="middle" x="1099.387" y="-144.8" font-family="Times,serif" font-size="14.00" fill="#000000">9452 0.03178411529972247</text>
</g>
<!-- 39 -->
<g id="node6" class="node">
<title>39</title>
<ellipse fill="none" stroke="#000000" cx="947.887" cy="-192" rx="94.4839" ry="18"/>
<text text-anchor="middle" x="947.887" y="-188.3" font-family="Times,serif" font-size="14.00" fill="#000000">/etc/nsswitch.conf [0.5]</text>
</g>
<!-- 39&#45;&gt;71 -->
<g id="edge4" class="edge">
<title>39&#45;&gt;71</title>
<path fill="none" stroke="#000000" d="M1015.9364,-179.4728C1027.5761,-177.5122 1039.564,-175.6063 1050.887,-174 1184.5696,-155.0351 1218.0848,-148.6875 1352.887,-141 1714.4554,-120.3804 7421.2129,-107.1731 8306.0134,-105.2449"/>
<polygon fill="#000000" stroke="#000000" points="8306.2074,-108.7446 8316.1997,-105.2227 8306.1921,-101.7446 8306.2074,-108.7446"/>
<text text-anchor="middle" x="1434.387" y="-144.8" font-family="Times,serif" font-size="14.00" fill="#000000">9484 0.008868765572022017</text>
</g>
<!-- 74 -->
<g id="node7" class="node">
<title>74</title>
<ellipse fill="none" stroke="#000000" cx="1224.887" cy="-192" rx="165.1707" ry="18"/>
<text text-anchor="middle" x="1224.887" y="-188.3" font-family="Times,serif" font-size="14.00" fill="#000000">/usr/lib/x86_64&#45;linux&#45;gnu/libidn2.so.0 [0.5]</text>
</g>
<!-- 74&#45;&gt;71 -->
<g id="edge5" class="edge">
<title>74&#45;&gt;71</title>
<path fill="none" stroke="#000000" d="M1328.3589,-177.9396C1425.2079,-165.503 1574.0445,-148.2418 1703.887,-141 2046.7575,-121.8769 7446.6796,-107.4635 8306.0205,-105.2856"/>
<polygon fill="#000000" stroke="#000000" points="8306.233,-108.7852 8316.2241,-105.2598 8306.2152,-101.7852 8306.233,-108.7852"/>
<text text-anchor="middle" x="1788.387" y="-144.8" font-family="Times,serif" font-size="14.00" fill="#000000">8692 2.5582303736602696E&#45;4</text>
</g>
<!-- 80 -->
<g id="node8" class="node">
<title>80</title>
<ellipse fill="none" stroke="#000000" cx="1585.887" cy="-192" rx="177.3685" ry="18"/>
<text text-anchor="middle" x="1585.887" y="-188.3" font-family="Times,serif" font-size="14.00" fill="#000000">/usr/lib/x86_64&#45;linux&#45;gnu/liblber&#45;2.4.so.2 [0.5]</text>
</g>
<!-- 80&#45;&gt;71 -->
<g id="edge6" class="edge">
<title>80&#45;&gt;71</title>
<path fill="none" stroke="#000000" d="M1691.7723,-177.4645C1787.4663,-165.0725 1932.3077,-148.1635 2058.887,-141 2382.8101,-122.6681 7472.6184,-107.6576 8305.9051,-105.3172"/>
<polygon fill="#000000" stroke="#000000" points="8306.1112,-108.8168 8316.1013,-105.2886 8306.0915,-101.8168 8306.1112,-108.8168"/>
<text text-anchor="middle" x="2140.387" y="-144.8" font-family="Times,serif" font-size="14.00" fill="#000000">8810 5.833493026476703E&#45;4</text>
</g>
<!-- 32 -->
<g id="node9" class="node">
<title>32</title>
<ellipse fill="none" stroke="#000000" cx="1938.887" cy="-192" rx="157.872" ry="18"/>
<text text-anchor="middle" x="1938.887" y="-188.3" font-family="Times,serif" font-size="14.00" fill="#000000">/lib/x86_64&#45;linux&#45;gnu/libresolv.so.2 [0.5]</text>
</g>
<!-- 32&#45;&gt;71 -->
<g id="edge7" class="edge">
<title>32&#45;&gt;71</title>
<path fill="none" stroke="#000000" d="M2039.084,-178.0137C2133.2841,-165.5825 2278.338,-148.2841 2404.887,-141 2710.4096,-123.4143 7500.0924,-107.8511 8306.1582,-105.35"/>
<polygon fill="#000000" stroke="#000000" points="8306.3245,-108.8496 8316.3135,-105.3185 8306.3027,-101.8497 8306.3245,-108.8496"/>
<text text-anchor="middle" x="2489.887" y="-144.8" font-family="Times,serif" font-size="14.00" fill="#000000">8994 0.0010673199531819914</text>
</g>
<!-- 75 -->
<g id="node10" class="node">
<title>75</title>
<ellipse fill="none" stroke="#000000" cx="2281.887" cy="-192" rx="167.0704" ry="18"/>
<text text-anchor="middle" x="2281.887" y="-188.3" font-family="Times,serif" font-size="14.00" fill="#000000">/usr/lib/x86_64&#45;linux&#45;gnu/librtmp.so.1 [0.5]</text>
</g>
<!-- 75&#45;&gt;71 -->
<g id="edge8" class="edge">
<title>75&#45;&gt;71</title>
<path fill="none" stroke="#000000" d="M2386.7002,-177.9114C2484.3731,-165.5013 2634.1833,-148.2986 2764.887,-141 3336.0808,-109.1043 7554.1686,-105.4466 8306.3094,-105.0471"/>
<polygon fill="#000000" stroke="#000000" points="8306.3341,-108.5472 8316.3322,-105.0419 8306.3304,-101.5472 8306.3341,-108.5472"/>
<text text-anchor="middle" x="2842.887" y="-144.8" font-family="Times,serif" font-size="14.00" fill="#000000">8708 2.91913197086671E&#45;4</text>
</g>
<!-- 14 -->
<g id="node11" class="node">
<title>14</title>
<ellipse fill="none" stroke="#000000" cx="2606.887" cy="-192" rx="140.2752" ry="18"/>
<text text-anchor="middle" x="2606.887" y="-188.3" font-family="Times,serif" font-size="14.00" fill="#000000">/lib/x86_64&#45;linux&#45;gnu/libz.so.1 [0.5]</text>
</g>
<!-- 14&#45;&gt;71 -->
<g id="edge9" class="edge">
<title>14&#45;&gt;71</title>
<path fill="none" stroke="#000000" d="M2706.2637,-179.205C2810.1959,-166.5266 2978.1693,-148.0167 3123.887,-141 3657.1952,-115.3198 7582.0176,-106.6059 8306.1849,-105.2092"/>
<polygon fill="#000000" stroke="#000000" points="8306.3635,-108.709 8316.3567,-105.1897 8306.3499,-101.709 8306.3635,-108.709"/>
<text text-anchor="middle" x="3194.887" y="-144.8" font-family="Times,serif" font-size="14.00" fill="#000000">8624 5.272860981132E&#45;5</text>
</g>
<!-- 86 -->
<g id="node12" class="node">
<title>86</title>
<ellipse fill="none" stroke="#000000" cx="2931.887" cy="-192" rx="167.0704" ry="18"/>
<text text-anchor="middle" x="2931.887" y="-188.3" font-family="Times,serif" font-size="14.00" fill="#000000">/usr/lib/x86_64&#45;linux&#45;gnu/libsasl2.so.2 [0.5]</text>
</g>
<!-- 86&#45;&gt;71 -->
<g id="edge10" class="edge">
<title>86&#45;&gt;71</title>
<path fill="none" stroke="#000000" d="M3043.9217,-178.6238C3154.7243,-166.0962 3329.2197,-148.2499 3480.887,-141 3976.4029,-117.3138 7611.2354,-107.0366 8306.2172,-105.2779"/>
<polygon fill="#000000" stroke="#000000" points="8306.2434,-108.778 8316.2345,-105.2527 8306.2256,-101.778 8306.2434,-108.778"/>
<text text-anchor="middle" x="3565.887" y="-144.8" font-family="Times,serif" font-size="14.00" fill="#000000">9014 0.0011276617925459937</text>
</g>
<!-- 16 -->
<g id="node13" class="node">
<title>16</title>
<ellipse fill="none" stroke="#000000" cx="3308.887" cy="-192" rx="192.2659" ry="18"/>
<text text-anchor="middle" x="3308.887" y="-188.3" font-family="Times,serif" font-size="14.00" fill="#000000">/usr/lib/x86_64&#45;linux&#45;gnu/libgssapi_krb5.so.2 [0.5]</text>
</g>
<!-- 16&#45;&gt;71 -->
<g id="edge12" class="edge">
<title>16&#45;&gt;71</title>
<path fill="none" stroke="#000000" d="M3427.2726,-177.8038C3536.137,-165.4574 3702.1226,-148.4172 3846.887,-141 4303.6529,-117.5969 7642.4737,-107.1611 8306.3059,-105.3064"/>
<polygon fill="#000000" stroke="#000000" points="8306.3648,-108.8064 8316.3549,-105.2784 8306.3452,-101.8064 8306.3648,-108.8064"/>
<text text-anchor="middle" x="3928.387" y="-144.8" font-family="Times,serif" font-size="14.00" fill="#000000">8776 4.974032568245334E&#45;4</text>
</g>
<!-- 40 -->
<g id="node14" class="node">
<title>40</title>
<ellipse fill="none" stroke="#000000" cx="3697.887" cy="-192" rx="178.9686" ry="18"/>
<text text-anchor="middle" x="3697.887" y="-188.3" font-family="Times,serif" font-size="14.00" fill="#000000">/lib/x86_64&#45;linux&#45;gnu/libnss_compat.so.2 [0.5]</text>
</g>
<!-- 40&#45;&gt;71 -->
<g id="edge13" class="edge">
<title>40&#45;&gt;71</title>
<path fill="none" stroke="#000000" d="M3807.0797,-177.6816C3906.6239,-165.3435 4057.847,-148.3886 4189.887,-141 4610.2547,-117.4773 7671.0359,-107.2137 8305.8195,-105.3263"/>
<polygon fill="#000000" stroke="#000000" points="8305.9006,-108.8262 8315.8902,-105.2965 8305.8798,-101.8262 8305.9006,-108.8262"/>
<text text-anchor="middle" x="4268.387" y="-144.8" font-family="Times,serif" font-size="14.00" fill="#000000">9502 0.00962858911788944</text>
</g>
<!-- 17 -->
<g id="node15" class="node">
<title>17</title>
<ellipse fill="none" stroke="#000000" cx="4059.887" cy="-192" rx="165.9709" ry="18"/>
<text text-anchor="middle" x="4059.887" y="-188.3" font-family="Times,serif" font-size="14.00" fill="#000000">/usr/lib/x86_64&#45;linux&#45;gnu/libkrb5.so.3 [0.5]</text>
</g>
<!-- 17&#45;&gt;71 -->
<g id="edge14" class="edge">
<title>17&#45;&gt;71</title>
<path fill="none" stroke="#000000" d="M4160.6076,-177.6209C4252.0371,-165.2876 4390.6946,-148.3755 4511.887,-141 4898.2697,-117.4855 7700.6853,-107.2906 8305.875,-105.3506"/>
<polygon fill="#000000" stroke="#000000" points="8305.9277,-108.8506 8315.9164,-105.3185 8305.9052,-101.8506 8305.9277,-108.8506"/>
<text text-anchor="middle" x="4593.387" y="-144.8" font-family="Times,serif" font-size="14.00" fill="#000000">8928 8.881400022033352E&#45;4</text>
</g>
<!-- 93 -->
<g id="node16" class="node">
<title>93</title>
<ellipse fill="none" stroke="#000000" cx="4420.887" cy="-192" rx="176.5689" ry="18"/>
<text text-anchor="middle" x="4420.887" y="-188.3" font-family="Times,serif" font-size="14.00" fill="#000000">/usr/lib/x86_64&#45;linux&#45;gnu/libhcrypto.so.4 [0.5]</text>
</g>
<!-- 93&#45;&gt;71 -->
<g id="edge15" class="edge">
<title>93&#45;&gt;71</title>
<path fill="none" stroke="#000000" d="M4516.0199,-176.764C4597.2848,-164.5102 4717.4295,-148.1926 4822.887,-141 5176.4473,-116.8858 7730.1954,-107.2358 8305.8327,-105.3546"/>
<polygon fill="#000000" stroke="#000000" points="8306.2244,-108.8534 8316.2129,-105.3208 8306.2015,-101.8535 8306.2244,-108.8534"/>
<text text-anchor="middle" x="4907.887" y="-144.8" font-family="Times,serif" font-size="14.00" fill="#000000">9148 0.0015030609229892747</text>
</g>
<!-- 89 -->
<g id="node17" class="node">
<title>89</title>
<ellipse fill="none" stroke="#000000" cx="4783.887" cy="-192" rx="168.1703" ry="18"/>
<text text-anchor="middle" x="4783.887" y="-188.3" font-family="Times,serif" font-size="14.00" fill="#000000">/usr/lib/x86_64&#45;linux&#45;gnu/libtasn1.so.6 [0.5]</text>
</g>
<!-- 89&#45;&gt;71 -->
<g id="edge16" class="edge">
<title>89&#45;&gt;71</title>
<path fill="none" stroke="#000000" d="M4865.3689,-176.1867C4932.3449,-163.9854 5029.8684,-148.0397 5115.887,-141 5438.4726,-114.5997 7759.5979,-106.7714 8305.9384,-105.2852"/>
<polygon fill="#000000" stroke="#000000" points="8306.2,-108.7846 8316.1905,-105.2575 8306.1811,-101.7847 8306.2,-108.7846"/>
<text text-anchor="middle" x="5200.887" y="-144.8" font-family="Times,serif" font-size="14.00" fill="#000000">9064 0.0012621229785608713</text>
</g>
<!-- 19 -->
<g id="node18" class="node">
<title>19</title>
<ellipse fill="none" stroke="#000000" cx="5110.887" cy="-192" rx="140.2752" ry="18"/>
<text text-anchor="middle" x="5110.887" y="-188.3" font-family="Times,serif" font-size="14.00" fill="#000000">/lib/x86_64&#45;linux&#45;gnu/libc.so.6 [0.5]</text>
</g>
<!-- 19&#45;&gt;71 -->
<g id="edge17" class="edge">
<title>19&#45;&gt;71</title>
<path fill="none" stroke="#000000" d="M5178.9428,-176.2326C5235.157,-164.0141 5317.227,-148.0217 5389.887,-141 5683.5648,-112.6198 7788.7446,-106.336 8306.2182,-105.2142"/>
<polygon fill="#000000" stroke="#000000" points="8306.3162,-108.7141 8316.3087,-105.1925 8306.3011,-101.7141 8306.3162,-108.7141"/>
<text text-anchor="middle" x="5474.387" y="-144.8" font-family="Times,serif" font-size="14.00" fill="#000000">8658 1.4728685114494242E&#45;4</text>
</g>
<!-- 102 -->
<g id="node19" class="node">
<title>102</title>
<ellipse fill="none" stroke="#000000" cx="5354.887" cy="-192" rx="85.2851" ry="18"/>
<text text-anchor="middle" x="5354.887" y="-188.3" font-family="Times,serif" font-size="14.00" fill="#000000">/etc/resolv.conf [0.5]</text>
</g>
<!-- 102&#45;&gt;71 -->
<g id="edge49" class="edge">
<title>102&#45;&gt;71</title>
<path fill="none" stroke="#000000" d="M5416.7346,-179.6148C5427.4368,-177.6269 5438.4697,-175.6753 5448.887,-174 5560.8454,-155.9953 5588.7795,-149.0977 5701.887,-141 5963.6424,-122.2602 7821.9118,-108.9153 8305.8823,-105.7311"/>
<polygon fill="#000000" stroke="#000000" points="8306.0478,-109.2301 8316.0245,-105.6645 8306.0017,-102.2303 8306.0478,-109.2301"/>
<text text-anchor="middle" x="5786.887" y="-144.8" font-family="Times,serif" font-size="14.00" fill="#000000">11627 0.012858211337217054</text>
</g>
<!-- 94 -->
<g id="node20" class="node">
<title>94</title>
<ellipse fill="none" stroke="#000000" cx="5631.887" cy="-192" rx="174.3693" ry="18"/>
<text text-anchor="middle" x="5631.887" y="-188.3" font-family="Times,serif" font-size="14.00" fill="#000000">/usr/lib/x86_64&#45;linux&#45;gnu/libroken.so.18 [0.5]</text>
</g>
<!-- 94&#45;&gt;71 -->
<g id="edge18" class="edge">
<title>94&#45;&gt;71</title>
<path fill="none" stroke="#000000" d="M5723.0835,-176.6313C5799.6547,-164.4733 5912.0711,-148.3604 6010.887,-141 6240.6026,-123.8894 7858.1584,-109.5795 8306.1285,-105.9115"/>
<polygon fill="#000000" stroke="#000000" points="8306.2011,-109.4111 8316.1721,-105.8294 8306.1438,-102.4114 8306.2011,-109.4111"/>
<text text-anchor="middle" x="6092.387" y="-144.8" font-family="Times,serif" font-size="14.00" fill="#000000">9166 0.001552578146983759</text>
</g>
<!-- 95 -->
<g id="node21" class="node">
<title>95</title>
<ellipse fill="none" stroke="#000000" cx="5981.887" cy="-192" rx="157.872" ry="18"/>
<text text-anchor="middle" x="5981.887" y="-188.3" font-family="Times,serif" font-size="14.00" fill="#000000">/usr/lib/x86_64&#45;linux&#45;gnu/libffi.so.6 [0.5]</text>
</g>
<!-- 95&#45;&gt;71 -->
<g id="edge19" class="edge">
<title>95&#45;&gt;71</title>
<path fill="none" stroke="#000000" d="M6057.3121,-176.1717C6118.7904,-164.0489 6208.0289,-148.2178 6286.887,-141 6487.8073,-122.6101 7891.5241,-109.4537 8305.9513,-105.937"/>
<polygon fill="#000000" stroke="#000000" points="8306.1787,-109.4353 8316.1487,-105.8507 8306.1194,-102.4356 8306.1787,-109.4353"/>
<text text-anchor="middle" x="6368.387" y="-144.8" font-family="Times,serif" font-size="14.00" fill="#000000">9182 0.001594081255230532</text>
</g>
<!-- 101 -->
<g id="node22" class="node">
<title>101</title>
<ellipse fill="none" stroke="#000000" cx="6235.887" cy="-192" rx="77.9862" ry="18"/>
<text text-anchor="middle" x="6235.887" y="-188.3" font-family="Times,serif" font-size="14.00" fill="#000000">/etc/host.conf [0.5]</text>
</g>
<!-- 101&#45;&gt;71 -->
<g id="edge20" class="edge">
<title>101&#45;&gt;71</title>
<path fill="none" stroke="#000000" d="M6292.3655,-179.4662C6302.496,-177.4606 6312.9805,-175.5415 6322.887,-174 6461.5426,-152.4248 6496.8363,-149.7567 6636.887,-141 6963.3475,-120.588 7965.18,-109.3549 8305.9911,-106.0471"/>
<polygon fill="#000000" stroke="#000000" points="8306.1591,-109.5458 8316.1248,-105.9492 8306.0914,-102.5461 8306.1591,-109.5458"/>
<text text-anchor="middle" x="6721.887" y="-144.8" font-family="Times,serif" font-size="14.00" fill="#000000">11615 0.011415439697689097</text>
</g>
<!-- 72 -->
<g id="node23" class="node">
<title>72</title>
<ellipse fill="none" stroke="#000000" cx="6494.887" cy="-192" rx="163.2712" ry="18"/>
<text text-anchor="middle" x="6494.887" y="-188.3" font-family="Times,serif" font-size="14.00" fill="#000000">/usr/lib/x86_64&#45;linux&#45;gnu/libcurl.so.4 [0.5]</text>
</g>
<!-- 72&#45;&gt;71 -->
<g id="edge21" class="edge">
<title>72&#45;&gt;71</title>
<path fill="none" stroke="#000000" d="M6602.4392,-178.3628C6701.7785,-166.354 6853.5359,-149.4929 6985.887,-141 7241.6563,-124.5874 8012.7881,-111.3088 8306.0231,-106.7232"/>
<polygon fill="#000000" stroke="#000000" points="8306.307,-110.2193 8316.2512,-106.5638 8306.1978,-103.2202 8306.307,-110.2193"/>
<text text-anchor="middle" x="7067.387" y="-144.8" font-family="Times,serif" font-size="14.00" fill="#000000">8606 5.220654436764356E&#45;7</text>
</g>
<!-- 91 -->
<g id="node24" class="node">
<title>91</title>
<ellipse fill="none" stroke="#000000" cx="6845.887" cy="-192" rx="170.0701" ry="18"/>
<text text-anchor="middle" x="6845.887" y="-188.3" font-family="Times,serif" font-size="14.00" fill="#000000">/usr/lib/x86_64&#45;linux&#45;gnu/libkrb5.so.26 [0.5]</text>
</g>
<!-- 91&#45;&gt;71 -->
<g id="edge22" class="edge">
<title>91&#45;&gt;71</title>
<path fill="none" stroke="#000000" d="M6954.6175,-178.0659C7051.1681,-166.2446 7196.186,-149.8383 7322.887,-141 7681.0178,-116.0178 8106.0994,-108.3106 8306.0694,-105.9807"/>
<polygon fill="#000000" stroke="#000000" points="8306.3349,-109.478 8316.2943,-105.8639 8306.2549,-102.4784 8306.3349,-109.478"/>
<text text-anchor="middle" x="7407.887" y="-144.8" font-family="Times,serif" font-size="14.00" fill="#000000">9114 0.0014104381790278704</text>
</g>
<!-- 42 -->
<g id="node25" class="node">
<title>42</title>
<ellipse fill="none" stroke="#000000" cx="7200.887" cy="-192" rx="167.0704" ry="18"/>
<text text-anchor="middle" x="7200.887" y="-188.3" font-family="Times,serif" font-size="14.00" fill="#000000">/lib/x86_64&#45;linux&#45;gnu/libnss_files.so.2 [0.5]</text>
</g>
<!-- 42&#45;&gt;71 -->
<g id="edge23" class="edge">
<title>42&#45;&gt;71</title>
<path fill="none" stroke="#000000" d="M7305.176,-177.9208C7394.6169,-166.337 7527.0099,-150.3551 7642.887,-141 7878.0576,-122.014 8154.0884,-112.1849 8306.0217,-107.8504"/>
<polygon fill="#000000" stroke="#000000" points="8306.3989,-111.3413 8316.2961,-107.5603 8306.2012,-104.3441 8306.3989,-111.3413"/>
<text text-anchor="middle" x="7724.387" y="-144.8" font-family="Times,serif" font-size="14.00" fill="#000000">9564 0.009860291864466164</text>
</g>
<!-- 73 -->
<g id="node26" class="node">
<title>73</title>
<ellipse fill="none" stroke="#000000" cx="7566.887" cy="-192" rx="180.8681" ry="18"/>
<text text-anchor="middle" x="7566.887" y="-188.3" font-family="Times,serif" font-size="14.00" fill="#000000">/usr/lib/x86_64&#45;linux&#45;gnu/libnghttp2.so.14 [0.5]</text>
</g>
<!-- 73&#45;&gt;71 -->
<g id="edge24" class="edge">
<title>73&#45;&gt;71</title>
<path fill="none" stroke="#000000" d="M7662.7039,-176.7182C7735.5479,-165.534 7838.3266,-150.6815 7928.887,-141 8057.7368,-127.2251 8206.1422,-117.1576 8305.9778,-111.2269"/>
<polygon fill="#000000" stroke="#000000" points="8306.3128,-114.7133 8316.0893,-110.6305 8305.9005,-107.7255 8306.3128,-114.7133"/>
<text text-anchor="middle" x="8010.387" y="-144.8" font-family="Times,serif" font-size="14.00" fill="#000000">8676 2.170961267646859E&#45;4</text>
</g>
<!-- 77 -->
<g id="node27" class="node">
<title>77</title>
<ellipse fill="none" stroke="#000000" cx="7930.887" cy="-192" rx="165.9709" ry="18"/>
<text text-anchor="middle" x="7930.887" y="-188.3" font-family="Times,serif" font-size="14.00" fill="#000000">/usr/lib/x86_64&#45;linux&#45;gnu/libssl.so.1.1 [0.5]</text>
</g>
<!-- 77&#45;&gt;71 -->
<g id="edge25" class="edge">
<title>77&#45;&gt;71</title>
<path fill="none" stroke="#000000" d="M8000.9304,-175.6568C8048.2078,-164.9548 8112.1016,-151.1277 8168.887,-141 8213.5896,-133.0272 8263.0024,-125.6552 8306.1437,-119.686"/>
<polygon fill="#000000" stroke="#000000" points="8306.6754,-123.1459 8316.1058,-118.317 8305.7224,-116.2111 8306.6754,-123.1459"/>
<text text-anchor="middle" x="8246.887" y="-144.8" font-family="Times,serif" font-size="14.00" fill="#000000">8742 4.07540952432809E&#45;4</text>
</g>
<!-- 100 -->
<g id="node28" class="node">
<title>100</title>
<ellipse fill="none" stroke="#000000" cx="8257.887" cy="-192" rx="143.7746" ry="18"/>
<text text-anchor="middle" x="8257.887" y="-188.3" font-family="Times,serif" font-size="14.00" fill="#000000">/lib/x86_64&#45;linux&#45;gnu/libm.so.6 [0.5]</text>
</g>
<!-- 100&#45;&gt;71 -->
<g id="edge26" class="edge">
<title>100&#45;&gt;71</title>
<path fill="none" stroke="#000000" d="M8290.8724,-174.3943C8316.0293,-160.967 8350.8824,-142.3644 8378.1708,-127.7994"/>
<polygon fill="#000000" stroke="#000000" points="8379.9362,-130.8246 8387.1102,-123.0281 8376.6401,-124.6491 8379.9362,-130.8246"/>
<text text-anchor="middle" x="8433.887" y="-144.8" font-family="Times,serif" font-size="14.00" fill="#000000">9286 0.0019128603361809112</text>
</g>
<!-- 104 -->
<g id="node29" class="node">
<title>104</title>
<ellipse fill="none" stroke="#000000" cx="8583.887" cy="-192" rx="164.3708" ry="18"/>
<text text-anchor="middle" x="8583.887" y="-188.3" font-family="Times,serif" font-size="14.00" fill="#000000">/lib/x86_64&#45;linux&#45;gnu/libnss_dns.so.2 [0.5]</text>
</g>
<!-- 104&#45;&gt;71 -->
<g id="edge27" class="edge">
<title>104&#45;&gt;71</title>
<path fill="none" stroke="#000000" d="M8565.96,-174.0432C8554.4427,-163.2968 8538.7194,-150.0193 8522.887,-141 8513.5174,-135.6624 8503.2193,-130.9081 8492.8805,-126.7439"/>
<polygon fill="#000000" stroke="#000000" points="8493.9894,-123.4203 8483.3998,-123.0858 8491.4694,-129.951 8493.9894,-123.4203"/>
<text text-anchor="middle" x="8625.387" y="-144.8" font-family="Times,serif" font-size="14.00" fill="#000000">11655 0.01319999877249136</text>
</g>
<!-- 85 -->
<g id="node30" class="node">
<title>85</title>
<ellipse fill="none" stroke="#000000" cx="8936.887" cy="-192" rx="170.0701" ry="18"/>
<text text-anchor="middle" x="8936.887" y="-188.3" font-family="Times,serif" font-size="14.00" fill="#000000">/usr/lib/x86_64&#45;linux&#45;gnu/libgmp.so.10 [0.5]</text>
</g>
<!-- 85&#45;&gt;71 -->
<g id="edge28" class="edge">
<title>85&#45;&gt;71</title>
<path fill="none" stroke="#000000" d="M8870.9751,-175.3244C8826.0799,-164.4109 8765.1721,-150.4708 8710.887,-141 8653.4873,-130.9858 8589.2227,-122.7113 8535.8053,-116.6311"/>
<polygon fill="#000000" stroke="#000000" points="8535.9462,-113.1249 8525.6171,-115.483 8535.1623,-120.0809 8535.9462,-113.1249"/>
<text text-anchor="middle" x="8866.387" y="-144.8" font-family="Times,serif" font-size="14.00" fill="#000000">8894 7.979850207838099E&#45;4</text>
</g>
<!-- 15 -->
<g id="node31" class="node">
<title>15</title>
<ellipse fill="none" stroke="#000000" cx="9279.887" cy="-192" rx="154.8728" ry="18"/>
<text text-anchor="middle" x="9279.887" y="-188.3" font-family="Times,serif" font-size="14.00" fill="#000000">/lib/x86_64&#45;linux&#45;gnu/libcrypt.so.1 [0.5]</text>
</g>
<!-- 15&#45;&gt;71 -->
<g id="edge29" class="edge">
<title>15&#45;&gt;71</title>
<path fill="none" stroke="#000000" d="M9195.548,-176.8284C9129.4573,-165.4388 9035.0778,-150.27 8951.887,-141 8808.8821,-125.0649 8643.3691,-115.1953 8535.6489,-109.9084"/>
<polygon fill="#000000" stroke="#000000" points="8535.5655,-106.4004 8525.4074,-109.4111 8535.2258,-113.3921 8535.5655,-106.4004"/>
<text text-anchor="middle" x="9144.887" y="-144.8" font-family="Times,serif" font-size="14.00" fill="#000000">9268 0.0018313253536074068</text>
</g>
<!-- 29 -->
<g id="node32" class="node">
<title>29</title>
<ellipse fill="none" stroke="#000000" cx="9632.887" cy="-192" rx="180.8681" ry="18"/>
<text text-anchor="middle" x="9632.887" y="-188.3" font-family="Times,serif" font-size="14.00" fill="#000000">/usr/lib/x86_64&#45;linux&#45;gnu/libk5crypto.so.3 [0.5]</text>
</g>
<!-- 29&#45;&gt;71 -->
<g id="edge30" class="edge">
<title>29&#45;&gt;71</title>
<path fill="none" stroke="#000000" d="M9533.1075,-176.9145C9452.5458,-165.2979 9336.1669,-149.786 9233.887,-141 8985.608,-119.6725 8693.5252,-110.6445 8535.8526,-107.0918"/>
<polygon fill="#000000" stroke="#000000" points="8535.7384,-103.5885 8525.6632,-106.8656 8535.583,-110.5868 8535.7384,-103.5885"/>
<text text-anchor="middle" x="9446.387" y="-144.8" font-family="Times,serif" font-size="14.00" fill="#000000">8944 9.330764106118368E&#45;4</text>
</g>
<!-- 88 -->
<g id="node33" class="node">
<title>88</title>
<ellipse fill="none" stroke="#000000" cx="10006.887" cy="-192" rx="174.6691" ry="18"/>
<text text-anchor="middle" x="10006.887" y="-188.3" font-family="Times,serif" font-size="14.00" fill="#000000">/usr/lib/x86_64&#45;linux&#45;gnu/libp11&#45;kit.so.0 [0.5]</text>
</g>
<!-- 88&#45;&gt;71 -->
<g id="edge31" class="edge">
<title>88&#45;&gt;71</title>
<path fill="none" stroke="#000000" d="M9897.6679,-177.9333C9801.5245,-166.1106 9657.6487,-149.7767 9531.887,-141 9168.6314,-115.649 8737.2912,-108.1111 8535.5784,-105.8998"/>
<polygon fill="#000000" stroke="#000000" points="8535.5973,-102.3999 8525.5603,-105.7923 8535.5222,-109.3995 8535.5973,-102.3999"/>
<text text-anchor="middle" x="9786.887" y="-144.8" font-family="Times,serif" font-size="14.00" fill="#000000">9046 0.0012120578155096755</text>
</g>
<!-- 30 -->
<g id="node34" class="node">
<title>30</title>
<ellipse fill="none" stroke="#000000" cx="10391.887" cy="-192" rx="192.2659" ry="18"/>
<text text-anchor="middle" x="10391.887" y="-188.3" font-family="Times,serif" font-size="14.00" fill="#000000">/usr/lib/x86_64&#45;linux&#45;gnu/libkrb5support.so.0 [0.5]</text>
</g>
<!-- 30&#45;&gt;71 -->
<g id="edge32" class="edge">
<title>30&#45;&gt;71</title>
<path fill="none" stroke="#000000" d="M10273.4751,-177.7897C10169.0177,-165.8535 10012.5697,-149.4341 9875.887,-141 9616.0477,-124.9665 8831.8396,-111.4204 8535.745,-106.7452"/>
<polygon fill="#000000" stroke="#000000" points="8535.4734,-103.2406 8525.4195,-106.5826 8535.3632,-110.2397 8535.4734,-103.2406"/>
<text text-anchor="middle" x="10144.887" y="-144.8" font-family="Times,serif" font-size="14.00" fill="#000000">8978 0.0010226664987046474</text>
</g>
<!-- 97 -->
<g id="node35" class="node">
<title>97</title>
<ellipse fill="none" stroke="#000000" cx="10785.887" cy="-192" rx="183.0677" ry="18"/>
<text text-anchor="middle" x="10785.887" y="-188.3" font-family="Times,serif" font-size="14.00" fill="#000000">/usr/lib/x86_64&#45;linux&#45;gnu/libheimbase.so.1 [0.5]</text>
</g>
<!-- 97&#45;&gt;71 -->
<g id="edge33" class="edge">
<title>97&#45;&gt;71</title>
<path fill="none" stroke="#000000" d="M10665.7409,-178.36C10554.0466,-166.2834 10382.9496,-149.3202 10233.887,-141 9901.407,-122.4419 8880.375,-109.9718 8535.8184,-106.2007"/>
<polygon fill="#000000" stroke="#000000" points="8535.6135,-102.6984 8525.5759,-106.089 8535.5371,-109.6979 8535.6135,-102.6984"/>
<text text-anchor="middle" x="10512.387" y="-144.8" font-family="Times,serif" font-size="14.00" fill="#000000">9216 0.001691535963491619</text>
</g>
<!-- 31 -->
<g id="node36" class="node">
<title>31</title>
<ellipse fill="none" stroke="#000000" cx="11151.887" cy="-192" rx="164.3708" ry="18"/>
<text text-anchor="middle" x="11151.887" y="-188.3" font-family="Times,serif" font-size="14.00" fill="#000000">/lib/x86_64&#45;linux&#45;gnu/libkeyutils.so.1 [0.5]</text>
</g>
<!-- 31&#45;&gt;71 -->
<g id="edge34" class="edge">
<title>31&#45;&gt;71</title>
<path fill="none" stroke="#000000" d="M11038.8142,-178.9056C10926.9892,-166.5901 10750.8947,-148.8991 10597.887,-141 10190.8466,-119.9863 8924.7518,-108.8298 8535.7505,-105.835"/>
<polygon fill="#000000" stroke="#000000" points="8535.6373,-102.3341 8525.6108,-105.7572 8535.5836,-109.3339 8535.6373,-102.3341"/>
<text text-anchor="middle" x="10877.387" y="-144.8" font-family="Times,serif" font-size="14.00" fill="#000000">9080 0.001311875025646652</text>
</g>
<!-- 96 -->
<g id="node37" class="node">
<title>96</title>
<ellipse fill="none" stroke="#000000" cx="11500.887" cy="-192" rx="167.0704" ry="18"/>
<text text-anchor="middle" x="11500.887" y="-188.3" font-family="Times,serif" font-size="14.00" fill="#000000">/usr/lib/x86_64&#45;linux&#45;gnu/libwind.so.0 [0.5]</text>
</g>
<!-- 96&#45;&gt;71 -->
<g id="edge35" class="edge">
<title>96&#45;&gt;71</title>
<path fill="none" stroke="#000000" d="M11388.7732,-178.6056C11280.083,-166.2753 11110.452,-148.7595 10962.887,-141 10480.7332,-115.6467 8966.045,-107.3346 8535.8562,-105.4538"/>
<polygon fill="#000000" stroke="#000000" points="8535.605,-101.9528 8525.5899,-105.4092 8535.5746,-108.9527 8535.605,-101.9528"/>
<text text-anchor="middle" x="11239.887" y="-144.8" font-family="Times,serif" font-size="14.00" fill="#000000">9198 0.0016412917159224771</text>
</g>
<!-- 103 -->
<g id="node38" class="node">
<title>103</title>
<ellipse fill="none" stroke="#000000" cx="11749.887" cy="-192" rx="63.8893" ry="18"/>
<text text-anchor="middle" x="11749.887" y="-188.3" font-family="Times,serif" font-size="14.00" fill="#000000">/etc/hosts [0.5]</text>
</g>
<!-- 103&#45;&gt;71 -->
<g id="edge36" class="edge">
<title>103&#45;&gt;71</title>
<path fill="none" stroke="#000000" d="M11703.761,-179.5388C11694.8906,-177.4518 11685.638,-175.4855 11676.887,-174 11523.7176,-147.9992 11484.0255,-149.3019 11328.887,-141 10771.0018,-111.1459 9004.4887,-106.0047 8535.9095,-105.1594"/>
<polygon fill="#000000" stroke="#000000" points="8535.7569,-101.6593 8525.7506,-105.1414 8535.7444,-108.6592 8535.7569,-101.6593"/>
<text text-anchor="middle" x="11635.887" y="-144.8" font-family="Times,serif" font-size="14.00" fill="#000000">11637 0.011865052449060257</text>
</g>
<!-- 79 -->
<g id="node39" class="node">
<title>79</title>
<ellipse fill="none" stroke="#000000" cx="12017.887" cy="-192" rx="186.5669" ry="18"/>
<text text-anchor="middle" x="12017.887" y="-188.3" font-family="Times,serif" font-size="14.00" fill="#000000">/usr/lib/x86_64&#45;linux&#45;gnu/libldap_r&#45;2.4.so.2 [0.5]</text>
</g>
<!-- 79&#45;&gt;71 -->
<g id="edge37" class="edge">
<title>79&#45;&gt;71</title>
<path fill="none" stroke="#000000" d="M11942.7545,-175.476C11883.8281,-163.3547 11799.5692,-147.8612 11724.887,-141 11402.6777,-111.3979 9082.0421,-106.0115 8535.8126,-105.15"/>
<polygon fill="#000000" stroke="#000000" points="8535.568,-101.6497 8525.5625,-105.134 8535.557,-108.6497 8535.568,-101.6497"/>
<text text-anchor="middle" x="11911.387" y="-144.8" font-family="Times,serif" font-size="14.00" fill="#000000">8792 5.402026730608639E&#45;4</text>
</g>
<!-- 18 -->
<g id="node40" class="node">
<title>18</title>
<ellipse fill="none" stroke="#000000" cx="12388.887" cy="-192" rx="166.2706" ry="18"/>
<text text-anchor="middle" x="12388.887" y="-188.3" font-family="Times,serif" font-size="14.00" fill="#000000">/lib/x86_64&#45;linux&#45;gnu/libcom_err.so.2 [0.5]</text>
</g>
<!-- 18&#45;&gt;71 -->
<g id="edge38" class="edge">
<title>18&#45;&gt;71</title>
<path fill="none" stroke="#000000" d="M12297.3199,-176.9426C12218.0723,-164.6658 12100.2652,-148.2193 11996.887,-141 11645.72,-116.4765 9110.1428,-107.15 8536.1807,-105.3412"/>
<polygon fill="#000000" stroke="#000000" points="8535.8405,-101.8402 8525.8295,-105.3087 8535.8185,-108.8402 8535.8405,-101.8402"/>
<text text-anchor="middle" x="12218.387" y="-144.8" font-family="Times,serif" font-size="14.00" fill="#000000">8962 9.823593463109605E&#45;4</text>
</g>
<!-- 41 -->
<g id="node41" class="node">
<title>41</title>
<ellipse fill="none" stroke="#000000" cx="12735.887" cy="-192" rx="162.4712" ry="18"/>
<text text-anchor="middle" x="12735.887" y="-188.3" font-family="Times,serif" font-size="14.00" fill="#000000">/lib/x86_64&#45;linux&#45;gnu/libnss_nis.so.2 [0.5]</text>
</g>
<!-- 41&#45;&gt;71 -->
<g id="edge39" class="edge">
<title>41&#45;&gt;71</title>
<path fill="none" stroke="#000000" d="M12638.7932,-177.4909C12551.4174,-165.1618 12419.3902,-148.3317 12303.887,-141 11920.3349,-116.6535 9139.1944,-107.1167 8536.0719,-105.3234"/>
<polygon fill="#000000" stroke="#000000" points="8535.6459,-101.8222 8525.6355,-105.2925 8535.6251,-108.8222 8535.6459,-101.8222"/>
<text text-anchor="middle" x="12539.387" y="-144.8" font-family="Times,serif" font-size="14.00" fill="#000000">9530 0.009740983137844635</text>
</g>
<!-- 84 -->
<g id="node42" class="node">
<title>84</title>
<ellipse fill="none" stroke="#000000" cx="13084.887" cy="-192" rx="168.97" ry="18"/>
<text text-anchor="middle" x="13084.887" y="-188.3" font-family="Times,serif" font-size="14.00" fill="#000000">/usr/lib/x86_64&#45;linux&#45;gnu/libnettle.so.6 [0.5]</text>
</g>
<!-- 84&#45;&gt;71 -->
<g id="edge40" class="edge">
<title>84&#45;&gt;71</title>
<path fill="none" stroke="#000000" d="M12982.3754,-177.6063C12889.3223,-165.2633 12748.2072,-148.3451 12624.887,-141 12207.4014,-116.1341 9167.6201,-106.9367 8535.7366,-105.2835"/>
<polygon fill="#000000" stroke="#000000" points="8535.7204,-101.7835 8525.7113,-105.2573 8535.7021,-108.7835 8535.7204,-101.7835"/>
<text text-anchor="middle" x="12870.387" y="-144.8" font-family="Times,serif" font-size="14.00" fill="#000000">8878 7.614100420828923E&#45;4</text>
</g>
<!-- 81 -->
<g id="node43" class="node">
<title>81</title>
<ellipse fill="none" stroke="#000000" cx="13452.887" cy="-192" rx="180.8681" ry="18"/>
<text text-anchor="middle" x="13452.887" y="-188.3" font-family="Times,serif" font-size="14.00" fill="#000000">/usr/lib/x86_64&#45;linux&#45;gnu/libunistring.so.2 [0.5]</text>
</g>
<!-- 81&#45;&gt;71 -->
<g id="edge41" class="edge">
<title>81&#45;&gt;71</title>
<path fill="none" stroke="#000000" d="M13342.5806,-177.666C13242.0221,-165.3176 13089.2605,-148.3561 12955.887,-141 12503.3539,-116.0411 9196.2551,-106.8569 8535.5621,-105.2618"/>
<polygon fill="#000000" stroke="#000000" points="8535.5677,-101.7619 8525.5593,-105.2378 8535.5508,-108.7619 8535.5677,-101.7619"/>
<text text-anchor="middle" x="13215.387" y="-144.8" font-family="Times,serif" font-size="14.00" fill="#000000">8828 6.314926815276169E&#45;4</text>
</g>
<!-- 92 -->
<g id="node44" class="node">
<title>92</title>
<ellipse fill="none" stroke="#000000" cx="13816.887" cy="-192" rx="165.9709" ry="18"/>
<text text-anchor="middle" x="13816.887" y="-188.3" font-family="Times,serif" font-size="14.00" fill="#000000">/usr/lib/x86_64&#45;linux&#45;gnu/libasn1.so.8 [0.5]</text>
</g>
<!-- 92&#45;&gt;71 -->
<g id="edge42" class="edge">
<title>92&#45;&gt;71</title>
<path fill="none" stroke="#000000" d="M13708.3902,-178.2999C13604.126,-165.84 13442.0286,-148.3156 13300.887,-141 12811.8761,-115.6538 9226.4282,-106.7274 8535.8089,-105.2348"/>
<polygon fill="#000000" stroke="#000000" points="8535.6154,-101.7345 8525.6078,-105.2128 8535.6002,-108.7345 8535.6154,-101.7345"/>
<text text-anchor="middle" x="13583.887" y="-144.8" font-family="Times,serif" font-size="14.00" fill="#000000">9132 0.0014569078214176517</text>
</g>
<!-- 98 -->
<g id="node45" class="node">
<title>98</title>
<ellipse fill="none" stroke="#000000" cx="14171.887" cy="-192" rx="171.6696" ry="18"/>
<text text-anchor="middle" x="14171.887" y="-188.3" font-family="Times,serif" font-size="14.00" fill="#000000">/usr/lib/x86_64&#45;linux&#45;gnu/libhx509.so.5 [0.5]</text>
</g>
<!-- 98&#45;&gt;71 -->
<g id="edge43" class="edge">
<title>98&#45;&gt;71</title>
<path fill="none" stroke="#000000" d="M14064.0719,-177.9926C13963.1632,-165.593 13808.1014,-148.3565 13672.887,-141 13144.5614,-112.2558 9256.8296,-106.0408 8535.7756,-105.1311"/>
<polygon fill="#000000" stroke="#000000" points="8535.6506,-101.631 8525.6462,-105.1184 8535.6418,-108.631 8535.6506,-101.631"/>
<text text-anchor="middle" x="13932.387" y="-144.8" font-family="Times,serif" font-size="14.00" fill="#000000">9232 0.001733757358530462</text>
</g>
<!-- 83 -->
<g id="node46" class="node">
<title>83</title>
<ellipse fill="none" stroke="#000000" cx="14542.887" cy="-192" rx="181.168" ry="18"/>
<text text-anchor="middle" x="14542.887" y="-188.3" font-family="Times,serif" font-size="14.00" fill="#000000">/usr/lib/x86_64&#45;linux&#45;gnu/libhogweed.so.4 [0.5]</text>
</g>
<!-- 83&#45;&gt;71 -->
<g id="edge44" class="edge">
<title>83&#45;&gt;71</title>
<path fill="none" stroke="#000000" d="M14429.1747,-177.9595C14322.9858,-165.5599 14159.9818,-148.3437 14017.887,-141 13452.8964,-111.8005 9284.0207,-105.9346 8535.7367,-105.1133"/>
<polygon fill="#000000" stroke="#000000" points="8535.5024,-101.6132 8525.4986,-105.1022 8535.4947,-108.6132 8535.5024,-101.6132"/>
<text text-anchor="middle" x="14283.887" y="-144.8" font-family="Times,serif" font-size="14.00" fill="#000000">8862 7.20193412713243E&#45;4</text>
</g>
<!-- 99 -->
<g id="node47" class="node">
<title>99</title>
<ellipse fill="none" stroke="#000000" cx="14914.887" cy="-192" rx="172.7694" ry="18"/>
<text text-anchor="middle" x="14914.887" y="-188.3" font-family="Times,serif" font-size="14.00" fill="#000000">/usr/lib/x86_64&#45;linux&#45;gnu/libsqlite3.so.0 [0.5]</text>
</g>
<!-- 99&#45;&gt;71 -->
<g id="edge45" class="edge">
<title>99&#45;&gt;71</title>
<path fill="none" stroke="#000000" d="M14801.0125,-178.4227C14690.1247,-165.9114 14516.7168,-148.2252 14365.887,-141 13763.825,-112.1595 9310.6133,-105.9775 8535.7022,-105.1163"/>
<polygon fill="#000000" stroke="#000000" points="8535.6605,-101.6163 8525.6566,-105.1052 8535.6527,-108.6163 8535.6605,-101.6163"/>
<text text-anchor="middle" x="14661.887" y="-144.8" font-family="Times,serif" font-size="14.00" fill="#000000">9250 0.0017793462962515305</text>
</g>
<!-- 90 -->
<g id="node48" class="node">
<title>90</title>
<ellipse fill="none" stroke="#000000" cx="15289.887" cy="-192" rx="184.6673" ry="18"/>
<text text-anchor="middle" x="15289.887" y="-188.3" font-family="Times,serif" font-size="14.00" fill="#000000">/usr/lib/x86_64&#45;linux&#45;gnu/libheimntlm.so.0 [0.5]</text>
</g>
<!-- 90&#45;&gt;71 -->
<g id="edge46" class="edge">
<title>90&#45;&gt;71</title>
<path fill="none" stroke="#000000" d="M15173.6576,-177.9996C15064.6423,-165.5818 14896.9828,-148.3128 14750.887,-141 14107.947,-108.8178 9339.2518,-105.3885 8535.6915,-105.0384"/>
<polygon fill="#000000" stroke="#000000" points="8535.5689,-101.5385 8525.5674,-105.0341 8535.5658,-108.5385 8535.5689,-101.5385"/>
<text text-anchor="middle" x="15042.887" y="-144.8" font-family="Times,serif" font-size="14.00" fill="#000000">9096 0.0013659912286369212</text>
</g>
<!-- 87 -->
<g id="node49" class="node">
<title>87</title>
<ellipse fill="none" stroke="#000000" cx="15663.887" cy="-192" rx="171.6696" ry="18"/>
<text text-anchor="middle" x="15663.887" y="-188.3" font-family="Times,serif" font-size="14.00" fill="#000000">/usr/lib/x86_64&#45;linux&#45;gnu/libgssapi.so.3 [0.5]</text>
</g>
<!-- 87&#45;&gt;71 -->
<g id="edge47" class="edge">
<title>87&#45;&gt;71</title>
<path fill="none" stroke="#000000" d="M15552.2718,-178.2762C15444.7761,-165.7756 15277.4967,-148.202 15131.887,-141 14789.2092,-124.0509 9394.206,-107.8104 8535.6487,-105.3271"/>
<polygon fill="#000000" stroke="#000000" points="8535.4645,-101.8267 8525.4544,-105.2977 8535.4442,-108.8267 8535.4645,-101.8267"/>
<text text-anchor="middle" x="15421.887" y="-144.8" font-family="Times,serif" font-size="14.00" fill="#000000">9030 0.0011676841390368242</text>
</g>
<!-- 82 -->
<g id="node50" class="node">
<title>82</title>
<ellipse fill="none" stroke="#000000" cx="16028.887" cy="-192" rx="175.4689" ry="18"/>
<text text-anchor="middle" x="16028.887" y="-188.3" font-family="Times,serif" font-size="14.00" fill="#000000">/usr/lib/x86_64&#45;linux&#45;gnu/libgnutls.so.30 [0.5]</text>
</g>
<!-- 82&#45;&gt;71 -->
<g id="edge48" class="edge">
<title>82&#45;&gt;71</title>
<path fill="none" stroke="#000000" d="M15917.7089,-178.0327C15812.9673,-165.5917 15651.5565,-148.2662 15510.887,-141 15148.0397,-122.2574 9422.1467,-107.4613 8535.7654,-105.2781"/>
<polygon fill="#000000" stroke="#000000" points="8535.5699,-101.7777 8525.5613,-105.253 8535.5526,-108.7776 8535.5699,-101.7777"/>
<text text-anchor="middle" x="15791.387" y="-144.8" font-family="Times,serif" font-size="14.00" fill="#000000">8844 6.703534794012275E&#45;4</text>
</g>
<!-- 28 -->
<g id="node51" class="node">
<title>28</title>
<ellipse fill="none" stroke="#000000" cx="16385.887" cy="-192" rx="163.2712" ry="18"/>
<text text-anchor="middle" x="16385.887" y="-188.3" font-family="Times,serif" font-size="14.00" fill="#000000">/lib/x86_64&#45;linux&#45;gnu/libpthread.so.0 [0.5]</text>
</g>
<!-- 28&#45;&gt;71 -->
<g id="edge50" class="edge">
<title>28&#45;&gt;71</title>
<path fill="none" stroke="#000000" d="M16279.3627,-178.2892C16176.5383,-165.7746 16016.3573,-148.1701 15876.887,-141 15494.5031,-121.3418 9448.5166,-107.2666 8535.8902,-105.2494"/>
<polygon fill="#000000" stroke="#000000" points="8535.7208,-101.7491 8525.713,-105.227 8535.7053,-108.7491 8535.7208,-101.7491"/>
<text text-anchor="middle" x="16154.387" y="-144.8" font-family="Times,serif" font-size="14.00" fill="#000000">8640 9.669223329739181E&#45;5</text>
</g>
<!-- 78 -->
<g id="node52" class="node">
<title>78</title>
<ellipse fill="none" stroke="#000000" cx="16745.887" cy="-192" rx="178.9686" ry="18"/>
<text text-anchor="middle" x="16745.887" y="-188.3" font-family="Times,serif" font-size="14.00" fill="#000000">/usr/lib/x86_64&#45;linux&#45;gnu/libcrypto.so.1.1 [0.5]</text>
</g>
<!-- 78&#45;&gt;71 -->
<g id="edge51" class="edge">
<title>78&#45;&gt;71</title>
<path fill="none" stroke="#000000" d="M16635.5679,-177.804C16533.2194,-165.3658 16376.5513,-148.1853 16239.887,-141 15838.0707,-119.8741 9471.9437,-106.9973 8535.5421,-105.2136"/>
<polygon fill="#000000" stroke="#000000" points="8535.444,-101.7135 8525.4373,-105.1944 8535.4306,-108.7135 8535.444,-101.7135"/>
<text text-anchor="middle" x="16516.387" y="-144.8" font-family="Times,serif" font-size="14.00" fill="#000000">8758 4.453346140773466E&#45;4</text>
</g>
<!-- 76 -->
<g id="node53" class="node">
<title>76</title>
<ellipse fill="none" stroke="#000000" cx="17102.887" cy="-192" rx="159.7717" ry="18"/>
<text text-anchor="middle" x="17102.887" y="-188.3" font-family="Times,serif" font-size="14.00" fill="#000000">/usr/lib/x86_64&#45;linux&#45;gnu/libpsl.so.5 [0.5]</text>
</g>
<!-- 76&#45;&gt;71 -->
<g id="edge52" class="edge">
<title>76&#45;&gt;71</title>
<path fill="none" stroke="#000000" d="M16998.5278,-178.322C16897.3449,-165.7839 16739.4029,-148.1209 16601.887,-141 16180.6814,-119.1889 9496.2074,-106.8571 8535.5294,-105.1939"/>
<polygon fill="#000000" stroke="#000000" points="8535.514,-101.694 8525.5079,-105.1766 8535.5018,-108.694 8535.514,-101.694"/>
<text text-anchor="middle" x="16876.387" y="-144.8" font-family="Times,serif" font-size="14.00" fill="#000000">8726 3.684337212543221E&#45;4</text>
</g>
<!-- 111&#45;&gt;71 -->
<g id="edge54" class="edge">
<title>111&#45;&gt;71</title>
<path fill="none" stroke="#000000" d="M8493.8743,-36.4398C8490.3701,-46.8364 8484.8701,-59.5864 8476.887,-69 8473.2427,-73.2973 8468.9556,-77.2634 8464.4027,-80.8686"/>
<polygon fill="#000000" stroke="#000000" points="8462.0418,-78.2572 8456.0019,-86.9618 8466.1518,-83.9237 8462.0418,-78.2572"/>
<text text-anchor="middle" x="8564.387" y="-57.8" font-family="Times,serif" font-size="14.00" fill="#000000">15944 0.7664244730587662</text>
</g>
<!-- 109 -->
<g id="node55" class="node">
<title>109</title>
<polygon fill="none" stroke="#000000" points="17707.3037,-210 17367.8054,-210 17280.4702,-174 17619.9685,-174 17707.3037,-210"/>
<text text-anchor="middle" x="17493.887" y="-188.3" font-family="Times,serif" font-size="14.00" fill="#000000">127.0.0.1:37866&#45;&gt;127.0.0.53:53 [0.5]</text>
</g>
<!-- 109&#45;&gt;71 -->
<g id="edge53" class="edge">
<title>109&#45;&gt;71</title>
<path fill="none" stroke="#000000" d="M17344.2402,-173.9699C17237.7802,-162.0454 17091.2762,-147.4611 16961.887,-141 16521.4139,-119.0049 9521.5503,-106.7972 8535.8852,-105.1839"/>
<polygon fill="#000000" stroke="#000000" points="8535.6142,-101.6835 8525.6084,-105.1671 8535.6026,-108.6835 8535.6142,-101.6835"/>
<text text-anchor="middle" x="17248.387" y="-144.8" font-family="Times,serif" font-size="14.00" fill="#000000">11846 0.06577318897468624</text>
</g>
</g>
</svg>
