<?xml version="1.0" encoding="UTF-8" standalone="no"?>
<!DOCTYPE svg PUBLIC "-//W3C//DTD SVG 1.1//EN"
 "http://www.w3.org/Graphics/SVG/1.1/DTD/svg11.dtd">
<!-- Generated by graphviz version 2.40.1 (20161225.0304)
 -->
<!-- Title: G Pages: 1 -->
<svg width="12540pt" height="305pt"
 viewBox="0.00 0.00 12540.36 305.00" xmlns="http://www.w3.org/2000/svg" xmlns:xlink="http://www.w3.org/1999/xlink">
<g id="graph0" class="graph" transform="scale(1 1) rotate(0) translate(4 301)">
<title>G</title>
<polygon fill="#ffffff" stroke="transparent" points="-4,4 -4,-301 12536.3613,-301 12536.3613,4 -4,4"/>
<!-- 369 -->
<g id="node1" class="node">
<title>369</title>
<polygon fill="none" stroke="#000000" points="6810.3972,-123 6214.6353,-123 6061.3768,-87 6657.1387,-87 6810.3972,-123"/>
<text text-anchor="middle" x="6435.887" y="-101.3" font-family="Times,serif" font-size="14.00" fill="#000000">172.31.77.48:42988&#45;&gt;172.31.71.251:44444 [0.26273020908766415]</text>
</g>
<!-- 370 -->
<g id="node3" class="node">
<title>370</title>
<polygon fill="none" stroke="#000000" points="2003.887,-36 1797.887,-36 1797.887,0 2003.887,0 2003.887,-36"/>
<text text-anchor="middle" x="1900.887" y="-14.3" font-family="Times,serif" font-size="14.00" fill="#000000">30599bash [0.2627307394533762]</text>
</g>
<!-- 369&#45;&gt;370 -->
<g id="edge31" class="edge">
<title>369&#45;&gt;370</title>
<path fill="none" stroke="#000000" d="M6090.5797,-93.8648C5723.055,-82.3646 5124.4836,-64.6409 4607.887,-54 3602.304,-33.287 2386.3398,-22.0473 2014.3863,-18.9166"/>
<polygon fill="#000000" stroke="#000000" points="2014.1891,-15.4149 2004.16,-18.8308 2014.1303,-22.4147 2014.1891,-15.4149"/>
<text text-anchor="middle" x="5290.387" y="-57.8" font-family="Times,serif" font-size="14.00" fill="#000000">53582 0.9999976428381336</text>
</g>
<!-- 368 -->
<g id="node4" class="node">
<title>368</title>
<polygon fill="none" stroke="#000000" points="6491.887,-36 6379.887,-36 6379.887,0 6491.887,0 6491.887,-36"/>
<text text-anchor="middle" x="6435.887" y="-14.3" font-family="Times,serif" font-size="14.00" fill="#000000">30599bdoor [0.0]</text>
</g>
<!-- 369&#45;&gt;368 -->
<g id="edge32" class="edge">
<title>369&#45;&gt;368</title>
<path fill="none" stroke="#000000" d="M6485.8207,-86.9843C6493.0225,-82.236 6499.4773,-76.324 6503.887,-69 6510.2535,-58.4259 6505.201,-49.3172 6495.5117,-41.8452"/>
<polygon fill="#000000" stroke="#000000" points="6497.1632,-38.7436 6486.8765,-36.207 6493.3362,-44.6048 6497.1632,-38.7436"/>
<text text-anchor="middle" x="6533.387" y="-57.8" font-family="Times,serif" font-size="14.00" fill="#000000">53227 1.0</text>
</g>
<!-- 373 -->
<g id="node2" class="node">
<title>373</title>
<polygon fill="none" stroke="#000000" points="2714.387,-210 2623.387,-210 2623.387,-174 2714.387,-174 2714.387,-210"/>
<text text-anchor="middle" x="2668.887" y="-188.3" font-family="Times,serif" font-size="14.00" fill="#000000">32397id [0.5]</text>
</g>
<!-- 373&#45;&gt;369 -->
<g id="edge1" class="edge">
<title>373&#45;&gt;369</title>
<path fill="none" stroke="#000000" d="M2663.606,-173.98C2661.5751,-162.9309 2661.4538,-149.3489 2669.887,-141 2685.2341,-125.8063 5242.9515,-111.1588 6133.9988,-106.5147"/>
<polygon fill="#000000" stroke="#000000" points="6134.0989,-110.0144 6144.0805,-106.4622 6134.0624,-103.0145 6134.0989,-110.0144"/>
<text text-anchor="middle" x="2754.887" y="-144.8" font-family="Times,serif" font-size="14.00" fill="#000000">58835 0.019714690463349633</text>
</g>
<!-- 370&#45;&gt;369 -->
<g id="edge4" class="edge">
<title>370&#45;&gt;369</title>
<path fill="none" stroke="#000000" d="M2004.1132,-19.9803C2555.6823,-30.5617 5165.0235,-80.6196 6100.8552,-98.5727"/>
<polygon fill="#000000" stroke="#000000" points="6101.041,-102.0768 6111.1063,-98.7694 6101.1753,-95.0781 6101.041,-102.0768"/>
<text text-anchor="middle" x="4522.387" y="-57.8" font-family="Times,serif" font-size="14.00" fill="#000000">57307 0.01829874463061215</text>
</g>
<!-- 368&#45;&gt;369 -->
<g id="edge2" class="edge">
<title>368&#45;&gt;369</title>
<path fill="none" stroke="#000000" d="M6379.7511,-29.9937C6355.2034,-38.0515 6334.4925,-50.6165 6346.887,-69 6349.8963,-73.4634 6353.5628,-77.3736 6357.6729,-80.7991"/>
<polygon fill="#000000" stroke="#000000" points="6355.8984,-83.8331 6366.0672,-86.8072 6359.9725,-78.1409 6355.8984,-83.8331"/>
<text text-anchor="middle" x="6425.387" y="-57.8" font-family="Times,serif" font-size="14.00" fill="#000000">53227 0.4658561226088221</text>
</g>
<!-- 381 -->
<g id="node5" class="node">
<title>381</title>
<polygon fill="none" stroke="#000000" points="6866.387,-210 6777.387,-210 6777.387,-174 6866.387,-174 6866.387,-210"/>
<text text-anchor="middle" x="6821.887" y="-188.3" font-family="Times,serif" font-size="14.00" fill="#000000">32403ls [0.5]</text>
</g>
<!-- 381&#45;&gt;369 -->
<g id="edge3" class="edge">
<title>381&#45;&gt;369</title>
<path fill="none" stroke="#000000" d="M6816.0449,-173.8565C6811.381,-162.4605 6803.6493,-148.5381 6791.887,-141 6782.0709,-134.7092 6747.3973,-129.0121 6703.2894,-124.1015"/>
<polygon fill="#000000" stroke="#000000" points="6703.4452,-120.598 6693.1265,-123.0009 6702.6915,-127.5573 6703.4452,-120.598"/>
<text text-anchor="middle" x="6884.387" y="-144.8" font-family="Times,serif" font-size="14.00" fill="#000000">67655 0.4658330128608711</text>
</g>
<!-- 376 -->
<g id="node6" class="node">
<title>376</title>
<polygon fill="none" stroke="#000000" points="7057.387,-210 6968.387,-210 6968.387,-174 7057.387,-174 7057.387,-210"/>
<text text-anchor="middle" x="7012.887" y="-188.3" font-family="Times,serif" font-size="14.00" fill="#000000">32399ls [0.5]</text>
</g>
<!-- 376&#45;&gt;369 -->
<g id="edge5" class="edge">
<title>376&#45;&gt;369</title>
<path fill="none" stroke="#000000" d="M7001.8332,-173.8129C6993.7208,-162.2431 6981.5798,-148.1391 6966.887,-141 6949.1788,-132.3958 6884.4049,-125.5304 6805.8671,-120.1998"/>
<polygon fill="#000000" stroke="#000000" points="6805.9275,-116.6962 6795.7171,-119.5243 6805.4625,-123.6808 6805.9275,-116.6962"/>
<text text-anchor="middle" x="7070.887" y="-144.8" font-family="Times,serif" font-size="14.00" fill="#000000">61202 0.004293537761232464</text>
</g>
<!-- 379 -->
<g id="node7" class="node">
<title>379</title>
<polygon fill="none" stroke="#000000" points="7249.387,-210 7160.387,-210 7160.387,-174 7249.387,-174 7249.387,-210"/>
<text text-anchor="middle" x="7204.887" y="-188.3" font-family="Times,serif" font-size="14.00" fill="#000000">32401ls [0.5]</text>
</g>
<!-- 379&#45;&gt;369 -->
<g id="edge6" class="edge">
<title>379&#45;&gt;369</title>
<path fill="none" stroke="#000000" d="M7194.3764,-173.9882C7186.4982,-162.3372 7174.5688,-148.0695 7159.887,-141 7123.0594,-123.267 6937.1527,-114.261 6762.9615,-109.6913"/>
<polygon fill="#000000" stroke="#000000" points="6762.9183,-106.1891 6752.8314,-109.4302 6762.7378,-113.1868 6762.9183,-106.1891"/>
<text text-anchor="middle" x="7266.887" y="-144.8" font-family="Times,serif" font-size="14.00" fill="#000000">63514 2.5658172033480832E&#45;5</text>
</g>
<!-- 378 -->
<g id="node8" class="node">
<title>378</title>
<polygon fill="none" stroke="#000000" points="6287.387,-210 6198.387,-210 6198.387,-174 6287.387,-174 6287.387,-210"/>
<text text-anchor="middle" x="6242.887" y="-188.3" font-family="Times,serif" font-size="14.00" fill="#000000">32400ls [0.5]</text>
</g>
<!-- 378&#45;&gt;369 -->
<g id="edge7" class="edge">
<title>378&#45;&gt;369</title>
<path fill="none" stroke="#000000" d="M6245.1724,-173.9088C6247.5224,-162.8312 6252.2777,-149.2443 6261.887,-141 6268.8347,-135.0391 6281.9135,-129.9072 6297.9071,-125.5402"/>
<polygon fill="#000000" stroke="#000000" points="6298.8126,-128.9214 6307.6364,-123.0569 6297.0814,-122.1388 6298.8126,-128.9214"/>
<text text-anchor="middle" x="6346.887" y="-144.8" font-family="Times,serif" font-size="14.00" fill="#000000">62577 0.004442320707014771</text>
</g>
<!-- 372 -->
<g id="node9" class="node">
<title>372</title>
<polygon fill="none" stroke="#000000" points="2564.387,-210 2373.387,-210 2373.387,-174 2564.387,-174 2564.387,-210"/>
<text text-anchor="middle" x="2468.887" y="-188.3" font-family="Times,serif" font-size="14.00" fill="#000000">32396ls [0.5000000000000001]</text>
</g>
<!-- 372&#45;&gt;369 -->
<g id="edge8" class="edge">
<title>372&#45;&gt;369</title>
<path fill="none" stroke="#000000" d="M2468.7088,-173.9082C2469.6589,-162.534 2472.9917,-148.6165 2482.887,-141 2518.9235,-113.2623 5207.0451,-106.7762 6129.3277,-105.3664"/>
<polygon fill="#000000" stroke="#000000" points="6129.431,-108.8663 6139.4256,-105.351 6129.4203,-101.8663 6129.431,-108.8663"/>
<text text-anchor="middle" x="2571.387" y="-144.8" font-family="Times,serif" font-size="14.00" fill="#000000">56540 0.0025914753753815646</text>
</g>
<!-- 371 -->
<g id="node10" class="node">
<title>371</title>
<polygon fill="none" stroke="#000000" points="7441.387,-210 7352.387,-210 7352.387,-174 7441.387,-174 7441.387,-210"/>
<text text-anchor="middle" x="7396.887" y="-188.3" font-family="Times,serif" font-size="14.00" fill="#000000">32395ls [0.5]</text>
</g>
<!-- 371&#45;&gt;369 -->
<g id="edge9" class="edge">
<title>371&#45;&gt;369</title>
<path fill="none" stroke="#000000" d="M7388.564,-173.7542C7382.2134,-162.159 7372.2716,-148.0485 7358.887,-141 7332.4141,-127.059 7023.0592,-117.1368 6769.6791,-111.2861"/>
<polygon fill="#000000" stroke="#000000" points="6769.6323,-107.7842 6759.5546,-111.0538 6769.4716,-114.7823 6769.6323,-107.7842"/>
<text text-anchor="middle" x="7464.387" y="-144.8" font-family="Times,serif" font-size="14.00" fill="#000000">55163 0.0033210754476048878</text>
</g>
<!-- 375 -->
<g id="node11" class="node">
<title>375</title>
<polygon fill="none" stroke="#000000" points="6673.387,-210 6584.387,-210 6584.387,-174 6673.387,-174 6673.387,-210"/>
<text text-anchor="middle" x="6628.887" y="-188.3" font-family="Times,serif" font-size="14.00" fill="#000000">32398ls [0.5]</text>
</g>
<!-- 375&#45;&gt;369 -->
<g id="edge10" class="edge">
<title>375&#45;&gt;369</title>
<path fill="none" stroke="#000000" d="M6625.4748,-173.8651C6622.4482,-162.7701 6616.8893,-149.1802 6606.887,-141 6599.6723,-135.0997 6586.0708,-129.9579 6569.5636,-125.5504"/>
<polygon fill="#000000" stroke="#000000" points="6570.0857,-122.0731 6559.535,-123.04 6568.3858,-128.8636 6570.0857,-122.0731"/>
<text text-anchor="middle" x="6702.887" y="-144.8" font-family="Times,serif" font-size="14.00" fill="#000000">60057 0.004844050062041144</text>
</g>
<!-- 380 -->
<g id="node12" class="node">
<title>380</title>
<polygon fill="none" stroke="#000000" points="6480.387,-210 6391.387,-210 6391.387,-174 6480.387,-174 6480.387,-210"/>
<text text-anchor="middle" x="6435.887" y="-188.3" font-family="Times,serif" font-size="14.00" fill="#000000">32402ls [0.5]</text>
</g>
<!-- 380&#45;&gt;369 -->
<g id="edge11" class="edge">
<title>380&#45;&gt;369</title>
<path fill="none" stroke="#000000" d="M6435.887,-173.9735C6435.887,-162.1918 6435.887,-146.5607 6435.887,-133.1581"/>
<polygon fill="#000000" stroke="#000000" points="6439.3871,-133.0033 6435.887,-123.0034 6432.3871,-133.0034 6439.3871,-133.0033"/>
<text text-anchor="middle" x="6520.887" y="-144.8" font-family="Times,serif" font-size="14.00" fill="#000000">66452 0.010779311911037245</text>
</g>
<!-- 39 -->
<g id="node13" class="node">
<title>39</title>
<ellipse fill="none" stroke="#000000" cx="1132.887" cy="-279" rx="94.4839" ry="18"/>
<text text-anchor="middle" x="1132.887" y="-275.3" font-family="Times,serif" font-size="14.00" fill="#000000">/etc/nsswitch.conf [0.5]</text>
</g>
<!-- 39&#45;&gt;373 -->
<g id="edge17" class="edge">
<title>39&#45;&gt;373</title>
<path fill="none" stroke="#000000" d="M1197.9595,-265.8366C1229.9267,-259.2336 1268.9846,-250.9628 1303.887,-243 1331.1063,-236.79 1337.1966,-231.5641 1364.887,-228 1631.1646,-193.7268 2305.7573,-236.8358 2572.887,-210 2586.0631,-208.6763 2600.1339,-206.4852 2613.3274,-204.079"/>
<polygon fill="#000000" stroke="#000000" points="2614.0413,-207.5061 2623.2162,-202.2079 2612.7398,-200.6282 2614.0413,-207.5061"/>
<text text-anchor="middle" x="1446.387" y="-231.8" font-family="Times,serif" font-size="14.00" fill="#000000">58663 0.06105823209671291</text>
</g>
<!-- 39&#45;&gt;370 -->
<g id="edge26" class="edge">
<title>39&#45;&gt;370</title>
<path fill="none" stroke="#000000" d="M1123.4091,-260.9031C1119.3225,-250.3696 1116.8923,-237.3643 1123.887,-228 1133.4263,-215.2288 1727.8598,-54.9859 1731.887,-54 1754.2232,-48.5319 1778.3359,-43.1107 1801.1584,-38.1985"/>
<polygon fill="#000000" stroke="#000000" points="1802.1484,-41.566 1811.1957,-36.0527 1800.6849,-34.7207 1802.1484,-41.566"/>
<text text-anchor="middle" x="1494.387" y="-144.8" font-family="Times,serif" font-size="14.00" fill="#000000">53442 3.367381141805282E&#45;7</text>
</g>
<!-- 39&#45;&gt;372 -->
<g id="edge59" class="edge">
<title>39&#45;&gt;372</title>
<path fill="none" stroke="#000000" d="M1127.567,-260.5343C1125.643,-249.5963 1125.6515,-236.2962 1133.887,-228 1155.4571,-206.2706 2050.8108,-195.8868 2362.9132,-192.9224"/>
<polygon fill="#000000" stroke="#000000" points="2363.3534,-196.4185 2373.3199,-192.8242 2363.2873,-189.4188 2363.3534,-196.4185"/>
<text text-anchor="middle" x="1218.887" y="-231.8" font-family="Times,serif" font-size="14.00" fill="#000000">56364 0.050737990285724836</text>
</g>
<!-- 34 -->
<g id="node14" class="node">
<title>34</title>
<ellipse fill="none" stroke="#000000" cx="9990.887" cy="-279" rx="90.9839" ry="18"/>
<text text-anchor="middle" x="9990.887" y="-275.3" font-family="Times,serif" font-size="14.00" fill="#000000">/proc/filesystems [0.5]</text>
</g>
<!-- 34&#45;&gt;373 -->
<g id="edge12" class="edge">
<title>34&#45;&gt;373</title>
<path fill="none" stroke="#000000" d="M9900.9798,-276.1057C9754.6891,-270.9597 9477.1336,-259.2148 9434.887,-243 9424.8425,-239.1448 9426.0413,-231.5556 9415.887,-228 9410.6559,-226.1683 3373.2879,-195.5648 2725.0873,-192.2843"/>
<polygon fill="#000000" stroke="#000000" points="2724.6414,-188.7821 2714.6238,-192.2313 2724.6059,-195.782 2724.6414,-188.7821"/>
<text text-anchor="middle" x="9519.887" y="-231.8" font-family="Times,serif" font-size="14.00" fill="#000000">58629 0.044607555917028544</text>
</g>
<!-- 34&#45;&gt;381 -->
<g id="edge35" class="edge">
<title>34&#45;&gt;381</title>
<path fill="none" stroke="#000000" d="M10077.5916,-273.3765C10124.6326,-267.2696 10168.2747,-254.5374 10141.887,-228 10126.3059,-212.3305 6981.934,-211.4944 6959.887,-210 6932.344,-208.1331 6901.8972,-204.347 6876.6253,-200.7268"/>
<polygon fill="#000000" stroke="#000000" points="6876.8966,-197.2293 6866.4953,-199.2453 6875.8836,-204.1556 6876.8966,-197.2293"/>
<text text-anchor="middle" x="10227.387" y="-231.8" font-family="Times,serif" font-size="14.00" fill="#000000">67631 0.7125228922941543</text>
</g>
<!-- 34&#45;&gt;376 -->
<g id="edge43" class="edge">
<title>34&#45;&gt;376</title>
<path fill="none" stroke="#000000" d="M10080.1699,-275.3368C10172.6596,-270.603 10305.94,-260.7754 10321.887,-243 10326.3389,-238.0376 10326.5876,-232.7274 10321.887,-228 10306.3648,-212.3894 7173.8515,-211.4789 7151.887,-210 7124.0402,-208.1251 7093.2438,-204.317 7067.7307,-200.6843"/>
<polygon fill="#000000" stroke="#000000" points="7067.9072,-197.1732 7057.5077,-199.1983 7066.9002,-204.1004 7067.9072,-197.1732"/>
<text text-anchor="middle" x="10403.387" y="-231.8" font-family="Times,serif" font-size="14.00" fill="#000000">61178 0.5649724910640739</text>
</g>
<!-- 34&#45;&gt;379 -->
<g id="edge48" class="edge">
<title>34&#45;&gt;379</title>
<path fill="none" stroke="#000000" d="M10080.5867,-275.8232C10223.3608,-270.3253 10487.7605,-258.1567 10501.887,-243 10506.4324,-238.1231 10506.5876,-232.7275 10501.887,-228 10486.4237,-212.4484 7365.7683,-211.4735 7343.887,-210 7316.0402,-208.1248 7285.2438,-204.3166 7259.7307,-200.684"/>
<polygon fill="#000000" stroke="#000000" points="7259.9072,-197.173 7249.5077,-199.1981 7258.9002,-204.1002 7259.9072,-197.173"/>
<text text-anchor="middle" x="10583.387" y="-231.8" font-family="Times,serif" font-size="14.00" fill="#000000">63490 0.5572147346950053</text>
</g>
<!-- 34&#45;&gt;378 -->
<g id="edge56" class="edge">
<title>34&#45;&gt;378</title>
<path fill="none" stroke="#000000" d="M9900.9251,-275.8463C9809.8268,-271.6288 9675.7504,-262.3157 9627.887,-243 9617.9099,-238.9737 9619.0409,-231.5568 9608.887,-228 9524.3131,-198.3745 6472.3001,-215.9749 6382.887,-210 6354.6097,-208.1104 6323.3099,-204.2546 6297.4892,-200.5948"/>
<polygon fill="#000000" stroke="#000000" points="6297.9142,-197.1199 6287.5162,-199.1527 6296.9123,-204.0478 6297.9142,-197.1199"/>
<text text-anchor="middle" x="9706.387" y="-231.8" font-family="Times,serif" font-size="14.00" fill="#000000">62553 0.5697602583403459</text>
</g>
<!-- 34&#45;&gt;372 -->
<g id="edge62" class="edge">
<title>34&#45;&gt;372</title>
<path fill="none" stroke="#000000" d="M9900.5349,-276.4597C9715.2683,-270.9884 9304.4452,-257.4142 9241.887,-243 9225.3951,-239.2001 9223.4606,-231.4255 9206.887,-228 9117.2125,-209.466 2705.2744,-215.7759 2613.887,-210 2601.1774,-209.1967 2587.8763,-208.0163 2574.7045,-206.6375"/>
<polygon fill="#000000" stroke="#000000" points="2574.9886,-203.1478 2564.6691,-205.5474 2574.2326,-210.1069 2574.9886,-203.1478"/>
<text text-anchor="middle" x="9326.887" y="-231.8" font-family="Times,serif" font-size="14.00" fill="#000000">56324 0.029955529265983032</text>
</g>
<!-- 34&#45;&gt;371 -->
<g id="edge71" class="edge">
<title>34&#45;&gt;371</title>
<path fill="none" stroke="#000000" d="M10081.8774,-277.5444C10264.819,-274.1704 10661.5599,-264.4137 10681.887,-243 10686.4767,-238.1649 10686.5751,-232.7398 10681.887,-228 10652.2732,-198.0599 7879.107,-192.7202 7451.876,-192.075"/>
<polygon fill="#000000" stroke="#000000" points="7451.6492,-188.5748 7441.6439,-192.0598 7451.6387,-195.5748 7451.6492,-188.5748"/>
<text text-anchor="middle" x="10763.387" y="-231.8" font-family="Times,serif" font-size="14.00" fill="#000000">55139 0.5531893044579541</text>
</g>
<!-- 34&#45;&gt;375 -->
<g id="edge75" class="edge">
<title>34&#45;&gt;375</title>
<path fill="none" stroke="#000000" d="M9988.1868,-260.9109C9985.4299,-249.3837 9979.9039,-235.2903 9968.887,-228 9931.8223,-203.4729 6813.2331,-212.9644 6768.887,-210 6740.6097,-208.1098 6709.3099,-204.2539 6683.4892,-200.5942"/>
<polygon fill="#000000" stroke="#000000" points="6683.9142,-197.1193 6673.5162,-199.1522 6682.9124,-204.0473 6683.9142,-197.1193"/>
<text text-anchor="middle" x="10055.887" y="-231.8" font-family="Times,serif" font-size="14.00" fill="#000000">60033 0.564056794662634</text>
</g>
<!-- 34&#45;&gt;380 -->
<g id="edge83" class="edge">
<title>34&#45;&gt;380</title>
<path fill="none" stroke="#000000" d="M9908.6011,-271.2559C9876.1475,-266.067 9839.2139,-257.4152 9807.887,-243 9798.1132,-238.5026 9799.0408,-231.5569 9788.887,-228 9704.6543,-198.4929 6664.9397,-215.9519 6575.887,-210 6547.6097,-208.1101 6516.3099,-204.2543 6490.4892,-200.5945"/>
<polygon fill="#000000" stroke="#000000" points="6490.9142,-197.1196 6480.5162,-199.1524 6489.9124,-204.0475 6490.9142,-197.1196"/>
<text text-anchor="middle" x="9886.387" y="-231.8" font-family="Times,serif" font-size="14.00" fill="#000000">66428 0.5592475257956044</text>
</g>
<!-- 42 -->
<g id="node15" class="node">
<title>42</title>
<ellipse fill="none" stroke="#000000" cx="1536.887" cy="-279" rx="167.0704" ry="18"/>
<text text-anchor="middle" x="1536.887" y="-275.3" font-family="Times,serif" font-size="14.00" fill="#000000">/lib/x86_64&#45;linux&#45;gnu/libnss_files.so.2 [0.5]</text>
</g>
<!-- 42&#45;&gt;373 -->
<g id="edge13" class="edge">
<title>42&#45;&gt;373</title>
<path fill="none" stroke="#000000" d="M1612.0882,-262.906C1640.0095,-256.8217 1671.9274,-249.738 1700.887,-243 1728.0794,-236.6732 1734.2098,-231.665 1761.887,-228 2119.3001,-180.6712 2214.2931,-247.3453 2572.887,-210 2586.0582,-208.6283 2600.1271,-206.4184 2613.3203,-204.0094"/>
<polygon fill="#000000" stroke="#000000" points="2614.0339,-207.4366 2623.2092,-202.139 2612.7329,-200.5586 2614.0339,-207.4366"/>
<text text-anchor="middle" x="1843.387" y="-231.8" font-family="Times,serif" font-size="14.00" fill="#000000">58743 0.10273210120742576</text>
</g>
<!-- 42&#45;&gt;370 -->
<g id="edge27" class="edge">
<title>42&#45;&gt;370</title>
<path fill="none" stroke="#000000" d="M1528.0309,-260.9515C1524.3289,-250.6853 1522.0789,-237.9353 1527.887,-228 1589.5852,-122.4591 1726.0139,-65.843 1815.6519,-38.8551"/>
<polygon fill="#000000" stroke="#000000" points="1816.6566,-42.2079 1825.2581,-36.0221 1814.6765,-35.4938 1816.6566,-42.2079"/>
<text text-anchor="middle" x="1688.387" y="-144.8" font-family="Times,serif" font-size="14.00" fill="#000000">53522 5.398538103334001E&#45;7</text>
</g>
<!-- 42&#45;&gt;372 -->
<g id="edge58" class="edge">
<title>42&#45;&gt;372</title>
<path fill="none" stroke="#000000" d="M1531.6012,-260.5681C1529.6901,-249.6428 1529.7001,-236.3442 1537.887,-228 1552.1696,-213.4428 2122.0387,-199.4738 2363.0236,-194.2052"/>
<polygon fill="#000000" stroke="#000000" points="2363.2802,-197.7005 2373.2016,-193.9836 2363.1278,-190.7022 2363.2802,-197.7005"/>
<text text-anchor="middle" x="1619.387" y="-231.8" font-family="Times,serif" font-size="14.00" fill="#000000">56444 0.10372241370003303</text>
</g>
<!-- 41 -->
<g id="node16" class="node">
<title>41</title>
<ellipse fill="none" stroke="#000000" cx="777.887" cy="-279" rx="162.4712" ry="18"/>
<text text-anchor="middle" x="777.887" y="-275.3" font-family="Times,serif" font-size="14.00" fill="#000000">/lib/x86_64&#45;linux&#45;gnu/libnss_nis.so.2 [0.5]</text>
</g>
<!-- 41&#45;&gt;373 -->
<g id="edge14" class="edge">
<title>41&#45;&gt;373</title>
<path fill="none" stroke="#000000" d="M835.4302,-262.1529C884.2319,-248.0002 948.2751,-229.7963 960.887,-228 1138.2195,-202.7424 2394.6287,-227.5717 2572.887,-210 2586.0655,-208.7009 2600.1373,-206.5194 2613.331,-204.1147"/>
<polygon fill="#000000" stroke="#000000" points="2614.045,-207.5418 2623.2197,-202.2432 2612.7433,-200.6638 2614.045,-207.5418"/>
<text text-anchor="middle" x="1042.387" y="-231.8" font-family="Times,serif" font-size="14.00" fill="#000000">58709 0.10212957176079215</text>
</g>
<!-- 41&#45;&gt;370 -->
<g id="edge25" class="edge">
<title>41&#45;&gt;370</title>
<path fill="none" stroke="#000000" d="M743.8096,-261.1894C730.0098,-251.6581 719.3293,-239.5347 728.887,-228 1001.0852,100.5048 1251.9773,-123.5873 1672.887,-54 1710.2008,-47.8311 1750.9899,-41.3178 1787.6206,-35.5526"/>
<polygon fill="#000000" stroke="#000000" points="1788.5004,-38.9574 1797.8357,-33.9472 1787.4136,-32.0422 1788.5004,-38.9574"/>
<text text-anchor="middle" x="895.387" y="-144.8" font-family="Times,serif" font-size="14.00" fill="#000000">53488 4.914043119499537E&#45;7</text>
</g>
<!-- 41&#45;&gt;372 -->
<g id="edge66" class="edge">
<title>41&#45;&gt;372</title>
<path fill="none" stroke="#000000" d="M749.4563,-261.0531C736.803,-250.9396 726.7914,-238.3076 736.887,-228 765.441,-198.8462 1991.1017,-193.2495 2363.0037,-192.2217"/>
<polygon fill="#000000" stroke="#000000" points="2363.2347,-195.7211 2373.2251,-192.194 2363.2156,-188.7212 2363.2347,-195.7211"/>
<text text-anchor="middle" x="818.387" y="-231.8" font-family="Times,serif" font-size="14.00" fill="#000000">56410 0.10348647117081945</text>
</g>
<!-- 20 -->
<g id="node17" class="node">
<title>20</title>
<ellipse fill="none" stroke="#000000" cx="146.887" cy="-279" rx="146.774" ry="18"/>
<text text-anchor="middle" x="146.887" y="-275.3" font-family="Times,serif" font-size="14.00" fill="#000000">/lib/x86_64&#45;linux&#45;gnu/libnsl.so.1 [0.5]</text>
</g>
<!-- 20&#45;&gt;373 -->
<g id="edge15" class="edge">
<title>20&#45;&gt;373</title>
<path fill="none" stroke="#000000" d="M219.5962,-263.2706C248.0854,-257.047 281.0383,-249.7736 310.887,-243 339.3778,-236.5345 345.879,-231.4743 374.887,-228 617.3842,-198.9556 2329.7992,-233.5969 2572.887,-210 2586.0675,-208.7205 2600.14,-206.5467 2613.3337,-204.1431"/>
<polygon fill="#000000" stroke="#000000" points="2614.0479,-207.5702 2623.2225,-202.2713 2612.746,-200.6923 2614.0479,-207.5702"/>
<text text-anchor="middle" x="456.387" y="-231.8" font-family="Times,serif" font-size="14.00" fill="#000000">58725 0.10241060979759281</text>
</g>
<!-- 20&#45;&gt;370 -->
<g id="edge24" class="edge">
<title>20&#45;&gt;370</title>
<path fill="none" stroke="#000000" d="M137.1623,-260.7116C132.9882,-250.1102 130.5528,-237.1008 137.887,-228 366.2081,55.319 576.8924,-99.6414 937.887,-54 1099.0298,-33.6263 1569.7186,-23.4483 1787.6901,-19.7203"/>
<polygon fill="#000000" stroke="#000000" points="1787.9372,-23.2167 1797.8764,-19.5476 1787.8185,-16.2177 1787.9372,-23.2167"/>
<text text-anchor="middle" x="306.387" y="-144.8" font-family="Times,serif" font-size="14.00" fill="#000000">53504 5.152040441681799E&#45;7</text>
</g>
<!-- 20&#45;&gt;372 -->
<g id="edge63" class="edge">
<title>20&#45;&gt;372</title>
<path fill="none" stroke="#000000" d="M141.623,-260.9971C139.5988,-249.9547 139.4787,-236.3739 147.887,-228 167.7738,-208.1945 1912.0558,-195.5893 2363.2881,-192.6579"/>
<polygon fill="#000000" stroke="#000000" points="2363.4075,-196.1573 2373.3846,-192.5925 2363.3621,-189.1574 2363.4075,-196.1573"/>
<text text-anchor="middle" x="229.387" y="-231.8" font-family="Times,serif" font-size="14.00" fill="#000000">56426 0.10360571997325985</text>
</g>
<!-- 19 -->
<g id="node18" class="node">
<title>19</title>
<ellipse fill="none" stroke="#000000" cx="11721.887" cy="-279" rx="140.2752" ry="18"/>
<text text-anchor="middle" x="11721.887" y="-275.3" font-family="Times,serif" font-size="14.00" fill="#000000">/lib/x86_64&#45;linux&#45;gnu/libc.so.6 [0.5]</text>
</g>
<!-- 19&#45;&gt;373 -->
<g id="edge16" class="edge">
<title>19&#45;&gt;373</title>
<path fill="none" stroke="#000000" d="M11583.3225,-275.8339C11405.3557,-271.0806 11113.7234,-260.7149 11066.887,-243 11056.8239,-239.1938 11058.0442,-231.5473 11047.887,-228 11016.0305,-216.8745 6222.6299,-210.1488 6188.887,-210 4780.289,-203.7894 3054.6326,-194.1703 2724.7894,-192.3154"/>
<polygon fill="#000000" stroke="#000000" points="2724.5597,-188.8142 2714.5402,-192.2577 2724.5203,-195.8141 2724.5597,-188.8142"/>
<text text-anchor="middle" x="11145.387" y="-231.8" font-family="Times,serif" font-size="14.00" fill="#000000">58521 0.0967261236968133</text>
</g>
<!-- 19&#45;&gt;370 -->
<g id="edge29" class="edge">
<title>19&#45;&gt;370</title>
<path fill="none" stroke="#000000" d="M11862.1271,-277.7162C12087.1929,-274.9579 12506.2593,-266.6595 12528.887,-243 12533.4948,-238.1821 12533.5318,-232.7823 12528.887,-228 12297.9422,9.7809 6896.3049,-60.1129 6564.887,-54 5637.8072,-36.9002 2636.775,-21.584 2014.4937,-18.5455"/>
<polygon fill="#000000" stroke="#000000" points="2014.1971,-15.0441 2004.1801,-18.4952 2014.1629,-22.0441 2014.1971,-15.0441"/>
<text text-anchor="middle" x="12311.387" y="-144.8" font-family="Times,serif" font-size="14.00" fill="#000000">53280 2.918763976695484E&#45;8</text>
</g>
<!-- 19&#45;&gt;381 -->
<g id="edge34" class="edge">
<title>19&#45;&gt;381</title>
<path fill="none" stroke="#000000" d="M11771.5939,-262.0363C11790.9437,-252.9144 11805.7409,-240.9019 11792.887,-228 11769.1988,-204.2234 6993.375,-212.2374 6959.887,-210 6932.3422,-208.1597 6901.8952,-204.3765 6876.6236,-200.7513"/>
<polygon fill="#000000" stroke="#000000" points="6876.8956,-197.2538 6866.4939,-199.2674 6875.8809,-204.1799 6876.8956,-197.2538"/>
<text text-anchor="middle" x="11881.887" y="-231.8" font-family="Times,serif" font-size="14.00" fill="#000000">67523 0.031072464104119357</text>
</g>
<!-- 19&#45;&gt;376 -->
<g id="edge41" class="edge">
<title>19&#45;&gt;376</title>
<path fill="none" stroke="#000000" d="M11849.1656,-271.3723C11927.5424,-264.2779 12008.9909,-251.1901 11985.887,-228 11962.1939,-204.2185 7185.383,-212.2224 7151.887,-210 7124.0384,-208.1523 7093.2418,-204.347 7067.729,-200.7092"/>
<polygon fill="#000000" stroke="#000000" points="7067.9062,-197.1981 7057.5062,-199.2206 7066.8975,-204.1251 7067.9062,-197.1981"/>
<text text-anchor="middle" x="12073.887" y="-231.8" font-family="Times,serif" font-size="14.00" fill="#000000">61070 0.049502473375980766</text>
</g>
<!-- 19&#45;&gt;379 -->
<g id="edge47" class="edge">
<title>19&#45;&gt;379</title>
<path fill="none" stroke="#000000" d="M11854.343,-272.9287C11985.3375,-266.264 12167.8718,-254.9171 12178.887,-243 12183.4121,-238.1044 12183.5922,-232.7228 12178.887,-228 12155.1889,-204.2136 7377.3899,-212.2229 7343.887,-210 7316.0384,-208.1523 7285.2418,-204.347 7259.729,-200.7092"/>
<polygon fill="#000000" stroke="#000000" points="7259.9062,-197.1981 7249.5062,-199.2206 7258.8975,-204.1251 7259.9062,-197.1981"/>
<text text-anchor="middle" x="12263.387" y="-231.8" font-family="Times,serif" font-size="14.00" fill="#000000">63382 0.05225737478971782</text>
</g>
<!-- 19&#45;&gt;378 -->
<g id="edge53" class="edge">
<title>19&#45;&gt;378</title>
<path fill="none" stroke="#000000" d="M11589.4116,-272.9271C11460.0167,-266.3561 11278.0907,-255.1734 11246.887,-243 11236.8639,-239.0897 11238.0442,-231.5474 11227.887,-228 11164.3578,-205.8127 6450.0335,-214.4241 6382.887,-210 6354.6079,-208.1368 6323.3079,-204.2835 6297.4876,-200.6185"/>
<polygon fill="#000000" stroke="#000000" points="6297.9132,-197.1437 6287.5148,-199.1741 6296.9097,-204.0714 6297.9132,-197.1437"/>
<text text-anchor="middle" x="11331.887" y="-231.8" font-family="Times,serif" font-size="14.00" fill="#000000">62445 0.048710986000562104</text>
</g>
<!-- 19&#45;&gt;372 -->
<g id="edge65" class="edge">
<title>19&#45;&gt;372</title>
<path fill="none" stroke="#000000" d="M11583.3888,-275.8027C11362.1944,-270.286 10947.2362,-258.1044 10880.887,-243 10864.3852,-239.2434 10862.4616,-231.4209 10845.887,-228 10733.9135,-204.889 2727.9949,-217.1807 2613.887,-210 2601.1772,-209.2002 2587.876,-208.0218 2574.7041,-206.6442"/>
<polygon fill="#000000" stroke="#000000" points="2574.988,-203.1545 2564.6686,-205.5548 2574.2325,-210.1136 2574.988,-203.1545"/>
<text text-anchor="middle" x="10962.387" y="-231.8" font-family="Times,serif" font-size="14.00" fill="#000000">56216 0.10087328517582057</text>
</g>
<!-- 19&#45;&gt;371 -->
<g id="edge70" class="edge">
<title>19&#45;&gt;371</title>
<path fill="none" stroke="#000000" d="M11860.6044,-276.025C12044.461,-271.3903 12347.819,-261.0503 12364.887,-243 12369.4674,-238.156 12369.5839,-232.7311 12364.887,-228 12342.0899,-205.0372 7992.2143,-193.4811 7451.774,-192.1337"/>
<polygon fill="#000000" stroke="#000000" points="7451.53,-188.6332 7441.5213,-192.1082 7451.5125,-195.6332 7451.53,-188.6332"/>
<text text-anchor="middle" x="12446.387" y="-231.8" font-family="Times,serif" font-size="14.00" fill="#000000">55031 0.0523961020329242</text>
</g>
<!-- 19&#45;&gt;375 -->
<g id="edge76" class="edge">
<title>19&#45;&gt;375</title>
<path fill="none" stroke="#000000" d="M11668.2494,-262.2199C11654.0761,-256.8984 11639.0654,-250.4327 11625.887,-243 11616.5158,-237.7147 11617.0442,-231.5474 11606.887,-228 11543.4496,-205.8446 6835.9365,-214.4179 6768.887,-210 6740.6079,-208.1367 6709.3079,-204.2834 6683.4876,-200.6185"/>
<polygon fill="#000000" stroke="#000000" points="6683.9132,-197.1437 6673.5148,-199.174 6682.9098,-204.0714 6683.9132,-197.1437"/>
<text text-anchor="middle" x="11707.387" y="-231.8" font-family="Times,serif" font-size="14.00" fill="#000000">59925 0.04970834613189509</text>
</g>
<!-- 19&#45;&gt;380 -->
<g id="edge85" class="edge">
<title>19&#45;&gt;380</title>
<path fill="none" stroke="#000000" d="M11600.1324,-269.9285C11537.5901,-263.9851 11468.612,-255.0646 11439.887,-243 11429.9675,-238.8338 11431.0442,-231.5474 11420.887,-228 11357.3578,-205.8127 6643.0335,-214.4241 6575.887,-210 6547.6079,-208.1368 6516.3079,-204.2835 6490.4876,-200.6185"/>
<polygon fill="#000000" stroke="#000000" points="6490.9132,-197.1437 6480.5148,-199.1741 6489.9097,-204.0714 6490.9132,-197.1437"/>
<text text-anchor="middle" x="11521.387" y="-231.8" font-family="Times,serif" font-size="14.00" fill="#000000">66320 0.04650326869983597</text>
</g>
<!-- 22 -->
<g id="node19" class="node">
<title>22</title>
<ellipse fill="none" stroke="#000000" cx="3173.887" cy="-279" rx="143.7746" ry="18"/>
<text text-anchor="middle" x="3173.887" y="-275.3" font-family="Times,serif" font-size="14.00" fill="#000000">/lib/x86_64&#45;linux&#45;gnu/libdl.so.2 [0.5]</text>
</g>
<!-- 22&#45;&gt;373 -->
<g id="edge18" class="edge">
<title>22&#45;&gt;373</title>
<path fill="none" stroke="#000000" d="M3031.3675,-276.5567C2896.7823,-272.9649 2711.6358,-264.1981 2684.887,-243 2677.8301,-237.4075 2673.8241,-228.7277 2671.5701,-220.1043"/>
<polygon fill="#000000" stroke="#000000" points="2674.9887,-219.3475 2669.651,-210.1955 2668.1164,-220.6786 2674.9887,-219.3475"/>
<text text-anchor="middle" x="2766.387" y="-231.8" font-family="Times,serif" font-size="14.00" fill="#000000">58555 0.09732436404559451</text>
</g>
<!-- 22&#45;&gt;370 -->
<g id="edge28" class="edge">
<title>22&#45;&gt;370</title>
<path fill="none" stroke="#000000" d="M3052.955,-269.2386C2981.2178,-262.4983 2901.6296,-252.9797 2887.887,-243 2847.3466,-213.5602 2880.3531,-170.5417 2839.887,-141 2774.2181,-93.0593 2249.3992,-45.7678 2014.2019,-26.7454"/>
<polygon fill="#000000" stroke="#000000" points="2014.1558,-23.2305 2003.9069,-25.9159 2013.5935,-30.2079 2014.1558,-23.2305"/>
<text text-anchor="middle" x="2941.887" y="-144.8" font-family="Times,serif" font-size="14.00" fill="#000000">53262 2.889865323460875E&#45;10</text>
</g>
<!-- 22&#45;&gt;381 -->
<g id="edge37" class="edge">
<title>22&#45;&gt;381</title>
<path fill="none" stroke="#000000" d="M3287.5454,-267.9746C3343.6154,-261.5545 3404.7299,-252.8019 3430.887,-243 3442.315,-238.7175 3442.1986,-231.5101 3453.887,-228 3539.7927,-202.2019 6593.3934,-216.021 6682.887,-210 6710.7338,-208.1265 6741.5302,-204.3185 6767.0433,-200.6856"/>
<polygon fill="#000000" stroke="#000000" points="6767.8739,-204.1018 6777.2663,-199.1995 6766.8668,-197.1746 6767.8739,-204.1018"/>
<text text-anchor="middle" x="3532.387" y="-231.8" font-family="Times,serif" font-size="14.00" fill="#000000">67557 0.0848463618025805</text>
</g>
<!-- 22&#45;&gt;376 -->
<g id="edge44" class="edge">
<title>22&#45;&gt;376</title>
<path fill="none" stroke="#000000" d="M3313.9501,-274.8981C3420.5613,-270.3898 3557.7299,-261.2105 3610.887,-243 3622.4323,-239.0448 3622.1986,-231.51 3633.887,-228 3720.1389,-202.099 6786.0387,-216.1277 6875.887,-210 6903.1277,-208.1422 6933.2269,-204.3782 6958.258,-200.7704"/>
<polygon fill="#000000" stroke="#000000" points="6958.911,-204.2121 6968.2948,-199.2934 6957.8918,-197.2866 6958.911,-204.2121"/>
<text text-anchor="middle" x="3715.387" y="-231.8" font-family="Times,serif" font-size="14.00" fill="#000000">61104 0.12825314785154665</text>
</g>
<!-- 22&#45;&gt;379 -->
<g id="edge49" class="edge">
<title>22&#45;&gt;379</title>
<path fill="none" stroke="#000000" d="M3313.4828,-274.7311C3483.1242,-268.9514 3752.3442,-257.6529 3796.887,-243 3808.4798,-239.1864 3808.1986,-231.5099 3819.887,-228 3906.272,-202.0594 6976.8973,-216.0947 7066.887,-210 7094.43,-208.1346 7124.8768,-204.3487 7150.1488,-200.7282"/>
<polygon fill="#000000" stroke="#000000" points="7150.8905,-204.1571 7160.2787,-199.2466 7149.8774,-197.2308 7150.8905,-204.1571"/>
<text text-anchor="middle" x="3901.387" y="-231.8" font-family="Times,serif" font-size="14.00" fill="#000000">63416 0.12946165925983968</text>
</g>
<!-- 22&#45;&gt;378 -->
<g id="edge52" class="edge">
<title>22&#45;&gt;378</title>
<path fill="none" stroke="#000000" d="M3040.3789,-272.1882C2957.7481,-265.4743 2871.6436,-252.5056 2895.887,-228 2926.0939,-197.4664 5757.4087,-192.6235 6188.2019,-192.0632"/>
<polygon fill="#000000" stroke="#000000" points="6188.2254,-195.5633 6198.2209,-192.0504 6188.2164,-188.5633 6188.2254,-195.5633"/>
<text text-anchor="middle" x="2977.387" y="-231.8" font-family="Times,serif" font-size="14.00" fill="#000000">62479 0.12674449373558713</text>
</g>
<!-- 22&#45;&gt;372 -->
<g id="edge68" class="edge">
<title>22&#45;&gt;372</title>
<path fill="none" stroke="#000000" d="M3030.6765,-277.5928C2848.72,-274.831 2552.7773,-266.7124 2507.887,-243 2497.6546,-237.595 2489.3074,-228.186 2482.9992,-218.9097"/>
<polygon fill="#000000" stroke="#000000" points="2485.8322,-216.8373 2477.5809,-210.1915 2479.8868,-220.5323 2485.8322,-216.8373"/>
<text text-anchor="middle" x="2589.387" y="-231.8" font-family="Times,serif" font-size="14.00" fill="#000000">56250 0.10111177146487633</text>
</g>
<!-- 22&#45;&gt;371 -->
<g id="edge69" class="edge">
<title>22&#45;&gt;371</title>
<path fill="none" stroke="#000000" d="M3317.2474,-277.3875C3532.9891,-274.2417 3922.4437,-265.5015 3982.887,-243 3992.9698,-239.2464 3991.733,-231.5566 4001.887,-228 4087.2743,-198.0921 7168.6201,-216.1127 7258.887,-210 7286.43,-208.1348 7316.8768,-204.349 7342.1488,-200.7284"/>
<polygon fill="#000000" stroke="#000000" points="7342.8905,-204.1573 7352.2787,-199.2468 7341.8774,-197.231 7342.8905,-204.1573"/>
<text text-anchor="middle" x="4080.387" y="-231.8" font-family="Times,serif" font-size="14.00" fill="#000000">55065 0.1313854816416537</text>
</g>
<!-- 22&#45;&gt;375 -->
<g id="edge77" class="edge">
<title>22&#45;&gt;375</title>
<path fill="none" stroke="#000000" d="M3210.4114,-261.4335C3221.609,-255.7946 3233.8756,-249.3572 3244.887,-243 3255.4561,-236.8981 3256.1986,-231.5102 3267.887,-228 3353.6064,-202.2573 6400.5875,-216.0085 6489.887,-210 6517.7338,-208.1263 6548.5302,-204.3184 6574.0433,-200.6855"/>
<polygon fill="#000000" stroke="#000000" points="6574.8738,-204.1016 6584.2663,-199.1994 6573.8668,-197.1744 6574.8738,-204.1016"/>
<text text-anchor="middle" x="3349.387" y="-231.8" font-family="Times,serif" font-size="14.00" fill="#000000">59959 0.12813016292193644</text>
</g>
<!-- 22&#45;&gt;380 -->
<g id="edge81" class="edge">
<title>22&#45;&gt;380</title>
<path fill="none" stroke="#000000" d="M3106.8201,-262.9593C3083.8453,-254.4905 3067.2071,-242.7624 3081.887,-228 3097.6252,-212.1734 6273.6169,-211.4884 6295.887,-210 6324.1643,-208.1101 6355.4641,-204.2543 6381.2847,-200.5945"/>
<polygon fill="#000000" stroke="#000000" points="6381.8616,-204.0476 6391.2577,-199.1525 6380.8598,-197.1196 6381.8616,-204.0476"/>
<text text-anchor="middle" x="3163.387" y="-231.8" font-family="Times,serif" font-size="14.00" fill="#000000">66354 0.11996687069248925</text>
</g>
<!-- 23 -->
<g id="node20" class="node">
<title>23</title>
<ellipse fill="none" stroke="#000000" cx="4928.887" cy="-279" rx="151.3732" ry="18"/>
<text text-anchor="middle" x="4928.887" y="-275.3" font-family="Times,serif" font-size="14.00" fill="#000000">/lib/x86_64&#45;linux&#45;gnu/libpcre.so.3 [0.5]</text>
</g>
<!-- 23&#45;&gt;373 -->
<g id="edge19" class="edge">
<title>23&#45;&gt;373</title>
<path fill="none" stroke="#000000" d="M4782.7152,-274.2073C4648.67,-268.9133 4460.3374,-258.9588 4387.887,-243 4369.7506,-239.0051 4367.1087,-231.5857 4348.887,-228 4267.5964,-212.0035 3007.418,-196.0461 2724.8322,-192.6573"/>
<polygon fill="#000000" stroke="#000000" points="2724.8489,-189.1574 2714.8077,-192.5375 2724.7651,-196.1569 2724.8489,-189.1574"/>
<text text-anchor="middle" x="4469.387" y="-231.8" font-family="Times,serif" font-size="14.00" fill="#000000">58539 0.09706250041064601</text>
</g>
<!-- 23&#45;&gt;381 -->
<g id="edge36" class="edge">
<title>23&#45;&gt;381</title>
<path fill="none" stroke="#000000" d="M5021.778,-264.7153C5045.4903,-259.4278 5070.574,-252.3548 5092.887,-243 5104.1419,-238.2813 5104.209,-231.5446 5115.887,-228 5199.1951,-202.7133 6596.0397,-216.1009 6682.887,-210 6710.7281,-208.0442 6741.524,-204.2277 6767.0381,-200.6104"/>
<polygon fill="#000000" stroke="#000000" points="6767.8656,-204.0272 6777.2617,-199.132 6766.8637,-197.0993 6767.8656,-204.0272"/>
<text text-anchor="middle" x="5197.387" y="-231.8" font-family="Times,serif" font-size="14.00" fill="#000000">67541 0.06056347972713217</text>
</g>
<!-- 23&#45;&gt;376 -->
<g id="edge39" class="edge">
<title>23&#45;&gt;376</title>
<path fill="none" stroke="#000000" d="M5066.6645,-271.4733C5147.2705,-265.7762 5240.5219,-256.5797 5278.887,-243 5290.3916,-238.9278 5290.209,-231.5443 5301.887,-228 5385.5679,-202.6025 6788.6574,-216.207 6875.887,-210 6903.1221,-208.062 6933.2207,-204.2892 6958.2528,-200.6962"/>
<polygon fill="#000000" stroke="#000000" points="6958.9027,-204.1385 6968.2902,-199.2266 6957.8886,-197.2123 6958.9027,-204.1385"/>
<text text-anchor="middle" x="5383.387" y="-231.8" font-family="Times,serif" font-size="14.00" fill="#000000">61088 0.09410942396273451</text>
</g>
<!-- 23&#45;&gt;379 -->
<g id="edge50" class="edge">
<title>23&#45;&gt;379</title>
<path fill="none" stroke="#000000" d="M5072.086,-273.1191C5218.2051,-266.5194 5428.5641,-255.1372 5464.887,-243 5476.4619,-239.1323 5476.2089,-231.5441 5487.887,-228 5571.8341,-202.5233 6979.3773,-216.1841 7066.887,-210 7094.4244,-208.054 7124.8706,-204.2594 7150.1436,-200.6541"/>
<polygon fill="#000000" stroke="#000000" points="7150.8823,-204.0835 7160.2741,-199.18 7149.8743,-197.1565 7150.8823,-204.0835"/>
<text text-anchor="middle" x="5569.387" y="-231.8" font-family="Times,serif" font-size="14.00" fill="#000000">63400 0.09641271136956653</text>
</g>
<!-- 23&#45;&gt;378 -->
<g id="edge55" class="edge">
<title>23&#45;&gt;378</title>
<path fill="none" stroke="#000000" d="M4783.1409,-274.0739C4685.9848,-269.2427 4573.3405,-260.0256 4557.887,-243 4553.4063,-238.0636 4553.2235,-232.7641 4557.887,-228 4587.061,-198.1961 5901.4844,-192.9237 6188.0847,-192.1278"/>
<polygon fill="#000000" stroke="#000000" points="6188.2443,-195.6275 6198.2348,-192.1003 6188.2253,-188.6275 6188.2443,-195.6275"/>
<text text-anchor="middle" x="4639.387" y="-231.8" font-family="Times,serif" font-size="14.00" fill="#000000">62463 0.09260474945589485</text>
</g>
<!-- 23&#45;&gt;372 -->
<g id="edge67" class="edge">
<title>23&#45;&gt;372</title>
<path fill="none" stroke="#000000" d="M4778.5991,-276.6604C4576.4823,-272.7623 4236.0352,-263.2717 4181.887,-243 4171.8111,-239.2278 4173.0301,-231.5875 4162.887,-228 4081.7509,-199.3033 2699.752,-215.8101 2613.887,-210 2601.1811,-209.1402 2587.8822,-207.9255 2574.7117,-206.528"/>
<polygon fill="#000000" stroke="#000000" points="2574.9992,-203.0386 2564.677,-205.4265 2574.2354,-209.9968 2574.9992,-203.0386"/>
<text text-anchor="middle" x="4263.387" y="-231.8" font-family="Times,serif" font-size="14.00" fill="#000000">56234 0.10100956292552532</text>
</g>
<!-- 23&#45;&gt;371 -->
<g id="edge73" class="edge">
<title>23&#45;&gt;371</title>
<path fill="none" stroke="#000000" d="M5078.0436,-275.7189C5273.5979,-270.7765 5598.1022,-260.1334 5650.887,-243 5662.4948,-239.2322 5662.2088,-231.5439 5673.887,-228 5758.1536,-202.4284 7171.0447,-216.2057 7258.887,-210 7286.4245,-208.0546 7316.8707,-204.2601 7342.1437,-200.6546"/>
<polygon fill="#000000" stroke="#000000" points="7342.8824,-204.0841 7352.2741,-199.1805 7341.8743,-197.157 7342.8824,-204.0841"/>
<text text-anchor="middle" x="5755.387" y="-231.8" font-family="Times,serif" font-size="14.00" fill="#000000">55049 0.09619215168311604</text>
</g>
<!-- 23&#45;&gt;375 -->
<g id="edge79" class="edge">
<title>23&#45;&gt;375</title>
<path fill="none" stroke="#000000" d="M4923.6116,-260.9857C4921.583,-249.9388 4921.462,-236.3572 4929.887,-228 4945.2703,-212.7403 6468.2722,-211.519 6489.887,-210 6517.7281,-208.0435 6548.5239,-204.2269 6574.0381,-200.6097"/>
<polygon fill="#000000" stroke="#000000" points="6574.8655,-204.0266 6584.2616,-199.1314 6573.8636,-197.0986 6574.8655,-204.0266"/>
<text text-anchor="middle" x="5011.387" y="-231.8" font-family="Times,serif" font-size="14.00" fill="#000000">59943 0.09378675138879687</text>
</g>
<!-- 23&#45;&gt;380 -->
<g id="edge82" class="edge">
<title>23&#45;&gt;380</title>
<path fill="none" stroke="#000000" d="M4809.6874,-267.8191C4779.7563,-262.445 4753.4076,-254.5519 4743.887,-243 4739.647,-237.8554 4739.2003,-232.7413 4743.887,-228 4759.0414,-212.6688 6274.3824,-211.502 6295.887,-210 6324.1585,-208.0253 6355.4577,-204.1613 6381.2795,-200.518"/>
<polygon fill="#000000" stroke="#000000" points="6381.8531,-203.9716 6391.2531,-199.0838 6380.8566,-197.0429 6381.8531,-203.9716"/>
<text text-anchor="middle" x="4825.387" y="-231.8" font-family="Times,serif" font-size="14.00" fill="#000000">66338 0.08789091232395534</text>
</g>
<!-- 374 -->
<g id="node21" class="node">
<title>374</title>
<ellipse fill="none" stroke="#000000" cx="2305.887" cy="-279" rx="137.2758" ry="18"/>
<text text-anchor="middle" x="2305.887" y="-275.3" font-family="Times,serif" font-size="14.00" fill="#000000">/proc/sys/kernel/ngroups_max [0.5]</text>
</g>
<!-- 374&#45;&gt;373 -->
<g id="edge20" class="edge">
<title>374&#45;&gt;373</title>
<path fill="none" stroke="#000000" d="M2300.6867,-260.6508C2298.8078,-249.7566 2298.8216,-236.4617 2306.887,-228 2327.3254,-206.557 2543.5004,-213.7361 2572.887,-210 2586.0237,-208.3299 2600.0791,-206.0036 2613.2703,-203.5771"/>
<polygon fill="#000000" stroke="#000000" points="2613.9821,-207.0046 2623.1597,-201.7111 2612.6841,-200.126 2613.9821,-207.0046"/>
<text text-anchor="middle" x="2391.387" y="-231.8" font-family="Times,serif" font-size="14.00" fill="#000000">58811 4.416589694755302E&#45;4</text>
</g>
<!-- 28 -->
<g id="node22" class="node">
<title>28</title>
<ellipse fill="none" stroke="#000000" cx="8326.887" cy="-279" rx="163.2712" ry="18"/>
<text text-anchor="middle" x="8326.887" y="-275.3" font-family="Times,serif" font-size="14.00" fill="#000000">/lib/x86_64&#45;linux&#45;gnu/libpthread.so.0 [0.5]</text>
</g>
<!-- 28&#45;&gt;373 -->
<g id="edge21" class="edge">
<title>28&#45;&gt;373</title>
<path fill="none" stroke="#000000" d="M8170.8014,-273.7414C8017.9747,-267.8261 7802.8213,-257.1636 7765.887,-243 7755.8414,-239.1477 7757.0382,-231.5645 7746.887,-228 7715.6735,-217.0397 3274.2314,-194.962 2724.4919,-192.2708"/>
<polygon fill="#000000" stroke="#000000" points="2724.452,-188.7706 2714.4349,-192.2216 2724.4177,-195.7705 2724.452,-188.7706"/>
<text text-anchor="middle" x="7847.387" y="-231.8" font-family="Times,serif" font-size="14.00" fill="#000000">58571 0.09759474425881716</text>
</g>
<!-- 28&#45;&gt;381 -->
<g id="edge38" class="edge">
<title>28&#45;&gt;381</title>
<path fill="none" stroke="#000000" d="M8436.5477,-265.5658C8461.4532,-260.2037 8482.9398,-252.8809 8490.887,-243 8495.0652,-237.8051 8495.5732,-232.7417 8490.887,-228 8475.9387,-212.875 6981.0992,-211.5028 6959.887,-210 6932.3498,-208.0491 6901.9037,-204.254 6876.6306,-200.6495"/>
<polygon fill="#000000" stroke="#000000" points="6876.8999,-197.152 6866.5002,-199.1759 6875.8921,-204.0791 6876.8999,-197.152"/>
<text text-anchor="middle" x="8575.387" y="-231.8" font-family="Times,serif" font-size="14.00" fill="#000000">67573 0.11068715391256698</text>
</g>
<!-- 28&#45;&gt;376 -->
<g id="edge40" class="edge">
<title>28&#45;&gt;376</title>
<path fill="none" stroke="#000000" d="M8479.7599,-272.645C8567.569,-267.3775 8663.1519,-258.2203 8676.887,-243 8681.3533,-238.0507 8681.5731,-232.7418 8676.887,-228 8661.9977,-212.9339 7173.0167,-211.4877 7151.887,-210 7124.0461,-208.0398 7093.2503,-204.2228 7067.7361,-200.6064"/>
<polygon fill="#000000" stroke="#000000" points="7067.9104,-197.0953 7057.5125,-199.1284 7066.9088,-204.0232 7067.9104,-197.0953"/>
<text text-anchor="middle" x="8758.387" y="-231.8" font-family="Times,serif" font-size="14.00" fill="#000000">61120 0.1626723402468921</text>
</g>
<!-- 28&#45;&gt;379 -->
<g id="edge46" class="edge">
<title>28&#45;&gt;379</title>
<path fill="none" stroke="#000000" d="M8482.5747,-273.5649C8634.316,-267.4874 8844.107,-256.6775 8856.887,-243 8861.4385,-238.1288 8861.5729,-232.742 8856.887,-228 8842.1155,-213.0518 7364.8504,-211.477 7343.887,-210 7316.0462,-208.0385 7285.2504,-204.2214 7259.7362,-200.6052"/>
<polygon fill="#000000" stroke="#000000" points="7259.9105,-197.0941 7249.5126,-199.1273 7258.9089,-204.0221 7259.9105,-197.0941"/>
<text text-anchor="middle" x="8941.387" y="-231.8" font-family="Times,serif" font-size="14.00" fill="#000000">63432 0.16413612013547746</text>
</g>
<!-- 28&#45;&gt;378 -->
<g id="edge54" class="edge">
<title>28&#45;&gt;378</title>
<path fill="none" stroke="#000000" d="M8172.9403,-272.9681C8087.791,-267.9181 7991.4109,-258.878 7951.887,-243 7941.9036,-238.9894 7943.0301,-231.5874 7932.887,-228 7851.6984,-199.2851 6468.7945,-216.001 6382.887,-210 6354.6155,-208.0251 6323.3162,-204.1611 6297.4945,-200.5178"/>
<polygon fill="#000000" stroke="#000000" points="6297.9173,-197.0427 6287.5209,-199.0836 6296.9208,-203.9715 6297.9173,-197.0427"/>
<text text-anchor="middle" x="8033.387" y="-231.8" font-family="Times,serif" font-size="14.00" fill="#000000">62495 0.16169722547750534</text>
</g>
<!-- 28&#45;&gt;372 -->
<g id="edge60" class="edge">
<title>28&#45;&gt;372</title>
<path fill="none" stroke="#000000" d="M8164.2411,-277.5305C7978.6925,-274.7312 7687.1144,-266.602 7579.887,-243 7562.5574,-239.1856 7560.2971,-231.4279 7542.887,-228 7408.5485,-201.5499 2750.5279,-218.6992 2613.887,-210 2601.1778,-209.1909 2587.8769,-208.0069 2574.7052,-206.6261"/>
<polygon fill="#000000" stroke="#000000" points="2574.9897,-203.1365 2564.6699,-205.5348 2574.2329,-210.0955 2574.9897,-203.1365"/>
<text text-anchor="middle" x="7661.387" y="-231.8" font-family="Times,serif" font-size="14.00" fill="#000000">56266 0.10121483193853861</text>
</g>
<!-- 28&#45;&gt;371 -->
<g id="edge72" class="edge">
<title>28&#45;&gt;371</title>
<path fill="none" stroke="#000000" d="M8488.7369,-276.4375C8694.0823,-272.376 9024.0577,-262.7997 9042.887,-243 9047.4811,-238.169 9047.5492,-232.7653 9042.887,-228 9014.4416,-198.9256 7734.5569,-193.0916 7451.7932,-192.1567"/>
<polygon fill="#000000" stroke="#000000" points="7451.7825,-188.6568 7441.7712,-192.1243 7451.7598,-195.6568 7451.7825,-188.6568"/>
<text text-anchor="middle" x="9124.387" y="-231.8" font-family="Times,serif" font-size="14.00" fill="#000000">55081 0.1663181868968973</text>
</g>
<!-- 28&#45;&gt;375 -->
<g id="edge80" class="edge">
<title>28&#45;&gt;375</title>
<path fill="none" stroke="#000000" d="M8324.1724,-260.9326C8321.4092,-249.4149 8315.8817,-235.3239 8304.887,-228 8269.3749,-204.3444 6811.4527,-212.9757 6768.887,-210 6740.6156,-208.0236 6709.3164,-204.1595 6683.4946,-200.5165"/>
<polygon fill="#000000" stroke="#000000" points="6683.9174,-197.0414 6673.521,-199.0824 6682.921,-203.9701 6683.9174,-197.0414"/>
<text text-anchor="middle" x="8398.387" y="-231.8" font-family="Times,serif" font-size="14.00" fill="#000000">59975 0.16382578305184753</text>
</g>
<!-- 28&#45;&gt;380 -->
<g id="edge84" class="edge">
<title>28&#45;&gt;380</title>
<path fill="none" stroke="#000000" d="M8211.7224,-266.1663C8186.6769,-260.8998 8160.8283,-253.473 8137.887,-243 8128.0997,-238.532 8129.03,-231.5877 8118.887,-228 8038.0658,-199.4126 6661.4065,-215.9762 6575.887,-210 6547.6155,-208.0244 6516.3163,-204.1603 6490.4945,-200.5172"/>
<polygon fill="#000000" stroke="#000000" points="6490.9173,-197.0421 6480.5209,-199.083 6489.9209,-203.9708 6490.9173,-197.0421"/>
<text text-anchor="middle" x="8219.387" y="-231.8" font-family="Times,serif" font-size="14.00" fill="#000000">66370 0.18593099408514638</text>
</g>
<!-- 40 -->
<g id="node23" class="node">
<title>40</title>
<ellipse fill="none" stroke="#000000" cx="1933.887" cy="-279" rx="178.9686" ry="18"/>
<text text-anchor="middle" x="1933.887" y="-275.3" font-family="Times,serif" font-size="14.00" fill="#000000">/lib/x86_64&#45;linux&#45;gnu/libnss_compat.so.2 [0.5]</text>
</g>
<!-- 40&#45;&gt;373 -->
<g id="edge22" class="edge">
<title>40&#45;&gt;373</title>
<path fill="none" stroke="#000000" d="M2019.7682,-263.1714C2045.1683,-257.6808 2072.8661,-250.8892 2097.887,-243 2114.418,-237.7877 2116.9634,-231.7469 2133.887,-228 2229.216,-206.8942 2475.8739,-221.0255 2572.887,-210 2586.0447,-208.5046 2600.1084,-206.2466 2613.3008,-203.8303"/>
<polygon fill="#000000" stroke="#000000" points="2614.0136,-207.2576 2623.1899,-201.9617 2612.7139,-200.3793 2614.0136,-207.2576"/>
<text text-anchor="middle" x="2215.387" y="-231.8" font-family="Times,serif" font-size="14.00" fill="#000000">58681 0.10156536889072781</text>
</g>
<!-- 40&#45;&gt;370 -->
<g id="edge30" class="edge">
<title>40&#45;&gt;370</title>
<path fill="none" stroke="#000000" d="M1928.8136,-260.7915C1927.3761,-255.1265 1925.9225,-248.8358 1924.887,-243 1912.4482,-172.9026 1905.5932,-89.295 1902.6499,-46.4334"/>
<polygon fill="#000000" stroke="#000000" points="1906.1254,-45.9478 1901.9691,-36.2023 1899.1409,-46.4127 1906.1254,-45.9478"/>
<text text-anchor="middle" x="2000.887" y="-144.8" font-family="Times,serif" font-size="14.00" fill="#000000">53460 4.4448495949329543E&#45;7</text>
</g>
<!-- 40&#45;&gt;372 -->
<g id="edge64" class="edge">
<title>40&#45;&gt;372</title>
<path fill="none" stroke="#000000" d="M1928.6859,-260.6501C1926.8068,-249.7556 1926.8206,-236.4607 1934.887,-228 1949.4301,-212.7459 2211.6453,-201.0295 2363.1204,-195.4995"/>
<polygon fill="#000000" stroke="#000000" points="2363.5152,-198.9876 2373.382,-195.1282 2363.262,-191.9922 2363.5152,-198.9876"/>
<text text-anchor="middle" x="2016.387" y="-231.8" font-family="Times,serif" font-size="14.00" fill="#000000">56382 0.10326586158173164</text>
</g>
<!-- 10 -->
<g id="node24" class="node">
<title>10</title>
<ellipse fill="none" stroke="#000000" cx="6628.887" cy="-279" rx="161.6714" ry="18"/>
<text text-anchor="middle" x="6628.887" y="-275.3" font-family="Times,serif" font-size="14.00" fill="#000000">/lib/x86_64&#45;linux&#45;gnu/libselinux.so.1 [0.5]</text>
</g>
<!-- 10&#45;&gt;373 -->
<g id="edge23" class="edge">
<title>10&#45;&gt;373</title>
<path fill="none" stroke="#000000" d="M6479.1636,-272.143C6344.327,-265.4155 6156.3853,-254.5151 6082.887,-243 6055.7309,-238.7454 6050.15,-231.5049 6022.887,-228 5852.6198,-206.1109 3149.5597,-193.9994 2724.8516,-192.2274"/>
<polygon fill="#000000" stroke="#000000" points="2724.683,-188.7268 2714.6685,-192.1851 2724.6538,-195.7267 2724.683,-188.7268"/>
<text text-anchor="middle" x="6164.387" y="-231.8" font-family="Times,serif" font-size="14.00" fill="#000000">58501 0.09634716894837356</text>
</g>
<!-- 10&#45;&gt;381 -->
<g id="edge33" class="edge">
<title>10&#45;&gt;381</title>
<path fill="none" stroke="#000000" d="M6731.8804,-265.0334C6760.882,-259.4148 6787.608,-252.0818 6798.887,-243 6806.2525,-237.0693 6811.3423,-228.2732 6814.8219,-219.6489"/>
<polygon fill="#000000" stroke="#000000" points="6818.1474,-220.7415 6818.102,-210.1468 6811.5305,-218.4574 6818.1474,-220.7415"/>
<text text-anchor="middle" x="6894.387" y="-231.8" font-family="Times,serif" font-size="14.00" fill="#000000">67503 3.076481594467263E&#45;4</text>
</g>
<!-- 10&#45;&gt;376 -->
<g id="edge42" class="edge">
<title>10&#45;&gt;376</title>
<path fill="none" stroke="#000000" d="M6772.2899,-270.5416C6862.3743,-264.1709 6964.8489,-254.5672 6982.887,-243 6991.6152,-237.4029 6998.1245,-228.2909 7002.8077,-219.306"/>
<polygon fill="#000000" stroke="#000000" points="7006.025,-220.6871 7007.0435,-210.1413 6999.6709,-217.7503 7006.025,-220.6871"/>
<text text-anchor="middle" x="7081.387" y="-231.8" font-family="Times,serif" font-size="14.00" fill="#000000">61050 4.901234987720869E&#45;4</text>
</g>
<!-- 10&#45;&gt;379 -->
<g id="edge45" class="edge">
<title>10&#45;&gt;379</title>
<path fill="none" stroke="#000000" d="M6787.648,-275.4314C6935.2907,-270.9836 7137.2743,-261.5817 7169.887,-243 7179.474,-237.5376 7187.0035,-228.2442 7192.5828,-219.075"/>
<polygon fill="#000000" stroke="#000000" points="7195.7693,-220.5436 7197.5159,-210.0937 7189.6339,-217.1736 7195.7693,-220.5436"/>
<text text-anchor="middle" x="7270.387" y="-231.8" font-family="Times,serif" font-size="14.00" fill="#000000">63362 5.173997503932457E&#45;4</text>
</g>
<!-- 10&#45;&gt;378 -->
<g id="edge51" class="edge">
<title>10&#45;&gt;378</title>
<path fill="none" stroke="#000000" d="M6479.325,-272.0683C6384.8521,-266.3769 6277.3909,-256.9575 6259.887,-243 6252.8064,-237.354 6248.651,-228.6612 6246.2206,-220.0424"/>
<polygon fill="#000000" stroke="#000000" points="6249.6161,-219.1839 6244.088,-210.1456 6242.7731,-220.6585 6249.6161,-219.1839"/>
<text text-anchor="middle" x="6347.887" y="-231.8" font-family="Times,serif" font-size="14.00" fill="#000000">62425 4.8228699010457527E&#45;4</text>
</g>
<!-- 10&#45;&gt;372 -->
<g id="edge57" class="edge">
<title>10&#45;&gt;372</title>
<path fill="none" stroke="#000000" d="M6468.0578,-276.7491C6258.3119,-273.0067 5911.4606,-263.7541 5855.887,-243 5845.808,-239.236 5847.0409,-231.5569 5836.887,-228 5752.3919,-198.4018 2703.2297,-215.7747 2613.887,-210 2601.1785,-209.1786 2587.8782,-207.9871 2574.7067,-206.6023"/>
<polygon fill="#000000" stroke="#000000" points="2574.9919,-203.1127 2564.6716,-205.5086 2574.2334,-210.0715 2574.9919,-203.1127"/>
<text text-anchor="middle" x="5937.387" y="-231.8" font-family="Times,serif" font-size="14.00" fill="#000000">56196 0.10071997311901446</text>
</g>
<!-- 10&#45;&gt;371 -->
<g id="edge74" class="edge">
<title>10&#45;&gt;371</title>
<path fill="none" stroke="#000000" d="M6786.1429,-274.6443C6993.1864,-268.4135 7334.0616,-256.237 7358.887,-243 7369.0024,-237.6064 7377.1631,-228.1996 7383.2908,-218.9218"/>
<polygon fill="#000000" stroke="#000000" points="7386.3815,-220.5738 7388.5404,-210.2012 7380.3843,-216.9636 7386.3815,-220.5738"/>
<text text-anchor="middle" x="7457.387" y="-231.8" font-family="Times,serif" font-size="14.00" fill="#000000">55011 5.18773287454695E&#45;4</text>
</g>
<!-- 10&#45;&gt;375 -->
<g id="edge78" class="edge">
<title>10&#45;&gt;375</title>
<path fill="none" stroke="#000000" d="M6628.887,-260.9735C6628.887,-249.1918 6628.887,-233.5607 6628.887,-220.1581"/>
<polygon fill="#000000" stroke="#000000" points="6632.3871,-220.0033 6628.887,-210.0034 6625.3871,-220.0034 6632.3871,-220.0033"/>
<text text-anchor="middle" x="6713.387" y="-231.8" font-family="Times,serif" font-size="14.00" fill="#000000">59905 4.921618428900504E&#45;4</text>
</g>
<!-- 10&#45;&gt;380 -->
<g id="edge86" class="edge">
<title>10&#45;&gt;380</title>
<path fill="none" stroke="#000000" d="M6515.4878,-266.1204C6486.0431,-260.661 6459.5777,-253.1468 6448.887,-243 6442.6675,-237.097 6439.261,-228.6685 6437.4408,-220.3593"/>
<polygon fill="#000000" stroke="#000000" points="6440.8985,-219.8157 6435.9249,-210.4609 6433.9791,-220.8755 6440.8985,-219.8157"/>
<text text-anchor="middle" x="6536.887" y="-231.8" font-family="Times,serif" font-size="14.00" fill="#000000">66300 4.6042840296867295E&#45;4</text>
</g>
<!-- 157 -->
<g id="node25" class="node">
<title>157</title>
<ellipse fill="none" stroke="#000000" cx="518.887" cy="-279" rx="78.7863" ry="18"/>
<text text-anchor="middle" x="518.887" y="-275.3" font-family="Times,serif" font-size="14.00" fill="#000000">/etc/localtime [0.5]</text>
</g>
<!-- 157&#45;&gt;372 -->
<g id="edge61" class="edge">
<title>157&#45;&gt;372</title>
<path fill="none" stroke="#000000" d="M528.019,-260.885C534.9985,-249.1879 545.8131,-234.9075 559.887,-228 600.605,-208.0155 1967.8899,-195.8831 2362.9751,-192.7887"/>
<polygon fill="#000000" stroke="#000000" points="2363.2815,-196.2865 2373.2538,-192.7085 2363.2268,-189.2867 2363.2815,-196.2865"/>
<text text-anchor="middle" x="644.387" y="-231.8" font-family="Times,serif" font-size="14.00" fill="#000000">56530 2.965893986730993E&#45;4</text>
</g>
</g>
</svg>
