<?xml version="1.0" encoding="UTF-8" standalone="no"?>
<!DOCTYPE svg PUBLIC "-//W3C//DTD SVG 1.1//EN"
 "http://www.w3.org/Graphics/SVG/1.1/DTD/svg11.dtd">
<!-- Generated by graphviz version 2.38.0 (20140413.2041)
 -->
<!-- Title: G Pages: 1 -->
<svg width="3201pt" height="218pt"
 viewBox="0.00 0.00 3201.08 218.00" xmlns="http://www.w3.org/2000/svg" xmlns:xlink="http://www.w3.org/1999/xlink">
<g id="graph0" class="graph" transform="scale(1 1) rotate(0) translate(4 214)">
<title>G</title>
<polygon fill="white" stroke="none" points="-4,4 -4,-214 3197.08,-214 3197.08,4 -4,4"/>
<!-- 1041 -->
<g id="node1" class="node"><title>1041</title>
<ellipse fill="none" stroke="black" cx="1161.29" cy="-18" rx="137.576" ry="18"/>
<text text-anchor="middle" x="1161.29" y="-14.3" font-family="Times,serif" font-size="14.00">/tmp/img [0.007707532559158717]</text>
</g>
<!-- 986 -->
<g id="node2" class="node"><title>986</title>
<polygon fill="none" stroke="black" points="1600.79,-123 1367.79,-123 1367.79,-87 1600.79,-87 1600.79,-123"/>
<text text-anchor="middle" x="1484.29" y="-101.3" font-family="Times,serif" font-size="14.00">18021python [0.007707532559158717]</text>
</g>
<!-- 986&#45;&gt;1041 -->
<g id="edge1" class="edge"><title>986&#45;&gt;1041</title>
<path fill="none" stroke="black" d="M1419.32,-86.9012C1364.23,-72.4037 1285.47,-51.6776 1229.48,-36.9444"/>
<polygon fill="black" stroke="black" points="1230.22,-33.5183 1219.65,-34.358 1228.43,-40.2878 1230.22,-33.5183"/>
<text text-anchor="middle" x="1373.29" y="-57.8" font-family="Times,serif" font-size="14.00">364421 1.0</text>
</g>
<!-- 1038 -->
<g id="node14" class="node"><title>1038</title>
<polygon fill="none" stroke="black" points="1821.85,-36 1420.09,-36 1316.74,-1.77636e-14 1718.5,-3.55271e-15 1821.85,-36"/>
<text text-anchor="middle" x="1569.29" y="-14.3" font-family="Times,serif" font-size="14.00">172.31.71.251:51926&#45;&gt;172.31.77.48:80 [0.0]</text>
</g>
<!-- 986&#45;&gt;1038 -->
<g id="edge14" class="edge"><title>986&#45;&gt;1038</title>
<path fill="none" stroke="black" d="M1478.33,-86.8574C1475.85,-76.4956 1474.85,-63.499 1481.29,-54 1484.47,-49.323 1488.37,-45.2709 1492.76,-41.7603"/>
<polygon fill="black" stroke="black" points="1494.87,-44.5595 1501.12,-36.008 1490.9,-38.7924 1494.87,-44.5595"/>
<text text-anchor="middle" x="1512.29" y="-57.8" font-family="Times,serif" font-size="14.00">362079 1.0</text>
</g>
<!-- 411 -->
<g id="node3" class="node"><title>411</title>
<ellipse fill="none" stroke="black" cx="79.293" cy="-192" rx="79.0865" ry="18"/>
<text text-anchor="middle" x="79.293" y="-188.3" font-family="Times,serif" font-size="14.00">/dev/urandom [0.5]</text>
</g>
<!-- 411&#45;&gt;986 -->
<g id="edge2" class="edge"><title>411&#45;&gt;986</title>
<path fill="none" stroke="black" d="M127.329,-177.613C172.77,-165.61 243.084,-148.735 305.293,-141 505.451,-116.112 1095.69,-108.802 1357.16,-106.755"/>
<polygon fill="black" stroke="black" points="1357.49,-110.252 1367.46,-106.675 1357.43,-103.252 1357.49,-110.252"/>
<text text-anchor="middle" x="397.293" y="-144.8" font-family="Times,serif" font-size="14.00">355283 0.0019088156319892896</text>
</g>
<!-- 994 -->
<g id="node4" class="node"><title>994</title>
<ellipse fill="none" stroke="black" cx="325.293" cy="-192" rx="148.674" ry="18"/>
<text text-anchor="middle" x="325.293" y="-188.3" font-family="Times,serif" font-size="14.00">/usr/lib/python2.7/mimetools.pyc [0.5]</text>
</g>
<!-- 994&#45;&gt;986 -->
<g id="edge5" class="edge"><title>994&#45;&gt;986</title>
<path fill="none" stroke="black" d="M390.288,-175.788C443.053,-164.12 519.547,-148.742 587.293,-141 732.497,-124.406 1146.4,-113.34 1357.35,-108.609"/>
<polygon fill="black" stroke="black" points="1357.63,-112.104 1367.55,-108.382 1357.48,-105.106 1357.63,-112.104"/>
<text text-anchor="middle" x="671.793" y="-144.8" font-family="Times,serif" font-size="14.00">347631 6.58007682349541E&#45;4</text>
</g>
<!-- 1004 -->
<g id="node5" class="node"><title>1004</title>
<ellipse fill="none" stroke="black" cx="628.293" cy="-192" rx="135.676" ry="18"/>
<text text-anchor="middle" x="628.293" y="-188.3" font-family="Times,serif" font-size="14.00">/usr/lib/python2.7/hashlib.pyc [0.5]</text>
</g>
<!-- 1004&#45;&gt;986 -->
<g id="edge3" class="edge"><title>1004&#45;&gt;986</title>
<path fill="none" stroke="black" d="M681.117,-175.328C722.421,-163.771 781.497,-148.761 834.293,-141 1014.77,-114.469 1226.08,-107.481 1357.59,-105.938"/>
<polygon fill="black" stroke="black" points="1357.74,-109.437 1367.7,-105.828 1357.66,-102.437 1357.74,-109.437"/>
<text text-anchor="middle" x="926.293" y="-144.8" font-family="Times,serif" font-size="14.00">353644 0.0014632645516388446</text>
</g>
<!-- 996 -->
<g id="node6" class="node"><title>996</title>
<ellipse fill="none" stroke="black" cx="922.293" cy="-192" rx="140.275" ry="18"/>
<text text-anchor="middle" x="922.293" y="-188.3" font-family="Times,serif" font-size="14.00">/usr/lib/python2.7/tempfile.pyc [0.5]</text>
</g>
<!-- 996&#45;&gt;986 -->
<g id="edge8" class="edge"><title>996&#45;&gt;986</title>
<path fill="none" stroke="black" d="M964.32,-174.693C995.338,-163.36 1038.84,-148.919 1078.29,-141 1170.59,-122.475 1276.62,-113.752 1357.18,-109.646"/>
<polygon fill="black" stroke="black" points="1357.56,-113.132 1367.37,-109.144 1357.21,-106.14 1357.56,-113.132"/>
<text text-anchor="middle" x="1170.29" y="-144.8" font-family="Times,serif" font-size="14.00">348768 0.0011675441788808216</text>
</g>
<!-- 1032 -->
<g id="node7" class="node"><title>1032</title>
<ellipse fill="none" stroke="black" cx="1214.29" cy="-192" rx="133.776" ry="18"/>
<text text-anchor="middle" x="1214.29" y="-188.3" font-family="Times,serif" font-size="14.00">/usr/lib/python2.7/rfc822.pyc [0.5]</text>
</g>
<!-- 1032&#45;&gt;986 -->
<g id="edge6" class="edge"><title>1032&#45;&gt;986</title>
<path fill="none" stroke="black" d="M1236.8,-174.17C1252.66,-163.117 1274.81,-149.231 1296.29,-141 1315.7,-133.567 1336.85,-127.677 1357.74,-123.019"/>
<polygon fill="black" stroke="black" points="1358.59,-126.416 1367.63,-120.897 1357.12,-119.571 1358.59,-126.416"/>
<text text-anchor="middle" x="1388.29" y="-144.8" font-family="Times,serif" font-size="14.00">359656 0.0035186893718410286</text>
</g>
<!-- 998 -->
<g id="node8" class="node"><title>998</title>
<ellipse fill="none" stroke="black" cx="1484.29" cy="-192" rx="117.779" ry="18"/>
<text text-anchor="middle" x="1484.29" y="-188.3" font-family="Times,serif" font-size="14.00">/usr/lib/python2.7/io.pyc [0.5]</text>
</g>
<!-- 998&#45;&gt;986 -->
<g id="edge4" class="edge"><title>998&#45;&gt;986</title>
<path fill="none" stroke="black" d="M1484.29,-173.799C1484.29,-162.163 1484.29,-146.548 1484.29,-133.237"/>
<polygon fill="black" stroke="black" points="1487.79,-133.175 1484.29,-123.175 1480.79,-133.175 1487.79,-133.175"/>
<text text-anchor="middle" x="1576.29" y="-144.8" font-family="Times,serif" font-size="14.00">350484 0.0010261327156038628</text>
</g>
<!-- 672 -->
<g id="node9" class="node"><title>672</title>
<ellipse fill="none" stroke="black" cx="1705.29" cy="-192" rx="85.2851" ry="18"/>
<text text-anchor="middle" x="1705.29" y="-188.3" font-family="Times,serif" font-size="14.00">/etc/resolv.conf [0.5]</text>
</g>
<!-- 672&#45;&gt;986 -->
<g id="edge10" class="edge"><title>672&#45;&gt;986</title>
<path fill="none" stroke="black" d="M1698.35,-173.981C1692.91,-162.844 1684.25,-148.935 1672.29,-141 1660.96,-133.481 1637.62,-127.189 1611.12,-122.11"/>
<polygon fill="black" stroke="black" points="1611.7,-118.658 1601.24,-120.294 1610.44,-125.543 1611.7,-118.658"/>
<text text-anchor="middle" x="1776.29" y="-144.8" font-family="Times,serif" font-size="14.00">344731 6.514927548015257E&#45;6</text>
</g>
<!-- 1002 -->
<g id="node10" class="node"><title>1002</title>
<ellipse fill="none" stroke="black" cx="1958.29" cy="-192" rx="149.473" ry="18"/>
<text text-anchor="middle" x="1958.29" y="-188.3" font-family="Times,serif" font-size="14.00">/usr/lib/python2.7/__future__.pyc [0.5]</text>
</g>
<!-- 1002&#45;&gt;986 -->
<g id="edge12" class="edge"><title>1002&#45;&gt;986</title>
<path fill="none" stroke="black" d="M1934.33,-174.046C1916.88,-162.634 1892.21,-148.371 1868.29,-141 1821.77,-126.659 1704.15,-117.316 1611.25,-111.921"/>
<polygon fill="black" stroke="black" points="1611.38,-108.423 1601.19,-111.347 1610.98,-115.411 1611.38,-108.423"/>
<text text-anchor="middle" x="1994.29" y="-144.8" font-family="Times,serif" font-size="14.00">352774 0.0013537595561111328</text>
</g>
<!-- 992 -->
<g id="node11" class="node"><title>992</title>
<ellipse fill="none" stroke="black" cx="2259.29" cy="-192" rx="133.776" ry="18"/>
<text text-anchor="middle" x="2259.29" y="-188.3" font-family="Times,serif" font-size="14.00">/usr/lib/python2.7/httplib.pyc [0.5]</text>
</g>
<!-- 992&#45;&gt;986 -->
<g id="edge7" class="edge"><title>992&#45;&gt;986</title>
<path fill="none" stroke="black" d="M2215.13,-174.889C2181.41,-163.341 2133.55,-148.544 2090.29,-141 2001.56,-125.524 1761.11,-115.11 1611.14,-109.898"/>
<polygon fill="black" stroke="black" points="1611.06,-106.393 1600.94,-109.547 1610.82,-113.389 1611.06,-106.393"/>
<text text-anchor="middle" x="2240.29" y="-144.8" font-family="Times,serif" font-size="14.00">346344 9.549645263275334E&#45;4</text>
</g>
<!-- 1025 -->
<g id="node12" class="node"><title>1025</title>
<ellipse fill="none" stroke="black" cx="2655.29" cy="-192" rx="244.257" ry="18"/>
<text text-anchor="middle" x="2655.29" y="-188.3" font-family="Times,serif" font-size="14.00">/usr/lib/python2.7/lib&#45;dynload/_hashlib.x86_64&#45;linux&#45;gnu.so [0.5]</text>
</g>
<!-- 1025&#45;&gt;986 -->
<g id="edge9" class="edge"><title>1025&#45;&gt;986</title>
<path fill="none" stroke="black" d="M2569.94,-175.107C2505.01,-163.671 2413.33,-148.92 2332.29,-141 2077.15,-116.066 1777.13,-108.858 1611.08,-106.798"/>
<polygon fill="black" stroke="black" points="1610.87,-103.295 1600.83,-106.675 1610.78,-110.295 1610.87,-103.295"/>
<text text-anchor="middle" x="2540.29" y="-144.8" font-family="Times,serif" font-size="14.00">355243 0.0017690966192879418</text>
</g>
<!-- 1000 -->
<g id="node13" class="node"><title>1000</title>
<ellipse fill="none" stroke="black" cx="3055.29" cy="-192" rx="137.576" ry="18"/>
<text text-anchor="middle" x="3055.29" y="-188.3" font-family="Times,serif" font-size="14.00">/usr/lib/python2.7/random.pyc [0.5]</text>
</g>
<!-- 1000&#45;&gt;986 -->
<g id="edge11" class="edge"><title>1000&#45;&gt;986</title>
<path fill="none" stroke="black" d="M2966.83,-178.139C2882.18,-166.38 2750.81,-149.555 2636.29,-141 2264.51,-113.224 1823.66,-107.34 1611.23,-106.194"/>
<polygon fill="black" stroke="black" points="1611,-102.693 1600.98,-106.142 1610.96,-109.693 1611,-102.693"/>
<text text-anchor="middle" x="2879.29" y="-144.8" font-family="Times,serif" font-size="14.00">351684 0.0015882753567394254</text>
</g>
<!-- 1038&#45;&gt;986 -->
<g id="edge13" class="edge"><title>1038&#45;&gt;986</title>
<path fill="none" stroke="black" d="M1564.74,-36.3164C1561.31,-46.7436 1555.73,-59.7479 1547.29,-69 1543.09,-73.6121 1538.13,-77.7556 1532.88,-81.438"/>
<polygon fill="black" stroke="black" points="1530.96,-78.5052 1524.43,-86.8462 1534.74,-84.3997 1530.96,-78.5052"/>
<text text-anchor="middle" x="1638.79" y="-57.8" font-family="Times,serif" font-size="14.00">362081 0.9845849348816825</text>
</g>
</g>
</svg>
